BertiogaSans-Italic[wght].glyphspackage
{
glyphname = exclam;
layers = (
{
layerId = "826E86D0-E588-4774-9A02-039E3F74D6B5";
shapes = (
{
closed = 1;
nodes = (
(713,1409,l),
(353,1409,l),
(201,445,l),
(486,445,l)
);
},
{
closed = 1;
nodes = (
(491,316,l),
(140,316,l),
(80,0,l),
(431,0,l)
);
}
);
width = 757;
},
{
layerId = "CCC0E55B-A8B0-4BE5-BCFE-654143F4C169";
shapes = (
{
closed = 1;
nodes = (
(652,1409,l),
(348,1409,l),
(189,428,l),
(427,428,l)
);
},
{
closed = 1;
nodes = (
(424,277,l),
(127,277,l),
(74,0,l),
(371,0,l)
);
}
);
width = 682;
},
{
layerId = "BA5C3EFA-52F0-4978-BF26-13A2AC8190BC";
shapes = (
{
closed = 1;
nodes = (
(560,1409,l),
(340,1409,l),
(171,404,l),
(339,404,l)
);
},
{
closed = 1;
nodes = (
(324,217,l),
(107,217,l),
(64,0,l),
(281,0,l)
);
}
);
width = 569;
},
{
layerId = "344EAA8B-658C-4164-B741-D5EC6A8B0AA2";
shapes = (
{
closed = 1;
nodes = (
(517,1409,l),
(353,1409,l),
(177,387,l),
(298,387,l)
);
},
{
closed = 1;
nodes = (
(275,178,l),
(112,178,l),
(76,0,l),
(239,0,l)
);
}
);
width = 531;
}
);
unicode = 33;
}
{
glyphname = quotedbl;
layers = (
{
layerId = "826E86D0-E588-4774-9A02-039E3F74D6B5";
shapes = (
{
closed = 1;
nodes = (
(1119,1409,l),
(783,1409,l),
(705,852,l),
(976,852,l)
);
},
{
closed = 1;
nodes = (
(651,1409,l),
(318,1409,l),
(240,852,l),
(512,852,l)
);
}
);
width = 1134;
},
{
layerId = "CCC0E55B-A8B0-4BE5-BCFE-654143F4C169";
shapes = (
{
closed = 1;
nodes = (
(999,1409,l),
(715,1409,l),
(642,891,l),
(869,891,l)
);
},
{
closed = 1;
nodes = (
(565,1409,l),
(283,1409,l),
(210,891,l),
(437,891,l)
);
}
);
width = 971;
},
{
layerId = "BA5C3EFA-52F0-4978-BF26-13A2AC8190BC";
shapes = (
{
closed = 1;
nodes = (
(820,1409,l),
(614,1409,l),
(547,949,l),
(708,949,l)
);
},
{
closed = 1;
nodes = (
(436,1409,l),
(230,1409,l),
(165,949,l),
(326,949,l)
);
}
);
width = 727;
},
{
layerId = "344EAA8B-658C-4164-B741-D5EC6A8B0AA2";
shapes = (
{
closed = 1;
nodes = (
(741,1409,l),
(587,1409,l),
(525,988,l),
(642,988,l)
);
},
{
closed = 1;
nodes = (
(391,1409,l),
(236,1409,l),
(176,988,l),
(292,988,l)
);
}
);
width = 646;
}
);
unicode = 34;
}
{
glyphname = numbersign;
layers = (
{
layerId = "F22D2CAB-3A7F-49A1-9202-DC9343798BDC";
shapes = (
{
closed = 1;
nodes = (
(390,363,l),
(660,363,l),
(584,0,l),
(770,0,l),
(848,363,l),
(1070,363,l),
(1070,539,l),
(885,539,l),
(948,847,l),
(1121,847,l),
(1121,1021,l),
(988,1021,l),
(1069,1391,l),
(883,1391,l),
(801,1021,l),
(532,1021,l),
(610,1391,l),
(428,1391,l),
(347,1021,l),
(133,1021,l),
(133,847,l),
(310,847,l),
(246,539,l),
(82,539,l),
(82,363,l),
(207,363,l),
(131,0,l),
(313,0,l)
);
},
{
closed = 1;
nodes = (
(428,539,l),
(495,847,l),
(767,847,l),
(702,539,l)
);
}
);
width = 1139;
},
{
layerId = "540001E1-6881-4DFA-ACAC-B89E119E0EAF";
shapes = (
{
closed = 1;
nodes = (
(376,378,l),
(678,378,l),
(599,0,l),
(759,0,l),
(840,378,l),
(1083,378,l),
(1083,531,l),
(872,531,l),
(941,860,l),
(1134,860,l),
(1134,1011,l),
(974,1011,l),
(1058,1394,l),
(898,1394,l),
(814,1011,l),
(513,1011,l),
(594,1394,l),
(437,1394,l),
(353,1011,l),
(118,1011,l),
(118,860,l),
(321,860,l),
(252,531,l),
(67,531,l),
(67,378,l),
(218,378,l),
(140,0,l),
(297,0,l)
);
},
{
closed = 1;
nodes = (
(410,531,l),
(481,860,l),
(784,860,l),
(714,531,l)
);
}
);
width = 1139;
},
{
layerId = "85C7CFC8-DA24-401F-A421-248411B25E5A";
shapes = (
{
closed = 1;
nodes = (
(356,402,l),
(706,402,l),
(621,0,l),
(741,0,l),
(828,402,l),
(1103,402,l),
(1103,519,l),
(854,519,l),
(929,880,l),
(1154,880,l),
(1154,997,l),
(954,997,l),
(1040,1400,l),
(920,1400,l),
(832,997,l),
(483,997,l),
(570,1400,l),
(449,1400,l),
(361,997,l),
(96,997,l),
(96,880,l),
(337,880,l),
(262,519,l),
(45,519,l),
(45,402,l),
(236,402,l),
(152,0,l),
(273,0,l)
);
},
{
closed = 1;
nodes = (
(382,519,l),
(461,880,l),
(808,880,l),
(732,519,l)
);
}
);
width = 1139;
},
{
layerId = "9CB70E7F-BC76-4DD2-ACFF-26AC98198772";
shapes = (
{
closed = 1;
nodes = (
(342,417,l),
(724,417,l),
(636,0,l),
(730,0,l),
(820,417,l),
(1116,417,l),
(1116,511,l),
(841,511,l),
(922,893,l),
(1167,893,l),
(1167,987,l),
(940,987,l),
(1029,1403,l),
(935,1403,l),
(845,987,l),
(464,987,l),
(554,1403,l),
(458,1403,l),
(367,987,l),
(81,987,l),
(81,893,l),
(348,893,l),
(268,511,l),
(30,511,l),
(30,417,l),
(247,417,l),
(161,0,l),
(257,0,l)
);
},
{
closed = 1;
nodes = (
(364,511,l),
(447,893,l),
(825,893,l),
(744,511,l)
);
}
);
width = 1139;
}
);
unicode = 35;
}
{
glyphname = dollar;
layers = (
{
layerId = "F22D2CAB-3A7F-49A1-9202-DC9343798BDC";
shapes = (
{
closed = 1;
nodes = (
(1085,599,o),
(1051,674,o),
(983,731,cs),
(915,788,o),
(808,833,o),
(663,865,c),
(718,1159,l),
(772,1171,o),
(805,1127,o),
(817,1025,c),
(1148,1090,l),
(1145,1190,o),
(1108,1267,o),
(1036,1322,cs),
(965,1376,o),
(874,1399,o),
(763,1391,c),
(790,1516,l),
(683,1523,l),
(659,1400,l),
(552,1400,o),
(456,1382,o),
(370,1345,cs),
(284,1308,o),
(221,1258,o),
(181,1195,cs),
(140,1130,o),
(119,1055,o),
(119,968,cs),
(119,924,o),
(129,881,o),
(148,837,cs),
(167,793,o),
(196,754,o),
(233,718,c),
(307,655,o),
(394,612,o),
(496,590,c),
(438,272,l),
(398,267,o),
(367,277,o),
(345,300,cs),
(324,323,o),
(315,358,o),
(318,405,c),
(-10,359,l),
(-9,257,o),
(31,173,o),
(110,109,cs),
(188,46,o),
(281,17,o),
(387,23,c),
(355,-160,l),
(466,-160,l),
(500,21,l),
(699,30,o),
(846,74,o),
(942,155,cs),
(1038,235,o),
(1085,352,o),
(1085,507,cs)
);
},
{
closed = 1;
nodes = (
(445,1043,o),
(461,1083,o),
(495,1116,c),
(528,1150,o),
(567,1165,o),
(613,1163,c),
(555,888,l),
(514,903,o),
(485,919,o),
(469,936,cs),
(453,953,o),
(445,973,o),
(445,998,cs)
);
},
{
closed = 1;
nodes = (
(758,370,o),
(737,335,o),
(694,308,cs),
(651,281,o),
(601,269,o),
(544,273,c),
(606,567,l),
(655,560,o),
(692,546,o),
(719,523,cs),
(745,501,o),
(758,464,o),
(758,413,cs)
);
}
);
width = 1139;
},
{
layerId = "540001E1-6881-4DFA-ACAC-B89E119E0EAF";
shapes = (
{
closed = 1;
nodes = (
(1080,570,o),
(1048,645,o),
(982,703,cs),
(916,762,o),
(812,808,o),
(672,841,c),
(738,1185,l),
(817,1187,o),
(866,1136,o),
(884,1031,c),
(1155,1089,l),
(1148,1183,o),
(1110,1256,o),
(1041,1309,cs),
(974,1362,o),
(885,1388,o),
(777,1387,c),
(804,1516,l),
(694,1521,l),
(670,1395,l),
(566,1395,o),
(473,1378,o),
(390,1343,cs),
(307,1309,o),
(244,1261,o),
(203,1201,cs),
(161,1139,o),
(140,1068,o),
(140,985,cs),
(140,935,o),
(151,888,o),
(172,845,cs),
(194,801,o),
(225,763,o),
(266,729,cs),
(331,677,o),
(414,639,o),
(515,615,c),
(444,237,l),
(387,236,o),
(343,250,o),
(312,279,cs),
(282,308,o),
(265,351,o),
(261,408,c),
(-11,365,l),
(-4,262,o),
(38,178,o),
(114,115,cs),
(189,53,o),
(285,22,o),
(401,23,c),
(369,-153,l),
(481,-153,l),
(514,21,l),
(703,29,o),
(845,71,o),
(939,148,cs),
(1034,225,o),
(1080,335,o),
(1080,479,cs)
);
},
{
closed = 1;
nodes = (
(417,1058,o),
(436,1102,o),
(476,1137,cs),
(516,1173,o),
(567,1190,o),
(630,1189,c),
(564,866,l),
(508,886,o),
(469,906,o),
(448,927,cs),
(427,948,o),
(417,973,o),
(417,1005,cs)
);
},
{
closed = 1;
nodes = (
(802,359,o),
(779,316,o),
(733,284,cs),
(686,252,o),
(626,237,o),
(553,238,c),
(624,589,l),
(685,575,o),
(730,556,o),
(759,529,cs),
(788,503,o),
(802,464,o),
(802,413,cs)
);
}
);
width = 1139;
},
{
layerId = "85C7CFC8-DA24-401F-A421-248411B25E5A";
shapes = (
{
closed = 1;
nodes = (
(1074,526,o),
(1042,601,o),
(979,662,cs),
(916,722,o),
(819,770,o),
(686,805,c),
(768,1225,l),
(886,1211,o),
(958,1150,o),
(986,1039,c),
(1167,1087,l),
(1151,1172,o),
(1112,1240,o),
(1049,1291,cs),
(986,1341,o),
(903,1371,o),
(797,1381,c),
(824,1516,l),
(712,1517,l),
(686,1387,l),
(587,1386,o),
(498,1371,o),
(419,1341,cs),
(340,1310,o),
(280,1267,o),
(237,1211,cs),
(194,1154,o),
(172,1087,o),
(172,1011,cs),
(172,950,o),
(184,900,o),
(209,856,cs),
(233,813,o),
(269,776,o),
(316,745,cs),
(368,710,o),
(443,679,o),
(543,653,c),
(452,185,l),
(370,190,o),
(307,211,o),
(262,248,cs),
(218,284,o),
(189,339,o),
(175,412,c),
(-11,373,l),
(4,268,o),
(47,185,o),
(119,124,cs),
(190,64,o),
(291,30,o),
(421,23,c),
(389,-143,l),
(503,-143,l),
(534,21,l),
(710,27,o),
(843,65,o),
(936,138,cs),
(1028,209,o),
(1074,309,o),
(1074,437,cs)
);
},
{
closed = 1;
nodes = (
(375,1080,o),
(399,1132,o),
(449,1169,cs),
(497,1206,o),
(566,1226,o),
(656,1229,c),
(578,834,l),
(498,859,o),
(445,885,o),
(417,912,cs),
(389,939,o),
(375,973,o),
(375,1015,cs)
);
},
{
closed = 1;
nodes = (
(868,342,o),
(843,288,o),
(791,249,cs),
(740,210,o),
(665,188,o),
(565,184,c),
(652,623,l),
(731,599,o),
(787,571,o),
(820,539,cs),
(852,507,o),
(868,465,o),
(868,413,cs)
);
}
);
width = 1139;
},
{
layerId = "9CB70E7F-BC76-4DD2-ACFF-26AC98198772";
shapes = (
{
closed = 1;
nodes = (
(1069,497,o),
(1039,572,o),
(978,634,cs),
(917,696,o),
(823,745,o),
(695,781,c),
(788,1251,l),
(931,1227,o),
(1019,1159,o),
(1053,1045,c),
(1174,1086,l),
(1154,1165,o),
(1114,1229,o),
(1054,1278,cs),
(995,1327,o),
(914,1360,o),
(811,1377,c),
(838,1516,l),
(723,1515,l),
(697,1382,l),
(601,1381,o),
(515,1367,o),
(439,1339,cs),
(363,1311,o),
(303,1270,o),
(259,1217,cs),
(215,1163,o),
(193,1100,o),
(193,1028,cs),
(193,961,o),
(206,907,o),
(233,864,cs),
(260,821,o),
(298,785,o),
(349,756,cs),
(392,732,o),
(463,706,o),
(562,678,c),
(458,150,l),
(359,159,o),
(283,184,o),
(229,227,cs),
(176,269,o),
(139,332,o),
(118,415,c),
(-12,379,l),
(9,273,o),
(54,190,o),
(123,130,cs),
(191,71,o),
(295,35,o),
(435,23,c),
(403,-136,l),
(518,-136,l),
(548,21,l),
(714,26,o),
(842,62,o),
(933,131,cs),
(1024,199,o),
(1069,292,o),
(1069,409,cs)
);
},
{
closed = 1;
nodes = (
(347,1095,o),
(374,1151,o),
(430,1190,cs),
(485,1229,o),
(566,1251,o),
(673,1255,c),
(587,812,l),
(492,842,o),
(429,872,o),
(396,903,cs),
(363,934,o),
(347,973,o),
(347,1022,cs)
);
},
{
closed = 1;
nodes = (
(912,331,o),
(885,269,o),
(830,225,cs),
(775,181,o),
(690,156,o),
(574,149,c),
(670,645,l),
(761,614,o),
(825,581,o),
(860,545,cs),
(895,509,o),
(912,465,o),
(912,413,cs)
);
}
);
width = 1139;
}
);
unicode = 36;
}
{
glyphname = percent;
layers = (
{
layerId = "4BF4B489-BD31-44B3-B107-FC4282D889AB";
shapes = (
{
closed = 1;
nodes = (
(242,1421,o),
(88,1109,o),
(88,841,cs),
(88,641,o),
(206,524,o),
(407,524,cs),
(714,524,o),
(889,835,o),
(889,1113,cs),
(889,1329,o),
(750,1421,o),
(546,1421,cs)
);
},
{
closed = 1;
nodes = (
(527,0,l),
(1547,1409,l),
(1328,1409,l),
(307,0,l)
);
},
{
closed = 1;
nodes = (
(611,1242,o),
(626,1187,o),
(626,1131,cs),
(626,1000,o),
(565,718,o),
(411,718,cs),
(358,718,o),
(343,787,o),
(343,827,cs),
(343,940,o),
(381,1242,o),
(545,1242,cs)
);
},
{
closed = 1;
nodes = (
(1128,881,o),
(985,571,o),
(985,301,cs),
(985,97,o),
(1100,-16,o),
(1303,-16,cs),
(1610,-16,o),
(1784,296,o),
(1784,573,cs),
(1784,791,o),
(1644,881,o),
(1440,881,cs)
);
},
{
closed = 1;
nodes = (
(1505,699,o),
(1521,645,o),
(1521,591,cs),
(1521,462,o),
(1457,175,o),
(1307,175,cs),
(1252,175,o),
(1238,246,o),
(1238,287,cs),
(1238,401,o),
(1278,699,o),
(1441,699,cs)
);
}
);
width = 1821;
},
{
layerId = "86356D96-A9F7-466C-8338-FA4F598E1FDA";
shapes = (
{
closed = 1;
nodes = (
(242,1421,o),
(108,1104,o),
(108,841,cs),
(108,650,o),
(209,524,o),
(407,524,cs),
(710,524,o),
(860,848,o),
(860,1113,cs),
(860,1314,o),
(745,1421,o),
(546,1421,cs)
);
},
{
closed = 1;
nodes = (
(492,0,l),
(1570,1409,l),
(1368,1409,l),
(291,0,l)
);
},
{
closed = 1;
nodes = (
(623,1266,o),
(639,1196,o),
(639,1131,cs),
(639,993,o),
(582,690,o),
(411,690,cs),
(339,690,o),
(329,771,o),
(329,827,cs),
(329,957,o),
(364,1266,o),
(545,1266,cs)
);
},
{
closed = 1;
nodes = (
(1143,882,o),
(1016,566,o),
(1016,302,cs),
(1016,110,o),
(1115,-15,o),
(1314,-15,cs),
(1617,-15,o),
(1767,309,o),
(1767,574,cs),
(1767,776,o),
(1651,882,o),
(1452,882,cs)
);
},
{
closed = 1;
nodes = (
(1529,726,o),
(1546,656,o),
(1546,592,cs),
(1546,455,o),
(1487,150,o),
(1318,150,cs),
(1245,150,o),
(1236,232,o),
(1236,288,cs),
(1236,418,o),
(1272,726,o),
(1452,726,cs)
);
}
);
width = 1821;
},
{
layerId = "55E58B27-7540-477B-A952-538A3E316EF2";
shapes = (
{
closed = 1;
nodes = (
(242,1421,o),
(138,1096,o),
(138,841,cs),
(138,664,o),
(213,524,o),
(407,524,cs),
(704,524,o),
(816,867,o),
(816,1113,cs),
(816,1291,o),
(738,1421,o),
(546,1421,cs)
);
},
{
closed = 1;
nodes = (
(440,0,l),
(1604,1409,l),
(1428,1409,l),
(267,0,l)
);
},
{
closed = 1;
nodes = (
(641,1302,o),
(659,1209,o),
(659,1131,cs),
(659,983,o),
(608,648,o),
(411,648,cs),
(311,648,o),
(293,747,o),
(293,827,cs),
(293,983,o),
(339,1302,o),
(545,1302,cs)
);
},
{
closed = 1;
nodes = (
(1166,884,o),
(1062,559,o),
(1062,304,cs),
(1062,130,o),
(1138,-13,o),
(1330,-13,cs),
(1627,-13,o),
(1741,329,o),
(1741,576,cs),
(1741,754,o),
(1661,884,o),
(1470,884,cs)
);
},
{
closed = 1;
nodes = (
(1565,766,o),
(1584,673,o),
(1584,594,cs),
(1584,444,o),
(1532,112,o),
(1334,112,cs),
(1235,112,o),
(1218,211,o),
(1218,290,cs),
(1218,443,o),
(1263,766,o),
(1468,766,cs)
);
}
);
width = 1821;
},
{
layerId = "79976DCB-F9F8-4AE0-A082-2E792CAF2855";
shapes = (
{
closed = 1;
nodes = (
(241,1421,o),
(157,1088,o),
(157,841,cs),
(157,678,o),
(218,524,o),
(406,524,cs),
(697,524,o),
(787,881,o),
(787,1113,cs),
(787,1273,o),
(729,1421,o),
(545,1421,cs)
);
},
{
closed = 1;
nodes = (
(405,0,l),
(1626,1409,l),
(1469,1409,l),
(250,0,l)
);
},
{
closed = 1;
nodes = (
(654,1327,o),
(673,1219,o),
(673,1131,cs),
(673,971,o),
(623,621,o),
(410,621,cs),
(293,621,o),
(270,732,o),
(270,827,cs),
(270,1000,o),
(317,1327,o),
(544,1327,cs)
);
},
{
closed = 1;
nodes = (
(1175,886,o),
(1093,555,o),
(1093,306,cs),
(1093,144,o),
(1154,-11,o),
(1341,-11,cs),
(1632,-11,o),
(1723,345,o),
(1723,578,cs),
(1723,738,o),
(1665,886,o),
(1481,886,cs)
);
},
{
closed = 1;
nodes = (
(1589,792,o),
(1609,685,o),
(1609,596,cs),
(1609,435,o),
(1560,86,o),
(1345,86,cs),
(1228,86,o),
(1206,197,o),
(1206,292,cs),
(1206,464,o),
(1253,792,o),
(1479,792,cs)
);
}
);
width = 1821;
}
);
unicode = 37;
}
{
glyphname = ampersand;
layers = (
{
layerId = "2D57F921-1619-4848-A780-0286F5C5F7A5";
shapes = (
{
closed = 1;
nodes = (
(1159,774,l),
(1114,663,o),
(1022,534,o),
(937,449,c),
(872,533,o),
(833,623,o),
(796,722,c),
(859,747,o),
(919,769,o),
(973,791,cs),
(1134,858,o),
(1244,934,o),
(1244,1163,cs),
(1244,1369,o),
(1062,1417,o),
(891,1417,cs),
(653,1417,o),
(444,1300,o),
(444,1038,cs),
(444,975,o),
(460,872,o),
(484,814,c),
(277,749,o),
(60,596,o),
(60,356,cs),
(60,84,o),
(225,-20,o),
(480,-20,cs),
(638,-20,o),
(750,-1,o),
(874,102,c),
(967,24,o),
(1080,-12,o),
(1201,-12,cs),
(1251,-12,o),
(1302,-6,o),
(1350,10,c),
(1406,259,l),
(1371,246,o),
(1333,243,o),
(1296,243,cs),
(1229,243,o),
(1168,255,o),
(1114,297,c),
(1209,392,o),
(1331,550,o),
(1383,672,c)
);
},
{
closed = 1;
nodes = (
(717,1136,o),
(773,1214,o),
(874,1214,cs),
(928,1214,o),
(973,1201,o),
(973,1138,cs),
(973,1013,o),
(837,956,o),
(738,918,c),
(720,956,o),
(717,1000,o),
(717,1041,cs)
);
},
{
closed = 1;
nodes = (
(429,210,o),
(372,275,o),
(372,364,cs),
(372,478,o),
(445,552,o),
(540,602,c),
(581,485,o),
(634,376,o),
(706,274,c),
(660,236,o),
(579,210,o),
(520,210,cs)
);
}
);
width = 1554;
},
{
layerId = "7F330584-10E9-4267-8E26-4D2DDDC504D5";
shapes = (
{
closed = 1;
nodes = (
(1139,762,l),
(1082,631,o),
(1006,506,o),
(907,403,c),
(833,504,o),
(783,609,o),
(740,726,c),
(797,750,o),
(861,775,o),
(923,806,cs),
(1070,880,o),
(1205,983,o),
(1205,1160,cs),
(1205,1357,o),
(1034,1417,o),
(866,1417,cs),
(628,1417,o),
(436,1292,o),
(436,1037,cs),
(436,968,o),
(449,876,o),
(472,811,c),
(259,739,o),
(46,605,o),
(46,354,cs),
(46,92,o),
(214,-20,o),
(461,-20,cs),
(619,-20,o),
(735,5,o),
(860,105,c),
(946,28,o),
(1051,-12,o),
(1167,-12,cs),
(1215,-12,o),
(1263,-6,o),
(1308,10,c),
(1350,220,l),
(1315,207,o),
(1276,204,o),
(1239,204,cs),
(1173,204,o),
(1106,222,o),
(1055,267,c),
(1166,378,o),
(1268,532,o),
(1332,676,c)
);
},
{
closed = 1;
nodes = (
(669,1154,o),
(732,1242,o),
(852,1242,cs),
(919,1242,o),
(974,1216,o),
(974,1141,cs),
(974,998,o),
(800,942,o),
(690,899,c),
(675,945,o),
(669,993,o),
(669,1041,cs)
);
},
{
closed = 1;
nodes = (
(381,176,o),
(309,251,o),
(309,361,cs),
(309,500,o),
(407,574,o),
(522,627,c),
(568,493,o),
(633,367,o),
(717,253,c),
(656,205,o),
(569,176,o),
(492,176,cs)
);
}
);
width = 1479;
},
{
layerId = "70541219-6074-4DB1-927E-09A6A4A4AC13";
shapes = (
{
closed = 1;
nodes = (
(1109,744,l),
(1045,604,o),
(966,448,o),
(861,335,c),
(772,456,o),
(704,591,o),
(654,732,c),
(710,755,o),
(765,779,o),
(820,805,cs),
(976,877,o),
(1145,956,o),
(1145,1156,cs),
(1145,1339,o),
(992,1417,o),
(828,1417,cs),
(595,1417,o),
(422,1279,o),
(422,1037,cs),
(422,959,o),
(434,882,o),
(452,807,c),
(233,726,o),
(24,617,o),
(24,352,cs),
(24,102,o),
(197,-20,o),
(433,-20,cs),
(588,-20,o),
(712,20,o),
(838,109,c),
(915,34,o),
(1008,-12,o),
(1117,-12,cs),
(1161,-12,o),
(1205,-5,o),
(1246,10,c),
(1264,162,l),
(1228,150,o),
(1190,146,o),
(1153,146,cs),
(1084,146,o),
(1017,175,o),
(967,221,c),
(1090,351,o),
(1183,519,o),
(1254,682,c)
);
},
{
closed = 1;
nodes = (
(597,1184,o),
(670,1284,o),
(820,1284,cs),
(904,1284,o),
(974,1237,o),
(974,1147,cs),
(974,977,o),
(745,918,o),
(616,871,c),
(604,927,o),
(597,984,o),
(597,1041,cs)
);
},
{
closed = 1;
nodes = (
(308,126,o),
(215,214,o),
(215,355,cs),
(215,532,o),
(349,605,o),
(494,665,c),
(549,507,o),
(629,352,o),
(733,221,c),
(649,159,o),
(553,126,o),
(448,126,cs)
);
}
);
width = 1366;
},
{
layerId = "D7EC7508-C152-41F5-B530-A2FB36F9EC58";
shapes = (
{
closed = 1;
nodes = (
(1107,732,l),
(1036,580,o),
(961,416,o),
(849,289,c),
(751,425,o),
(670,577,o),
(616,736,c),
(638,746,o),
(663,749,o),
(686,756,c),
(869,817,o),
(1124,925,o),
(1124,1153,cs),
(1124,1325,o),
(980,1417,o),
(821,1417,cs),
(590,1417,o),
(432,1270,o),
(432,1036,cs),
(432,957,o),
(442,881,o),
(458,804,c),
(235,717,o),
(28,624,o),
(28,350,cs),
(28,110,o),
(203,-20,o),
(432,-20,cs),
(585,-20,o),
(716,28,o),
(842,112,c),
(911,40,o),
(999,-12,o),
(1101,-12,cs),
(1142,-12,o),
(1184,-5,o),
(1222,10,c),
(1226,123,l),
(1190,112,o),
(1152,107,o),
(1114,107,cs),
(1047,107,o),
(973,144,o),
(926,191,c),
(1051,324,o),
(1147,520,o),
(1221,686,c)
);
},
{
closed = 1;
nodes = (
(567,1202,o),
(646,1312,o),
(816,1312,cs),
(913,1312,o),
(993,1252,o),
(993,1150,cs),
(993,966,o),
(724,903,o),
(586,852,c),
(575,914,o),
(567,978,o),
(567,1041,cs)
);
},
{
closed = 1;
nodes = (
(278,92,o),
(170,190,o),
(170,352,cs),
(170,554,o),
(330,626,o),
(494,690,c),
(552,521,o),
(649,338,o),
(762,200,c),
(664,129,o),
(560,92,o),
(438,92,cs)
);
}
);
width = 1328;
}
);
unicode = 38;
}
{
glyphname = quotesingle;
layers = (
{
layerId = "785665E2-8136-4865-9B7E-748FCB278F4B";
shapes = (
{
closed = 1;
nodes = (
(606,1409,l),
(275,1409,l),
(195,852,l),
(467,852,l)
);
}
);
width = 551;
},
{
layerId = "C6FD8471-1839-414E-9C91-DDB255379DAE";
shapes = (
{
closed = 1;
nodes = (
(548,1409,l),
(268,1409,l),
(193,891,l),
(421,891,l)
);
}
);
width = 487;
},
{
layerId = "341BCE00-9002-445C-A6C9-0431889C03AA";
shapes = (
{
closed = 1;
nodes = (
(461,1409,l),
(255,1409,l),
(190,949,l),
(350,949,l)
);
}
);
width = 391;
},
{
layerId = "42616347-C5BD-494A-B849-B08086064D93";
shapes = (
{
closed = 1;
nodes = (
(418,1409,l),
(263,1409,l),
(203,988,l),
(319,988,l)
);
}
);
width = 359;
}
);
unicode = 39;
}
{
glyphname = parenleft;
layers = (
{
layerId = "31C81AF0-C452-43E7-8668-722D0E517E96";
shapes = (
{
closed = 1;
nodes = (
(534,1484,l),
(377,1338,o),
(259,1166,o),
(179,965,cs),
(99,765,o),
(59,546,o),
(59,308,cs),
(59,38,o),
(94,-207,o),
(163,-426,c),
(506,-426,l),
(435,-218,o),
(399,22,o),
(399,292,cs),
(399,757,o),
(562,1155,o),
(887,1484,c)
);
}
);
width = 682;
},
{
layerId = "42D11CF2-4BFF-4A3C-B658-4C314917569F";
shapes = (
{
closed = 1;
nodes = (
(584,1484,l),
(416,1338,o),
(289,1165,o),
(202,962,cs),
(115,761,o),
(72,539,o),
(72,298,cs),
(72,27,o),
(119,-214,o),
(213,-425,c),
(499,-425,l),
(405,-221,o),
(357,15,o),
(357,282,cs),
(357,750,o),
(531,1152,o),
(876,1484,c)
);
}
);
width = 682;
},
{
layerId = "D06BE3A0-2FE9-4743-9DA4-DC1042F849F0";
shapes = (
{
closed = 1;
nodes = (
(660,1484,l),
(474,1337,o),
(333,1162,o),
(236,958,cs),
(139,754,o),
(90,529,o),
(90,282,cs),
(90,12,o),
(157,-224,o),
(289,-425,c),
(487,-425,l),
(359,-225,o),
(295,6,o),
(295,266,cs),
(295,740,o),
(483,1146,o),
(860,1484,c)
);
}
);
width = 682;
},
{
layerId = "8B25E0A0-F27A-4A76-9983-E40B0C67E833";
shapes = (
{
closed = 1;
nodes = (
(710,1484,l),
(513,1337,o),
(363,1161,o),
(259,955,cs),
(155,750,o),
(103,522,o),
(103,272,cs),
(103,1,o),
(182,-231,o),
(339,-424,c),
(480,-424,l),
(329,-228,o),
(253,-1,o),
(253,256,cs),
(253,733,o),
(452,1143,o),
(849,1484,c)
);
}
);
width = 682;
}
);
unicode = 40;
}
{
glyphname = parenright;
layers = (
{
layerId = "4BF4B489-BD31-44B3-B107-FC4282D889AB";
shapes = (
{
closed = 1;
nodes = (
(185,-426,l),
(340,-278,o),
(458,-99,o),
(540,110,cs),
(622,319,o),
(664,549,o),
(664,800,cs),
(664,1032,o),
(622,1260,o),
(538,1484,c),
(212,1484,l),
(242,1391,o),
(268,1282,o),
(290,1157,cs),
(311,1033,o),
(322,919,o),
(322,816,cs),
(322,332,o),
(159,-82,o),
(-167,-426,c)
);
}
);
width = 682;
},
{
layerId = "86356D96-A9F7-466C-8338-FA4F598E1FDA";
shapes = (
{
closed = 1;
nodes = (
(113,-425,l),
(280,-278,o),
(407,-100,o),
(495,108,cs),
(584,315,o),
(629,544,o),
(629,794,cs),
(629,1039,o),
(576,1269,o),
(472,1484,c),
(198,1484,l),
(242,1389,o),
(277,1281,o),
(303,1159,cs),
(328,1039,o),
(341,922,o),
(341,810,cs),
(341,329,o),
(168,-83,o),
(-178,-425,c)
);
}
);
width = 682;
},
{
layerId = "55E58B27-7540-477B-A952-538A3E316EF2";
shapes = (
{
closed = 1;
nodes = (
(5,-425,l),
(190,-277,o),
(332,-101,o),
(429,104,cs),
(526,309,o),
(575,536,o),
(575,784,cs),
(575,1051,o),
(508,1284,o),
(374,1484,c),
(178,1484,l),
(241,1386,o),
(289,1279,o),
(322,1163,cs),
(355,1047,o),
(371,926,o),
(371,800,cs),
(371,324,o),
(183,-84,o),
(-194,-425,c)
);
}
);
width = 682;
},
{
layerId = "79976DCB-F9F8-4AE0-A082-2E792CAF2855";
shapes = (
{
closed = 1;
nodes = (
(-67,-424,l),
(130,-277,o),
(281,-102,o),
(384,102,cs),
(488,305,o),
(540,531,o),
(540,778,cs),
(540,1058,o),
(462,1293,o),
(308,1484,c),
(164,1484,l),
(241,1384,o),
(298,1278,o),
(335,1165,cs),
(372,1053,o),
(390,929,o),
(390,794,cs),
(390,321,o),
(192,-85,o),
(-205,-424,c)
);
}
);
width = 682;
}
);
unicode = 41;
}
{
glyphname = asterisk;
layers = (
{
layerId = "2D57F921-1619-4848-A780-0286F5C5F7A5";
shapes = (
{
closed = 1;
nodes = (
(852,772,l),
(665,960,l),
(894,1013,l),
(810,1254,l),
(595,1149,l),
(616,1409,l),
(348,1409,l),
(370,1150,l),
(150,1252,l),
(67,1013,l),
(296,960,l),
(106,774,l),
(337,617,l),
(481,866,l),
(624,618,l)
);
}
);
width = 797;
},
{
layerId = "7F330584-10E9-4267-8E26-4D2DDDC504D5";
shapes = (
{
closed = 1;
nodes = (
(819,769,l),
(632,978,l),
(880,1038,l),
(809,1241,l),
(577,1137,l),
(595,1409,l),
(373,1409,l),
(391,1137,l),
(155,1241,l),
(85,1038,l),
(331,978,l),
(142,771,l),
(335,643,l),
(483,894,l),
(628,643,l)
);
}
);
width = 797;
},
{
layerId = "70541219-6074-4DB1-927E-09A6A4A4AC13";
shapes = (
{
closed = 1;
nodes = (
(769,763,l),
(584,1004,l),
(858,1074,l),
(807,1223,l),
(551,1119,l),
(565,1409,l),
(409,1409,l),
(423,1117,l),
(163,1223,l),
(113,1074,l),
(385,1004,l),
(196,765,l),
(331,681,l),
(485,936,l),
(634,679,l)
);
}
);
width = 797;
},
{
layerId = "D7EC7508-C152-41F5-B530-A2FB36F9EC58";
shapes = (
{
closed = 1;
nodes = (
(736,760,l),
(551,1022,l),
(844,1099,l),
(806,1210,l),
(533,1107,l),
(544,1409,l),
(434,1409,l),
(444,1104,l),
(168,1212,l),
(131,1099,l),
(420,1022,l),
(232,762,l),
(329,707,l),
(487,964,l),
(638,704,l)
);
}
);
width = 797;
}
);
unicode = 42;
}
{
glyphname = plus;
layers = (
{
layerId = "31C81AF0-C452-43E7-8668-722D0E517E96";
shapes = (
{
closed = 1;
nodes = (
(783,543,l),
(1170,543,l),
(1170,819,l),
(783,819,l),
(783,1214,l),
(504,1214,l),
(504,819,l),
(122,819,l),
(122,543,l),
(504,543,l),
(504,148,l),
(783,148,l)
);
}
);
width = 1196;
},
{
layerId = "42D11CF2-4BFF-4A3C-B658-4C314917569F";
shapes = (
{
closed = 1;
nodes = (
(755,565,l),
(1155,565,l),
(1155,797,l),
(755,797,l),
(755,1203,l),
(521,1203,l),
(521,797,l),
(125,797,l),
(125,565,l),
(521,565,l),
(521,159,l),
(755,159,l)
);
}
);
width = 1196;
},
{
layerId = "D06BE3A0-2FE9-4743-9DA4-DC1042F849F0";
shapes = (
{
closed = 1;
nodes = (
(713,599,l),
(1131,599,l),
(1131,763,l),
(713,763,l),
(713,1187,l),
(547,1187,l),
(547,763,l),
(129,763,l),
(129,599,l),
(547,599,l),
(547,175,l),
(713,175,l)
);
}
);
width = 1196;
},
{
layerId = "8B25E0A0-F27A-4A76-9983-E40B0C67E833";
shapes = (
{
closed = 1;
nodes = (
(685,621,l),
(1116,621,l),
(1116,741,l),
(685,741,l),
(685,1176,l),
(564,1176,l),
(564,741,l),
(132,741,l),
(132,621,l),
(564,621,l),
(564,186,l),
(685,186,l)
);
}
);
width = 1196;
}
);
unicode = 43;
}
{
glyphname = comma;
layers = (
{
layerId = "826E86D0-E588-4774-9A02-039E3F74D6B5";
shapes = (
{
closed = 1;
nodes = (
(436,363,l),
(84,363,l),
(14,0,l),
(170,0,l),
(161,-54,o),
(135,-112,o),
(94,-175,cs),
(52,-238,o),
(2,-297,o),
(-58,-354,c),
(168,-354,l),
(225,-295,o),
(270,-232,o),
(303,-163,cs),
(336,-95,o),
(362,-15,o),
(379,76,cs)
);
}
);
width = 569;
},
{
layerId = "CCC0E55B-A8B0-4BE5-BCFE-654143F4C169";
shapes = (
{
closed = 1;
nodes = (
(400,314,l),
(102,314,l),
(41,0,l),
(174,0,l),
(165,-50,o),
(142,-102,o),
(107,-159,cs),
(71,-215,o),
(28,-270,o),
(-25,-323,c),
(165,-323,l),
(215,-268,o),
(255,-211,o),
(284,-148,cs),
(313,-86,o),
(336,-14,o),
(352,67,cs)
);
}
);
width = 569;
},
{
layerId = "BA5C3EFA-52F0-4978-BF26-13A2AC8190BC";
shapes = (
{
closed = 1;
nodes = (
(346,240,l),
(128,240,l),
(83,0,l),
(180,0,l),
(172,-43,o),
(154,-88,o),
(128,-135,cs),
(101,-182,o),
(66,-228,o),
(23,-275,c),
(161,-275,l),
(201,-228,o),
(232,-178,o),
(256,-125,cs),
(280,-73,o),
(298,-13,o),
(310,55,cs)
);
}
);
width = 569;
},
{
layerId = "344EAA8B-658C-4164-B741-D5EC6A8B0AA2";
shapes = (
{
closed = 1;
nodes = (
(310,191,l),
(146,191,l),
(110,0,l),
(184,0,l),
(176,-39,o),
(161,-78,o),
(141,-119,c),
(120,-159,o),
(92,-201,o),
(56,-244,c),
(158,-244,l),
(191,-201,o),
(217,-157,o),
(237,-110,cs),
(257,-64,o),
(272,-12,o),
(283,46,c)
);
}
);
width = 569;
}
);
unicode = 44;
}
{
glyphname = hyphen;
layers = (
{
layerId = "826E86D0-E588-4774-9A02-039E3F74D6B5";
shapes = (
{
closed = 1;
nodes = (
(614,672,l),
(81,672,l),
(23,372,l),
(557,372,l)
);
}
);
width = 682;
},
{
layerId = "CCC0E55B-A8B0-4BE5-BCFE-654143F4C169";
shapes = (
{
closed = 1;
nodes = (
(621,655,l),
(100,655,l),
(51,403,l),
(574,403,l)
);
}
);
width = 682;
},
{
layerId = "BA5C3EFA-52F0-4978-BF26-13A2AC8190BC";
shapes = (
{
closed = 1;
nodes = (
(633,631,l),
(128,631,l),
(93,451,l),
(598,451,l)
);
}
);
width = 682;
},
{
layerId = "344EAA8B-658C-4164-B741-D5EC6A8B0AA2";
shapes = (
{
closed = 1;
nodes = (
(640,614,l),
(147,614,l),
(121,482,l),
(615,482,l)
);
}
);
width = 682;
}
);
unicode = 45;
}
{
glyphname = period;
layers = (
{
layerId = "785665E2-8136-4865-9B7E-748FCB278F4B";
shapes = (
{
closed = 1;
nodes = (
(445,363,l),
(93,363,l),
(23,0,l),
(375,0,l)
);
}
);
width = 569;
},
{
layerId = "C6FD8471-1839-414E-9C91-DDB255379DAE";
shapes = (
{
closed = 1;
nodes = (
(402,314,l),
(103,314,l),
(42,0,l),
(341,0,l)
);
}
);
width = 569;
},
{
layerId = "341BCE00-9002-445C-A6C9-0431889C03AA";
shapes = (
{
closed = 1;
nodes = (
(336,240,l),
(119,240,l),
(72,0,l),
(289,0,l)
);
}
);
width = 569;
},
{
layerId = "42616347-C5BD-494A-B849-B08086064D93";
shapes = (
{
closed = 1;
nodes = (
(293,191,l),
(129,191,l),
(91,0,l),
(255,0,l)
);
}
);
width = 569;
}
);
unicode = 46;
}
{
glyphname = slash;
layers = (
{
layerId = "2D57F921-1619-4848-A780-0286F5C5F7A5";
shapes = (
{
closed = 1;
nodes = (
(752,1484,l),
(460,1484,l),
(-49,-55,l),
(247,-55,l)
);
}
);
width = 569;
},
{
layerId = "7F330584-10E9-4267-8E26-4D2DDDC504D5";
shapes = (
{
closed = 1;
nodes = (
(750,1484,l),
(503,1484,l),
(-72,-43,l),
(178,-43,l)
);
}
);
width = 569;
},
{
layerId = "70541219-6074-4DB1-927E-09A6A4A4AC13";
shapes = (
{
closed = 1;
nodes = (
(746,1484,l),
(569,1484,l),
(-106,-25,l),
(74,-25,l)
);
}
);
width = 569;
},
{
layerId = "D7EC7508-C152-41F5-B530-A2FB36F9EC58";
shapes = (
{
closed = 1;
nodes = (
(744,1484,l),
(612,1484,l),
(-129,-13,l),
(5,-13,l)
);
}
);
width = 569;
}
);
unicode = 47;
}
{
glyphname = zero;
layers = (
{
layerId = "31C81AF0-C452-43E7-8668-722D0E517E96";
shapes = (
{
closed = 1;
nodes = (
(247,1430,o),
(81,834,o),
(81,446,cs),
(81,160,o),
(165,-20,o),
(479,-20,cs),
(930,-20,o),
(1118,585,o),
(1118,964,cs),
(1118,1242,o),
(1026,1430,o),
(720,1430,cs)
);
},
{
closed = 1;
nodes = (
(439,252,o),
(411,363,o),
(412,508,cs),
(414,776,o),
(517,1159,o),
(677,1159,cs),
(771,1159,o),
(788,1051,o),
(788,981,cs),
(788,847,o),
(713,252,o),
(502,252,cs)
);
}
);
width = 1139;
},
{
layerId = "42D11CF2-4BFF-4A3C-B658-4C314917569F";
shapes = (
{
closed = 1;
nodes = (
(245,1430,o),
(84,844,o),
(84,453,cs),
(84,180,o),
(174,-20,o),
(478,-20,cs),
(943,-20,o),
(1119,579,o),
(1119,964,cs),
(1119,1233,o),
(1021,1430,o),
(724,1430,cs)
);
},
{
closed = 1;
nodes = (
(385,209,o),
(367,323,o),
(367,413,cs),
(367,611,o),
(410,1202,o),
(692,1202,cs),
(816,1202,o),
(836,1076,o),
(836,978,cs),
(836,795,o),
(765,209,o),
(498,209,cs)
);
}
);
width = 1139;
},
{
layerId = "D06BE3A0-2FE9-4743-9DA4-DC1042F849F0";
shapes = (
{
closed = 1;
nodes = (
(242,1430,o),
(88,859,o),
(88,463,cs),
(88,210,o),
(187,-20,o),
(476,-20,cs),
(962,-20,o),
(1121,570,o),
(1121,964,cs),
(1121,1219,o),
(1013,1430,o),
(730,1430,cs)
);
},
{
closed = 1;
nodes = (
(326,145,o),
(287,296,o),
(287,433,cs),
(287,686,o),
(372,1266,o),
(714,1266,cs),
(883,1266,o),
(922,1114,o),
(922,974,cs),
(922,717,o),
(843,145,o),
(492,145,cs)
);
}
);
width = 1139;
},
{
layerId = "8B25E0A0-F27A-4A76-9983-E40B0C67E833";
shapes = (
{
closed = 1;
nodes = (
(241,1430,o),
(90,872,o),
(90,469,cs),
(90,228,o),
(199,-20,o),
(475,-20,cs),
(990,-20,o),
(1123,550,o),
(1123,964,cs),
(1123,1209,o),
(1007,1430,o),
(735,1430,cs)
);
},
{
closed = 1;
nodes = (
(288,103,o),
(233,276,o),
(233,446,cs),
(233,773,o),
(311,1308,o),
(729,1308,cs),
(926,1308,o),
(980,1139,o),
(980,972,cs),
(980,663,o),
(895,103,o),
(489,103,cs)
);
}
);
width = 1139;
}
);
unicode = 48;
}
{
glyphname = one;
layers = (
{
layerId = "4BF4B489-BD31-44B3-B107-FC4282D889AB";
shapes = (
{
closed = 1;
nodes = (
(1071,283,l),
(762,283,l),
(982,1409,l),
(643,1409,l),
(234,1180,l),
(179,896,l),
(573,1104,l),
(414,283,l),
(71,283,l),
(20,0,l),
(1018,0,l)
);
}
);
width = 1139;
},
{
layerId = "86356D96-A9F7-466C-8338-FA4F598E1FDA";
shapes = (
{
closed = 1;
nodes = (
(1035,238,l),
(715,238,l),
(943,1409,l),
(663,1409,l),
(265,1180,l),
(217,931,l),
(599,1145,l),
(424,238,l),
(75,238,l),
(31,0,l),
(990,0,l)
);
}
);
width = 1139;
},
{
layerId = "55E58B27-7540-477B-A952-538A3E316EF2";
shapes = (
{
closed = 1;
nodes = (
(981,172,l),
(643,172,l),
(883,1409,l),
(693,1409,l),
(311,1180,l),
(273,985,l),
(639,1205,l),
(438,172,l),
(81,172,l),
(49,0,l),
(948,0,l)
);
}
);
width = 1139;
},
{
layerId = "79976DCB-F9F8-4AE0-A082-2E792CAF2855";
shapes = (
{
closed = 1;
nodes = (
(945,127,l),
(596,127,l),
(844,1409,l),
(713,1409,l),
(342,1180,l),
(311,1020,l),
(665,1246,l),
(448,127,l),
(85,127,l),
(60,0,l),
(920,0,l)
);
}
);
width = 1139;
}
);
unicode = 49;
}
{
glyphname = two;
layers = (
{
layerId = "785665E2-8136-4865-9B7E-748FCB278F4B";
shapes = (
{
closed = 1;
nodes = (
(1029,283,l),
(424,283,l),
(453,325,o),
(490,366,o),
(537,408,cs),
(584,450,o),
(648,500,o),
(730,559,cs),
(808,614,o),
(871,662,o),
(918,702,cs),
(965,743,o),
(1001,779,o),
(1026,813,cs),
(1051,846,o),
(1072,881,o),
(1088,917,cs),
(1112,970,o),
(1124,1026,o),
(1124,1086,cs),
(1124,1168,o),
(1108,1234,o),
(1076,1284,cs),
(1044,1334,o),
(995,1371,o),
(929,1395,cs),
(863,1418,o),
(780,1430,o),
(678,1430,cs),
(539,1430,o),
(426,1403,o),
(339,1348,cs),
(252,1293,o),
(191,1204,o),
(156,1081,c),
(486,1007,l),
(500,1061,o),
(518,1099,o),
(542,1121,cs),
(566,1144,o),
(603,1155,o),
(652,1155,cs),
(695,1155,o),
(725,1149,o),
(742,1135,cs),
(759,1122,o),
(768,1098,o),
(768,1063,cs),
(768,1028,o),
(758,993,o),
(737,957,cs),
(716,922,o),
(686,886,o),
(647,848,c),
(638,841,o),
(619,826,o),
(591,802,cs),
(563,778,o),
(523,747,o),
(472,709,c),
(360,629,o),
(276,566,o),
(218,519,cs),
(161,473,o),
(119,434,o),
(91,402,cs),
(64,370,o),
(37,336,o),
(11,301,c),
(9,289,o),
(7,277,o),
(6,266,c),
(6,255,o),
(4,247,o),
(0,241,c),
(-45,0,l),
(975,0,l)
);
}
);
width = 1139;
},
{
layerId = "C6FD8471-1839-414E-9C91-DDB255379DAE";
shapes = (
{
closed = 1;
nodes = (
(1002,238,l),
(355,238,l),
(384,283,o),
(424,326,o),
(476,371,cs),
(527,416,o),
(597,469,o),
(684,529,cs),
(767,585,o),
(834,634,o),
(886,675,c),
(937,718,o),
(977,756,o),
(1006,792,cs),
(1035,827,o),
(1059,864,o),
(1078,903,cs),
(1105,960,o),
(1119,1020,o),
(1119,1083,cs),
(1119,1161,o),
(1103,1225,o),
(1070,1276,cs),
(1037,1327,o),
(988,1366,o),
(924,1392,cs),
(860,1417,o),
(781,1430,o),
(685,1430,cs),
(551,1430,o),
(442,1402,o),
(356,1345,cs),
(271,1289,o),
(210,1201,o),
(175,1081,c),
(450,1020,l),
(468,1082,o),
(493,1128,o),
(527,1156,cs),
(561,1185,o),
(608,1198,o),
(665,1198,cs),
(717,1198,o),
(756,1188,o),
(781,1164,c),
(807,1142,o),
(820,1108,o),
(820,1063,cs),
(820,1023,o),
(810,984,o),
(790,946,cs),
(770,910,o),
(742,873,o),
(706,837,cs),
(689,820,o),
(664,800,o),
(632,774,cs),
(599,747,o),
(557,717,o),
(507,682,cs),
(423,622,o),
(357,574,o),
(307,535,cs),
(258,498,o),
(219,465,o),
(189,436,cs),
(160,407,o),
(130,376,o),
(102,344,cs),
(84,322,o),
(66,299,o),
(50,275,cs),
(35,251,o),
(19,227,o),
(4,202,c),
(-34,0,l),
(956,0,l)
);
}
);
width = 1139;
},
{
layerId = "341BCE00-9002-445C-A6C9-0431889C03AA";
shapes = (
{
closed = 1;
nodes = (
(960,172,l),
(251,172,l),
(282,219,o),
(326,267,o),
(384,317,cs),
(443,366,o),
(519,421,o),
(616,483,cs),
(705,540,o),
(780,591,o),
(837,635,cs),
(895,679,o),
(942,720,o),
(977,760,cs),
(1012,799,o),
(1041,840,o),
(1062,881,cs),
(1095,945,o),
(1111,1010,o),
(1111,1079,cs),
(1111,1150,o),
(1094,1212,o),
(1060,1265,cs),
(1026,1318,o),
(978,1358,o),
(916,1387,cs),
(854,1416,o),
(781,1430,o),
(697,1430,cs),
(570,1430,o),
(465,1401,o),
(382,1342,cs),
(298,1282,o),
(239,1195,o),
(203,1081,c),
(396,1038,l),
(419,1115,o),
(455,1170,o),
(505,1207,cs),
(555,1245,o),
(614,1264,o),
(683,1264,cs),
(750,1264,o),
(803,1245,o),
(841,1209,cs),
(879,1173,o),
(898,1124,o),
(898,1063,cs),
(898,1014,o),
(889,971,o),
(871,931,cs),
(852,891,o),
(827,855,o),
(794,819,cs),
(766,790,o),
(732,760,o),
(692,731,cs),
(653,702,o),
(609,672,o),
(561,640,cs),
(517,612,o),
(477,585,o),
(440,560,cs),
(404,535,o),
(369,510,o),
(336,486,cs),
(303,462,o),
(271,436,o),
(238,408,cs),
(196,372,o),
(156,332,o),
(116,289,cs),
(77,246,o),
(43,198,o),
(10,144,c),
(-16,0,l),
(928,0,l)
);
}
);
width = 1139;
},
{
layerId = "42616347-C5BD-494A-B849-B08086064D93";
shapes = (
{
closed = 1;
nodes = (
(933,127,l),
(182,127,l),
(213,177,o),
(260,227,o),
(323,280,cs),
(386,332,o),
(468,390,o),
(570,453,cs),
(664,511,o),
(743,563,o),
(805,608,cs),
(867,654,o),
(918,697,o),
(957,739,cs),
(996,780,o),
(1028,823,o),
(1052,867,cs),
(1088,935,o),
(1106,1004,o),
(1106,1076,cs),
(1106,1143,o),
(1089,1203,o),
(1054,1257,cs),
(1019,1311,o),
(971,1353,o),
(911,1384,cs),
(851,1415,o),
(782,1430,o),
(704,1430,cs),
(582,1430,o),
(481,1400,o),
(399,1339,cs),
(317,1278,o),
(258,1192,o),
(222,1081,c),
(360,1051,l),
(387,1136,o),
(430,1199,o),
(490,1242,cs),
(550,1286,o),
(619,1307,o),
(696,1307,cs),
(772,1307,o),
(834,1284,o),
(880,1238,cs),
(927,1193,o),
(950,1134,o),
(950,1063,cs),
(950,1009,o),
(941,962,o),
(924,920,c),
(906,879,o),
(883,842,o),
(853,808,cs),
(817,769,o),
(777,734,o),
(733,703,cs),
(689,671,o),
(643,642,o),
(596,613,c),
(580,605,o),
(558,593,o),
(529,576,cs),
(501,560,o),
(469,541,o),
(434,520,cs),
(399,499,o),
(364,476,o),
(329,451,c),
(271,405,o),
(215,354,o),
(160,298,cs),
(106,242,o),
(58,178,o),
(14,105,c),
(-5,0,l),
(909,0,l)
);
}
);
width = 1139;
}
);
unicode = 50;
}
{
glyphname = three;
layers = (
{
layerId = "F22D2CAB-3A7F-49A1-9202-DC9343798BDC";
shapes = (
{
closed = 1;
nodes = (
(458,852,l),
(405,577,l),
(500,577,ls),
(565,577,o),
(611,565,o),
(639,541,cs),
(667,516,o),
(681,478,o),
(681,424,cs),
(681,371,o),
(666,330,o),
(636,301,cs),
(607,272,o),
(565,258,o),
(513,258,cs),
(444,258,o),
(400,266,o),
(382,281,cs),
(363,297,o),
(354,329,o),
(356,378,c),
(-5,346,l),
(-3,171,o),
(84,59,o),
(253,9,c),
(323,-10,o),
(405,-20,o),
(501,-20,cs),
(603,-20,o),
(694,-1,o),
(774,37,cs),
(855,74,o),
(917,128,o),
(962,198,cs),
(1008,267,o),
(1031,343,o),
(1031,425,cs),
(1031,510,o),
(1008,578,o),
(962,630,cs),
(916,683,o),
(847,715,o),
(755,726,c),
(756,730,l),
(864,737,o),
(950,771,o),
(1015,834,cs),
(1080,897,o),
(1113,981,o),
(1113,1086,cs),
(1113,1195,o),
(1073,1279,o),
(995,1340,cs),
(916,1400,o),
(805,1430,o),
(663,1430,cs),
(517,1430,o),
(402,1401,o),
(318,1342,cs),
(234,1283,o),
(177,1196,o),
(146,1081,c),
(473,1004,l),
(486,1057,o),
(507,1095,o),
(534,1119,cs),
(562,1143,o),
(601,1155,o),
(651,1155,cs),
(695,1155,o),
(725,1144,o),
(741,1122,cs),
(757,1100,o),
(765,1070,o),
(765,1031,cs),
(765,975,o),
(744,932,o),
(703,900,cs),
(661,868,o),
(598,852,o),
(514,852,cs)
);
}
);
width = 1139;
},
{
layerId = "540001E1-6881-4DFA-ACAC-B89E119E0EAF";
shapes = (
{
closed = 1;
nodes = (
(461,833,l),
(416,598,l),
(521,598,ls),
(593,598,o),
(647,583,o),
(682,554,cs),
(718,523,o),
(736,478,o),
(736,417,cs),
(736,354,o),
(717,304,o),
(679,268,c),
(642,231,o),
(589,214,o),
(523,214,cs),
(449,214,o),
(396,227,o),
(364,253,cs),
(332,280,o),
(312,322,o),
(307,381,c),
(13,343,l),
(26,177,o),
(112,68,o),
(269,14,c),
(338,-8,o),
(417,-20,o),
(510,-20,cs),
(612,-20,o),
(702,-1,o),
(781,36,cs),
(860,73,o),
(921,125,o),
(964,193,cs),
(1008,261,o),
(1030,337,o),
(1030,419,cs),
(1030,503,o),
(1007,571,o),
(960,623,cs),
(913,676,o),
(844,708,o),
(754,721,c),
(755,725,l),
(866,735,o),
(953,771,o),
(1018,835,cs),
(1083,898,o),
(1116,982,o),
(1116,1086,cs),
(1116,1194,o),
(1077,1278,o),
(1001,1339,cs),
(925,1400,o),
(818,1430,o),
(682,1430,cs),
(543,1430,o),
(431,1401,o),
(345,1341,cs),
(261,1282,o),
(202,1195,o),
(168,1079,c),
(443,1019,l),
(459,1080,o),
(486,1124,o),
(523,1154,cs),
(561,1184,o),
(610,1198,o),
(670,1198,cs),
(722,1198,o),
(761,1185,o),
(785,1158,cs),
(809,1131,o),
(822,1095,o),
(822,1048,cs),
(822,979,o),
(797,927,o),
(750,889,cs),
(701,851,o),
(629,833,o),
(532,833,cs)
);
}
);
width = 1139;
},
{
layerId = "85C7CFC8-DA24-401F-A421-248411B25E5A";
shapes = (
{
closed = 1;
nodes = (
(467,803,l),
(434,630,l),
(553,630,ls),
(636,630,o),
(701,611,o),
(748,572,cs),
(794,533,o),
(818,479,o),
(818,407,cs),
(818,327,o),
(793,264,o),
(743,217,cs),
(694,171,o),
(625,148,o),
(537,148,cs),
(457,148,o),
(390,169,o),
(338,211,cs),
(284,253,o),
(250,312,o),
(233,385,c),
(41,339,l),
(70,187,o),
(154,81,o),
(293,22,cs),
(360,-6,o),
(436,-20,o),
(522,-20,cs),
(624,-20,o),
(714,-2,o),
(790,35,c),
(868,70,o),
(927,122,o),
(968,187,cs),
(1009,253,o),
(1030,327,o),
(1030,409,cs),
(1030,492,o),
(1005,559,o),
(957,611,cs),
(909,664,o),
(841,699,o),
(752,715,c),
(753,719,l),
(869,733,o),
(959,772,o),
(1023,836,cs),
(1088,901,o),
(1120,984,o),
(1120,1086,cs),
(1120,1193,o),
(1083,1277,o),
(1011,1339,c),
(937,1399,o),
(837,1430,o),
(710,1430,cs),
(582,1430,o),
(474,1400,o),
(386,1340,cs),
(300,1282,o),
(238,1194,o),
(201,1076,c),
(397,1043,l),
(418,1113,o),
(456,1168,o),
(508,1206,cs),
(561,1244,o),
(625,1264,o),
(700,1264,cs),
(764,1264,o),
(814,1247,o),
(851,1213,cs),
(888,1179,o),
(906,1133,o),
(906,1074,cs),
(906,986,o),
(878,919,o),
(820,873,cs),
(762,827,o),
(675,803,o),
(558,803,cs)
);
}
);
width = 1139;
},
{
layerId = "9CB70E7F-BC76-4DD2-ACFF-26AC98198772";
shapes = (
{
closed = 1;
nodes = (
(470,784,l),
(445,651,l),
(574,651,l),
(664,651,o),
(737,629,o),
(791,585,cs),
(845,540,o),
(873,479,o),
(873,400,cs),
(873,310,o),
(844,238,o),
(786,184,cs),
(729,130,o),
(649,104,o),
(547,104,cs),
(462,104,o),
(386,130,o),
(320,183,cs),
(253,236,o),
(208,305,o),
(184,388,c),
(59,336,l),
(99,193,o),
(182,90,o),
(309,27,cs),
(375,-4,o),
(448,-20,o),
(531,-20,cs),
(633,-20,o),
(722,-2,o),
(797,34,cs),
(873,69,o),
(931,119,o),
(970,182,cs),
(1009,247,o),
(1029,321,o),
(1029,403,cs),
(1029,485,o),
(1004,552,o),
(955,604,cs),
(906,657,o),
(838,692,o),
(751,710,c),
(752,714,l),
(871,731,o),
(962,772,o),
(1026,837,cs),
(1091,902,o),
(1123,985,o),
(1123,1086,cs),
(1123,1192,o),
(1087,1276,o),
(1017,1338,cs),
(946,1399,o),
(850,1430,o),
(729,1430,cs),
(608,1430,o),
(503,1400,o),
(413,1339,cs),
(327,1281,o),
(263,1193,o),
(223,1074,c),
(367,1058,l),
(391,1136,o),
(435,1197,o),
(497,1241,cs),
(560,1285,o),
(634,1307,o),
(719,1307,cs),
(791,1307,o),
(850,1288,o),
(895,1249,cs),
(940,1210,o),
(963,1158,o),
(963,1091,cs),
(963,990,o),
(931,914,o),
(867,862,cs),
(802,810,o),
(706,784,o),
(576,784,c)
);
}
);
width = 1139;
}
);
unicode = 51;
}
{
glyphname = four;
layers = (
{
layerId = "785665E2-8136-4865-9B7E-748FCB278F4B";
shapes = (
{
closed = 1;
nodes = (
(893,264,l),
(1081,264,l),
(1132,519,l),
(944,519,l),
(1118,1409,l),
(634,1409,l),
(-15,516,l),
(-65,264,l),
(566,264,l),
(517,0,l),
(844,0,l)
);
},
{
closed = 1;
nodes = (
(768,1202,o),
(755,1166,o),
(744,1131,cs),
(733,1096,o),
(724,1062,o),
(718,1029,cs),
(617,519,l),
(280,519,l),
(664,1045,ls),
(690,1081,o),
(713,1115,o),
(733,1148,cs),
(753,1180,o),
(769,1211,o),
(783,1239,c)
);
}
);
width = 1139;
},
{
layerId = "C6FD8471-1839-414E-9C91-DDB255379DAE";
shapes = (
{
closed = 1;
nodes = (
(877,283,l),
(1065,283,l),
(1108,499,l),
(920,499,l),
(1097,1409,l),
(711,1409,l),
(4,497,l),
(-38,283,l),
(600,283,l),
(547,0,l),
(823,0,l)
);
},
{
closed = 1;
nodes = (
(786,1178,o),
(776,1146,o),
(767,1114,cs),
(759,1083,o),
(751,1052,o),
(745,1022,cs),
(643,499,l),
(262,499,l),
(680,1038,ls),
(704,1069,o),
(726,1099,o),
(745,1128,cs),
(765,1157,o),
(782,1185,o),
(798,1211,c)
);
}
);
width = 1139;
},
{
layerId = "341BCE00-9002-445C-A6C9-0431889C03AA";
shapes = (
{
closed = 1;
nodes = (
(853,311,l),
(1041,311,l),
(1072,469,l),
(884,469,l),
(1067,1409,l),
(827,1409,l),
(32,467,l),
(2,311,l),
(652,311,l),
(591,0,l),
(793,0,l)
);
},
{
closed = 1;
nodes = (
(814,1143,o),
(808,1116,o),
(803,1090,cs),
(797,1063,o),
(792,1037,o),
(787,1010,cs),
(683,469,l),
(234,469,l),
(704,1026,ls),
(724,1051,o),
(744,1075,o),
(764,1099,cs),
(783,1122,o),
(802,1145,o),
(820,1169,c)
);
}
);
width = 1139;
},
{
layerId = "42616347-C5BD-494A-B849-B08086064D93";
shapes = (
{
closed = 1;
nodes = (
(837,330,l),
(1025,330,l),
(1048,449,l),
(860,449,l),
(1046,1409,l),
(904,1409,l),
(51,448,l),
(29,330,l),
(686,330,l),
(621,0,l),
(772,0,l)
);
},
{
closed = 1;
nodes = (
(832,1119,o),
(829,1096,o),
(826,1073,cs),
(823,1050,o),
(819,1027,o),
(814,1003,cs),
(709,449,l),
(216,449,l),
(720,1019,ls),
(738,1039,o),
(757,1059,o),
(776,1079,cs),
(795,1099,o),
(815,1119,o),
(835,1141,c)
);
}
);
width = 1139;
}
);
unicode = 52;
}
{
glyphname = five;
layers = (
{
layerId = "785665E2-8136-4865-9B7E-748FCB278F4B";
shapes = (
{
closed = 1;
nodes = (
(1052,340,o),
(1073,428,o),
(1073,526,cs),
(1073,657,o),
(1041,762,o),
(979,840,cs),
(916,918,o),
(833,957,o),
(730,957,cs),
(672,957,o),
(624,948,o),
(585,930,cs),
(545,912,o),
(514,891,o),
(489,867,c),
(558,1126,l),
(1123,1126,l),
(1176,1409,l),
(298,1409,l),
(89,593,l),
(429,593,l),
(463,649,o),
(513,677,o),
(577,677,cs),
(625,677,o),
(662,661,o),
(686,628,cs),
(710,596,o),
(722,548,o),
(722,486,cs),
(722,421,o),
(703,367,o),
(663,324,cs),
(624,281,o),
(572,259,o),
(507,259,cs),
(454,259,o),
(419,267,o),
(402,284,cs),
(384,301,o),
(372,336,o),
(366,389,c),
(3,342,l),
(14,224,o),
(61,134,o),
(142,73,cs),
(224,11,o),
(334,-20,o),
(473,-20,cs),
(594,-20,o),
(702,4,o),
(797,53,cs),
(892,102,o),
(963,172,o),
(1011,262,cs)
);
}
);
width = 1139;
},
{
layerId = "C6FD8471-1839-414E-9C91-DDB255379DAE";
shapes = (
{
closed = 1;
nodes = (
(1042,319,o),
(1066,413,o),
(1066,519,cs),
(1066,646,o),
(1032,748,o),
(965,824,cs),
(898,899,o),
(809,937,o),
(700,937,cs),
(643,937,o),
(593,929,o),
(551,911,c),
(508,894,o),
(474,872,o),
(446,847,c),
(531,1171,l),
(1120,1171,l),
(1165,1409,l),
(313,1409,l),
(110,613,l),
(394,613,l),
(443,673,o),
(508,703,o),
(587,703,cs),
(645,703,o),
(691,684,o),
(722,646,cs),
(754,608,o),
(769,555,o),
(769,486,cs),
(769,404,o),
(747,338,o),
(700,289,cs),
(654,239,o),
(590,214,o),
(510,214,cs),
(448,214,o),
(403,225,o),
(374,249,cs),
(344,273,o),
(323,315,o),
(312,376,c),
(18,331,l),
(35,216,o),
(84,128,o),
(163,70,cs),
(244,10,o),
(350,-20,o),
(484,-20,cs),
(600,-20,o),
(703,2,o),
(792,47,cs),
(882,92,o),
(949,156,o),
(996,239,cs)
);
}
);
width = 1139;
},
{
layerId = "341BCE00-9002-445C-A6C9-0431889C03AA";
shapes = (
{
closed = 1;
nodes = (
(1028,288,o),
(1054,390,o),
(1054,509,cs),
(1054,631,o),
(1017,728,o),
(944,799,cs),
(870,872,o),
(774,907,o),
(654,907,cs),
(598,907,o),
(547,899,o),
(501,883,cs),
(454,867,o),
(414,845,o),
(382,817,c),
(489,1237,l),
(1116,1237,l),
(1149,1409,l),
(337,1409,l),
(140,643,l),
(340,643,l),
(413,708,o),
(500,741,o),
(603,741,cs),
(676,741,o),
(734,718,o),
(777,672,cs),
(819,627,o),
(841,564,o),
(841,486,cs),
(841,378,o),
(812,295,o),
(755,235,cs),
(698,176,o),
(618,146,o),
(514,146,cs),
(440,146,o),
(378,163,o),
(331,197,cs),
(283,231,o),
(251,285,o),
(232,358,c),
(40,313,l),
(66,203,o),
(119,120,o),
(196,64,cs),
(273,8,o),
(375,-20,o),
(500,-20,cs),
(610,-20,o),
(705,-1,o),
(786,38,cs),
(866,77,o),
(929,132,o),
(974,203,cs)
);
}
);
width = 1139;
},
{
layerId = "42616347-C5BD-494A-B849-B08086064D93";
shapes = (
{
closed = 1;
nodes = (
(1018,267,o),
(1047,375,o),
(1047,502,cs),
(1047,620,o),
(1008,714,o),
(930,783,cs),
(852,853,o),
(750,887,o),
(624,887,cs),
(569,887,o),
(516,880,o),
(467,864,cs),
(417,849,o),
(374,826,o),
(339,797,c),
(462,1282,l),
(1113,1282,l),
(1138,1409,l),
(352,1409,l),
(161,663,l),
(305,663,l),
(393,732,o),
(495,767,o),
(613,767,cs),
(696,767,o),
(763,741,o),
(813,690,cs),
(863,639,o),
(888,571,o),
(888,486,cs),
(888,361,o),
(856,266,o),
(792,200,cs),
(728,134,o),
(636,101,o),
(517,101,cs),
(434,101,o),
(362,121,o),
(303,162,cs),
(243,203,o),
(202,264,o),
(178,345,c),
(55,302,l),
(87,195,o),
(142,114,o),
(217,61,cs),
(293,7,o),
(391,-20,o),
(511,-20,cs),
(616,-20,o),
(706,-3,o),
(781,32,cs),
(856,67,o),
(915,116,o),
(959,180,cs)
);
}
);
width = 1139;
}
);
unicode = 53;
}
{
glyphname = six;
layers = (
{
layerId = "785665E2-8136-4865-9B7E-748FCB278F4B";
shapes = (
{
closed = 1;
nodes = (
(641,-20,o),
(739,5,o),
(825,54,cs),
(911,103,o),
(978,170,o),
(1026,255,cs),
(1075,339,o),
(1099,432,o),
(1099,533,cs),
(1099,612,o),
(1086,679,o),
(1060,735,cs),
(1035,791,o),
(997,833,o),
(948,861,cs),
(898,890,o),
(838,904,o),
(767,904,cs),
(702,904,o),
(645,890,o),
(595,862,cs),
(546,834,o),
(505,799,o),
(472,759,c),
(493,899,o),
(524,1000,o),
(568,1063,cs),
(611,1126,o),
(660,1157,o),
(715,1157,cs),
(752,1157,o),
(778,1147,o),
(794,1128,cs),
(810,1109,o),
(820,1077,o),
(824,1032,c),
(1157,1076,l),
(1153,1190,o),
(1115,1277,o),
(1043,1338,cs),
(970,1399,o),
(868,1430,o),
(734,1430,cs),
(614,1430,o),
(503,1392,o),
(401,1316,cs),
(299,1240,o),
(221,1133,o),
(166,996,cs),
(110,859,o),
(82,695,o),
(82,502,cs),
(82,389,o),
(99,293,o),
(133,215,cs),
(167,137,o),
(217,79,o),
(284,39,cs),
(351,0,o),
(434,-20,o),
(532,-20,cs)
);
},
{
closed = 1;
nodes = (
(423,473,o),
(431,510,o),
(446,544,cs),
(461,578,o),
(483,604,o),
(511,623,cs),
(538,642,o),
(569,652,o),
(603,652,cs),
(646,652,o),
(680,638,o),
(706,610,cs),
(733,582,o),
(746,540,o),
(746,484,cs),
(746,434,o),
(739,392,o),
(726,357,cs),
(713,322,o),
(694,296,o),
(668,278,cs),
(642,259,o),
(610,250,o),
(571,250,cs),
(521,250,o),
(484,266,o),
(460,299,c),
(435,331,o),
(423,376,o),
(423,434,cs)
);
}
);
width = 1139;
},
{
layerId = "C6FD8471-1839-414E-9C91-DDB255379DAE";
shapes = (
{
closed = 1;
nodes = (
(638,-20,o),
(732,5,o),
(815,53,cs),
(899,102,o),
(964,169,o),
(1011,254,cs),
(1058,339,o),
(1081,432,o),
(1081,533,cs),
(1081,611,o),
(1067,677,o),
(1039,733,cs),
(1012,790,o),
(971,832,o),
(919,862,cs),
(867,892,o),
(804,906,o),
(732,906,cs),
(663,906,o),
(602,892,o),
(548,863,cs),
(495,833,o),
(451,794,o),
(415,748,c),
(441,900,o),
(481,1014,o),
(536,1089,cs),
(590,1163,o),
(654,1200,o),
(728,1200,cs),
(771,1200,o),
(804,1189,o),
(827,1166,c),
(851,1144,o),
(867,1108,o),
(875,1061,c),
(1151,1102,l),
(1140,1208,o),
(1100,1288,o),
(1031,1345,cs),
(961,1401,o),
(866,1430,o),
(743,1430,cs),
(621,1430,o),
(510,1391,o),
(410,1312,cs),
(310,1233,o),
(232,1121,o),
(177,977,cs),
(121,833,o),
(93,671,o),
(93,489,cs),
(93,382,o),
(110,290,o),
(144,214,cs),
(178,137,o),
(228,80,o),
(293,40,cs),
(359,0,o),
(439,-20,o),
(533,-20,cs)
);
},
{
closed = 1;
nodes = (
(377,480,o),
(387,526,o),
(408,566,cs),
(428,606,o),
(457,637,o),
(493,660,cs),
(529,682,o),
(569,693,o),
(612,693,cs),
(666,693,o),
(708,676,o),
(739,642,cs),
(770,609,o),
(785,560,o),
(785,497,cs),
(785,438,o),
(776,387,o),
(758,344,cs),
(740,300,o),
(714,267,o),
(680,243,cs),
(647,219,o),
(607,207,o),
(560,207,cs),
(501,207,o),
(456,227,o),
(425,268,c),
(392,308,o),
(377,361,o),
(377,429,cs)
);
}
);
width = 1139;
},
{
layerId = "341BCE00-9002-445C-A6C9-0431889C03AA";
shapes = (
{
closed = 1;
nodes = (
(632,-20,o),
(721,4,o),
(801,53,cs),
(880,100,o),
(942,167,o),
(987,254,cs),
(1032,338,o),
(1055,432,o),
(1055,533,cs),
(1055,608,o),
(1039,674,o),
(1007,731,cs),
(976,787,o),
(932,832,o),
(877,862,cs),
(820,894,o),
(754,910,o),
(678,910,cs),
(604,910,o),
(538,894,o),
(478,863,cs),
(419,833,o),
(370,788,o),
(331,730,c),
(364,903,o),
(415,1035,o),
(488,1127,cs),
(560,1220,o),
(646,1266,o),
(748,1266,cs),
(799,1266,o),
(842,1251,o),
(877,1224,cs),
(912,1196,o),
(936,1156,o),
(951,1103,c),
(1141,1140,l),
(1121,1234,o),
(1078,1306,o),
(1013,1355,cs),
(947,1405,o),
(862,1430,o),
(757,1430,cs),
(632,1430,o),
(521,1388,o),
(423,1305,cs),
(325,1222,o),
(250,1103,o),
(195,949,cs),
(139,795,o),
(111,636,o),
(111,469,cs),
(111,371,o),
(128,285,o),
(162,211,cs),
(196,138,o),
(244,81,o),
(308,40,cs),
(371,0,o),
(447,-20,o),
(533,-20,cs)
);
},
{
closed = 1;
nodes = (
(307,492,o),
(322,550,o),
(350,600,cs),
(379,649,o),
(417,687,o),
(467,714,cs),
(515,741,o),
(568,755,o),
(626,755,cs),
(696,755,o),
(750,734,o),
(787,691,cs),
(826,648,o),
(845,590,o),
(845,517,cs),
(845,444,o),
(831,380,o),
(805,323,cs),
(779,267,o),
(744,223,o),
(699,192,cs),
(653,159,o),
(601,143,o),
(542,143,cs),
(470,143,o),
(413,169,o),
(371,221,cs),
(329,272,o),
(307,340,o),
(307,423,cs)
);
}
);
width = 1139;
},
{
layerId = "42616347-C5BD-494A-B849-B08086064D93";
shapes = (
{
closed = 1;
nodes = (
(629,-20,o),
(714,4,o),
(791,52,cs),
(868,99,o),
(928,166,o),
(972,253,cs),
(1015,338,o),
(1037,432,o),
(1037,533,cs),
(1037,607,o),
(1020,672,o),
(986,729,cs),
(953,786,o),
(906,831,o),
(848,863,cs),
(789,896,o),
(720,912,o),
(643,912,cs),
(565,912,o),
(495,896,o),
(431,864,cs),
(368,832,o),
(316,783,o),
(274,719,c),
(312,904,o),
(372,1049,o),
(456,1153,cs),
(539,1257,o),
(640,1309,o),
(761,1309,cs),
(818,1309,o),
(868,1293,o),
(910,1262,cs),
(953,1231,o),
(983,1187,o),
(1002,1132,c),
(1135,1166,l),
(1108,1252,o),
(1063,1317,o),
(1001,1362,cs),
(938,1407,o),
(860,1430,o),
(766,1430,cs),
(639,1430,o),
(528,1387,o),
(432,1301,cs),
(336,1215,o),
(261,1091,o),
(206,930,cs),
(150,769,o),
(122,612,o),
(122,456,cs),
(122,364,o),
(139,282,o),
(173,210,cs),
(207,138,o),
(255,82,o),
(317,41,cs),
(379,0,o),
(452,-20,o),
(534,-20,cs)
);
},
{
closed = 1;
nodes = (
(261,499,o),
(278,566,o),
(312,622,cs),
(346,677,o),
(391,720,o),
(449,751,cs),
(506,781,o),
(568,796,o),
(635,796,cs),
(716,796,o),
(778,772,o),
(820,723,cs),
(863,675,o),
(884,610,o),
(884,530,cs),
(884,448,o),
(868,375,o),
(837,310,cs),
(806,245,o),
(764,194,o),
(711,157,cs),
(658,119,o),
(598,100,o),
(531,100,cs),
(450,100,o),
(385,130,o),
(336,190,cs),
(286,249,o),
(261,325,o),
(261,418,cs)
);
}
);
width = 1139;
}
);
unicode = 54;
}
{
glyphname = seven;
layers = (
{
layerId = "F22D2CAB-3A7F-49A1-9202-DC9343798BDC";
shapes = (
{
closed = 1;
nodes = (
(497,0,l),
(522,122,o),
(558,236,o),
(602,343,cs),
(647,450,o),
(713,566,o),
(801,691,c),
(825,723,o),
(851,757,o),
(880,793,cs),
(908,829,o),
(939,867,o),
(972,906,c),
(993,929,o),
(1016,954,o),
(1039,980,cs),
(1062,1005,o),
(1086,1032,o),
(1111,1060,cs),
(1137,1090,o),
(1155,1111,o),
(1166,1123,cs),
(1177,1134,o),
(1180,1138,o),
(1176,1134,c),
(1230,1409,l),
(152,1409,l),
(97,1126,l),
(831,1126,l),
(822,1119,o),
(806,1104,o),
(782,1082,c),
(757,1061,o),
(728,1034,o),
(695,1003,cs),
(661,971,o),
(626,937,o),
(590,901,cs),
(554,864,o),
(519,827,o),
(486,790,c),
(400,676,o),
(326,555,o),
(263,427,cs),
(201,299,o),
(155,157,o),
(125,0,c)
);
}
);
width = 1139;
},
{
layerId = "540001E1-6881-4DFA-ACAC-B89E119E0EAF";
shapes = (
{
closed = 1;
nodes = (
(476,0,l),
(498,109,o),
(529,212,o),
(567,309,cs),
(606,406,o),
(660,508,o),
(730,614,c),
(751,648,o),
(775,682,o),
(801,718,cs),
(826,753,o),
(854,790,o),
(883,828,c),
(905,855,o),
(928,883,o),
(952,913,cs),
(976,941,o),
(1001,971,o),
(1027,1002,cs),
(1054,1035,o),
(1080,1065,o),
(1104,1094,cs),
(1129,1123,o),
(1152,1151,o),
(1175,1178,c),
(1220,1409,l),
(182,1409,l),
(136,1171,l),
(884,1171,l),
(846,1129,o),
(808,1087,o),
(770,1045,cs),
(731,1003,o),
(693,960,o),
(656,918,cs),
(618,874,o),
(581,830,o),
(546,787,cs),
(512,743,o),
(478,698,o),
(447,652,cs),
(381,557,o),
(324,455,o),
(275,349,cs),
(227,243,o),
(191,126,o),
(167,0,c)
);
}
);
width = 1139;
},
{
layerId = "85C7CFC8-DA24-401F-A421-248411B25E5A";
shapes = (
{
closed = 1;
nodes = (
(444,0,l),
(462,91,o),
(486,177,o),
(514,259,cs),
(543,341,o),
(579,421,o),
(622,500,cs),
(641,534,o),
(660,569,o),
(682,604,c),
(703,640,o),
(726,675,o),
(751,710,c),
(773,743,o),
(797,777,o),
(822,811,cs),
(847,845,o),
(873,880,o),
(901,916,c),
(930,951,o),
(966,997,o),
(1012,1052,cs),
(1057,1105,o),
(1111,1170,o),
(1175,1244,c),
(1206,1409,l),
(228,1409,l),
(196,1237,l),
(964,1237,l),
(882,1145,o),
(811,1061,o),
(752,988,cs),
(692,916,o),
(640,850,o),
(596,789,cs),
(552,729,o),
(514,671,o),
(481,616,cs),
(448,560,o),
(417,504,o),
(389,446,c),
(352,377,o),
(320,306,o),
(293,232,cs),
(267,158,o),
(245,81,o),
(229,0,c)
);
}
);
width = 1139;
},
{
layerId = "9CB70E7F-BC76-4DD2-ACFF-26AC98198772";
shapes = (
{
closed = 1;
nodes = (
(423,0,l),
(438,78,o),
(457,153,o),
(479,225,cs),
(502,297,o),
(526,363,o),
(551,423,cs),
(567,459,o),
(584,494,o),
(603,529,cs),
(621,564,o),
(641,598,o),
(662,632,cs),
(685,669,o),
(709,706,o),
(735,744,cs),
(761,781,o),
(788,819,o),
(817,858,c),
(847,896,o),
(891,951,o),
(950,1023,cs),
(1009,1094,o),
(1083,1183,o),
(1174,1288,c),
(1196,1409,l),
(258,1409,l),
(235,1282,l),
(1017,1282,l),
(906,1155,o),
(813,1044,o),
(740,951,cs),
(666,858,o),
(605,776,o),
(557,704,cs),
(509,632,o),
(469,564,o),
(437,502,cs),
(406,439,o),
(376,375,o),
(350,308,c),
(333,258,o),
(318,206,o),
(305,154,cs),
(293,102,o),
(281,50,o),
(271,0,c)
);
}
);
width = 1139;
}
);
unicode = 55;
}
{
glyphname = eight;
layers = (
{
layerId = "F22D2CAB-3A7F-49A1-9202-DC9343798BDC";
shapes = (
{
closed = 1;
nodes = (
(549,1429,o),
(421,1396,o),
(327,1329,cs),
(232,1262,o),
(185,1170,o),
(185,1052,cs),
(185,977,o),
(200,911,o),
(231,855,cs),
(261,799,o),
(307,757,o),
(369,728,c),
(369,724,l),
(258,704,o),
(170,662,o),
(106,599,cs),
(41,536,o),
(9,457,o),
(9,360,cs),
(9,240,o),
(51,147,o),
(135,80,cs),
(218,13,o),
(336,-20,o),
(488,-20,cs),
(665,-20,o),
(805,21,o),
(907,102,cs),
(1009,183,o),
(1060,293,o),
(1060,432,cs),
(1060,508,o),
(1040,573,o),
(1000,629,cs),
(959,685,o),
(902,724,o),
(828,746,c),
(829,750,l),
(924,762,o),
(1001,799,o),
(1057,860,cs),
(1114,921,o),
(1142,998,o),
(1142,1091,cs),
(1142,1194,o),
(1104,1277,o),
(1028,1338,cs),
(951,1399,o),
(845,1429,o),
(709,1429,cs)
);
},
{
closed = 1;
nodes = (
(604,859,o),
(576,872,o),
(556,897,cs),
(537,922,o),
(527,960,o),
(527,1011,cs),
(527,1067,o),
(540,1111,o),
(567,1143,cs),
(593,1175,o),
(630,1190,o),
(676,1190,cs),
(715,1190,o),
(744,1179,o),
(763,1157,c),
(781,1134,o),
(791,1098,o),
(791,1049,cs),
(791,991,o),
(777,945,o),
(750,911,cs),
(722,877,o),
(686,859,o),
(641,859,cs)
);
},
{
closed = 1;
nodes = (
(603,619,o),
(638,604,o),
(662,576,cs),
(687,548,o),
(700,506,o),
(700,449,cs),
(700,379,o),
(683,323,o),
(651,281,c),
(618,240,o),
(575,219,o),
(521,219,cs),
(473,219,o),
(436,234,o),
(409,263,c),
(383,293,o),
(369,335,o),
(369,391,cs),
(369,459,o),
(386,514,o),
(419,556,cs),
(452,598,o),
(498,619,o),
(558,619,cs)
);
}
);
width = 1139;
},
{
layerId = "540001E1-6881-4DFA-ACAC-B89E119E0EAF";
shapes = (
{
closed = 1;
nodes = (
(551,1429,o),
(426,1396,o),
(335,1329,cs),
(243,1262,o),
(197,1170,o),
(197,1052,cs),
(197,979,o),
(213,915,o),
(244,861,cs),
(276,807,o),
(322,767,o),
(383,739,c),
(383,735,l),
(270,713,o),
(182,669,o),
(119,604,cs),
(56,539,o),
(24,458,o),
(24,360,cs),
(24,241,o),
(65,148,o),
(147,80,cs),
(228,13,o),
(343,-20,o),
(492,-20,cs),
(665,-20,o),
(802,21,o),
(902,102,cs),
(1001,183,o),
(1051,293,o),
(1051,432,cs),
(1051,507,o),
(1031,571,o),
(991,626,cs),
(951,680,o),
(894,718,o),
(821,740,c),
(822,744,l),
(917,757,o),
(995,795,o),
(1051,858,cs),
(1109,920,o),
(1137,998,o),
(1137,1091,cs),
(1137,1194,o),
(1099,1277,o),
(1022,1338,cs),
(945,1399,o),
(840,1429,o),
(707,1429,cs)
);
},
{
closed = 1;
nodes = (
(595,842,o),
(555,858,o),
(526,888,cs),
(498,918,o),
(484,961,o),
(484,1018,cs),
(484,1084,o),
(501,1135,o),
(536,1172,cs),
(570,1208,o),
(618,1225,o),
(678,1225,cs),
(733,1225,o),
(774,1212,o),
(802,1185,c),
(828,1158,o),
(842,1117,o),
(842,1062,cs),
(842,994,o),
(825,940,o),
(790,901,cs),
(755,863,o),
(707,842,o),
(647,842,cs)
);
},
{
closed = 1;
nodes = (
(620,637,o),
(667,620,o),
(700,587,c),
(734,555,o),
(751,507,o),
(751,444,cs),
(751,365,o),
(730,302,o),
(688,254,c),
(645,208,o),
(590,184,o),
(520,184,cs),
(459,184,o),
(411,201,o),
(376,235,cs),
(342,269,o),
(324,317,o),
(324,379,cs),
(324,458,o),
(345,521,o),
(387,567,cs),
(428,614,o),
(486,637,o),
(561,637,cs)
);
}
);
width = 1139;
},
{
layerId = "85C7CFC8-DA24-401F-A421-248411B25E5A";
shapes = (
{
closed = 1;
nodes = (
(554,1429,o),
(435,1396,o),
(347,1329,cs),
(258,1262,o),
(215,1170,o),
(215,1052,cs),
(215,983,o),
(231,922,o),
(265,871,c),
(297,820,o),
(344,781,o),
(405,755,c),
(405,751,l),
(289,726,o),
(201,680,o),
(140,611,cs),
(78,543,o),
(48,460,o),
(48,360,cs),
(48,241,o),
(87,148,o),
(166,81,cs),
(244,14,o),
(355,-20,o),
(498,-20,cs),
(666,-20,o),
(798,21,o),
(893,102,cs),
(989,183,o),
(1037,293,o),
(1037,432,cs),
(1037,506,o),
(1017,569,o),
(979,620,cs),
(939,672,o),
(883,710,o),
(809,732,c),
(810,736,l),
(908,750,o),
(985,789,o),
(1043,854,cs),
(1100,919,o),
(1129,998,o),
(1129,1091,cs),
(1129,1194,o),
(1090,1277,o),
(1014,1338,cs),
(936,1399,o),
(834,1429,o),
(705,1429,cs)
);
},
{
closed = 1;
nodes = (
(581,818,o),
(523,837,o),
(481,874,cs),
(439,912,o),
(418,964,o),
(418,1030,cs),
(418,1111,o),
(441,1172,o),
(488,1215,cs),
(534,1258,o),
(599,1279,o),
(682,1279,cs),
(760,1279,o),
(819,1262,o),
(859,1228,cs),
(899,1193,o),
(920,1144,o),
(920,1082,cs),
(920,997,o),
(896,932,o),
(850,887,cs),
(803,841,o),
(738,818,o),
(655,818,cs)
);
},
{
closed = 1;
nodes = (
(646,665,o),
(710,644,o),
(757,605,cs),
(805,565,o),
(829,510,o),
(829,438,cs),
(829,344,o),
(799,269,o),
(743,214,cs),
(686,159,o),
(611,132,o),
(520,132,cs),
(437,132,o),
(373,152,o),
(327,192,cs),
(281,233,o),
(258,289,o),
(258,361,cs),
(258,456,o),
(285,531,o),
(338,585,cs),
(392,638,o),
(467,665,o),
(565,665,cs)
);
}
);
width = 1139;
},
{
layerId = "9CB70E7F-BC76-4DD2-ACFF-26AC98198772";
shapes = (
{
closed = 1;
nodes = (
(556,1429,o),
(440,1396,o),
(355,1329,cs),
(269,1262,o),
(227,1170,o),
(227,1052,cs),
(227,985,o),
(244,926,o),
(278,877,cs),
(312,828,o),
(359,791,o),
(419,766,c),
(419,762,l),
(301,735,o),
(213,687,o),
(153,616,cs),
(93,546,o),
(63,461,o),
(63,360,cs),
(63,242,o),
(101,149,o),
(178,81,cs),
(254,14,o),
(362,-20,o),
(502,-20,cs),
(666,-20,o),
(795,21,o),
(888,102,cs),
(981,183,o),
(1028,293,o),
(1028,432,cs),
(1028,505,o),
(1008,567,o),
(970,617,cs),
(931,667,o),
(875,704,o),
(802,726,c),
(803,730,l),
(901,745,o),
(979,785,o),
(1037,852,cs),
(1095,918,o),
(1124,998,o),
(1124,1091,cs),
(1124,1194,o),
(1085,1277,o),
(1008,1338,cs),
(930,1399,o),
(829,1429,o),
(703,1429,cs)
);
},
{
closed = 1;
nodes = (
(572,801,o),
(502,823,o),
(451,865,cs),
(400,908,o),
(375,965,o),
(375,1037,cs),
(375,1128,o),
(402,1196,o),
(457,1244,cs),
(511,1291,o),
(587,1314,o),
(684,1314,cs),
(778,1314,o),
(849,1295,o),
(898,1256,cs),
(946,1217,o),
(971,1163,o),
(971,1095,cs),
(971,1000,o),
(944,927,o),
(890,877,cs),
(836,827,o),
(759,801,o),
(661,801,cs)
);
},
{
closed = 1;
nodes = (
(663,683,o),
(739,660,o),
(795,616,cs),
(852,572,o),
(880,511,o),
(880,433,cs),
(880,330,o),
(846,248,o),
(780,187,cs),
(713,127,o),
(626,97,o),
(519,97,cs),
(423,97,o),
(348,119,o),
(294,164,cs),
(240,209,o),
(213,271,o),
(213,349,cs),
(213,455,o),
(244,538,o),
(306,596,cs),
(368,654,o),
(455,683,o),
(568,683,cs)
);
}
);
width = 1139;
}
);
unicode = 56;
}
{
glyphname = nine;
layers = (
{
layerId = "31C81AF0-C452-43E7-8668-722D0E517E96";
shapes = (
{
closed = 1;
nodes = (
(740,501,o),
(709,405,o),
(670,345,cs),
(630,284,o),
(581,254,o),
(523,254,cs),
(482,254,o),
(450,265,o),
(427,288,cs),
(404,311,o),
(390,347,o),
(385,397,c),
(33,347,l),
(46,232,o),
(93,142,o),
(174,77,cs),
(255,12,o),
(363,-20,o),
(496,-20,cs),
(562,-20,o),
(622,-10,o),
(675,9,cs),
(728,29,o),
(777,57,o),
(821,92,c),
(865,125,o),
(904,164,o),
(937,208,c),
(983,274,o),
(1022,350,o),
(1054,435,cs),
(1086,521,o),
(1110,609,o),
(1127,700,cs),
(1144,790,o),
(1152,876,o),
(1152,957,cs),
(1152,1052,o),
(1133,1135,o),
(1095,1206,cs),
(1057,1278,o),
(1004,1333,o),
(936,1372,cs),
(869,1411,o),
(789,1430,o),
(699,1430,cs),
(596,1430,o),
(501,1408,o),
(414,1363,cs),
(328,1318,o),
(260,1255,o),
(211,1172,cs),
(161,1089,o),
(136,999,o),
(136,901,cs),
(136,820,o),
(150,751,o),
(179,693,cs),
(207,635,o),
(245,591,o),
(293,561,c),
(343,532,o),
(399,518,o),
(460,518,cs),
(530,518,o),
(587,527,o),
(632,545,cs),
(677,562,o),
(720,592,o),
(763,632,c)
);
},
{
closed = 1;
nodes = (
(808,917,o),
(791,852,o),
(755,811,c),
(725,783,o),
(684,768,o),
(632,768,cs),
(588,768,o),
(553,783,o),
(528,811,cs),
(502,840,o),
(490,874,o),
(490,914,cs),
(490,988,o),
(506,1047,o),
(538,1092,cs),
(571,1138,o),
(617,1160,o),
(678,1160,cs),
(715,1160,o),
(746,1145,o),
(771,1114,cs),
(796,1083,o),
(808,1046,o),
(808,1004,cs)
);
}
);
width = 1139;
},
{
layerId = "42D11CF2-4BFF-4A3C-B658-4C314917569F";
shapes = (
{
closed = 1;
nodes = (
(781,502,o),
(742,392,o),
(691,319,cs),
(639,246,o),
(576,210,o),
(502,210,cs),
(454,210,o),
(416,222,o),
(387,248,cs),
(359,274,o),
(340,312,o),
(331,364,c),
(46,316,l),
(63,209,o),
(109,126,o),
(184,67,cs),
(259,9,o),
(359,-20,o),
(481,-20,cs),
(547,-20,o),
(608,-9,o),
(664,12,cs),
(720,33,o),
(772,65,o),
(819,107,c),
(866,146,o),
(908,195,o),
(944,253,cs),
(984,316,o),
(1018,387,o),
(1047,467,cs),
(1075,547,o),
(1096,630,o),
(1111,715,cs),
(1126,799,o),
(1133,880,o),
(1133,957,cs),
(1133,1053,o),
(1115,1136,o),
(1079,1207,cs),
(1042,1279,o),
(991,1333,o),
(925,1372,cs),
(860,1411,o),
(782,1430,o),
(693,1430,cs),
(592,1430,o),
(499,1407,o),
(414,1361,cs),
(330,1315,o),
(265,1251,o),
(217,1168,cs),
(169,1084,o),
(145,993,o),
(145,894,cs),
(145,815,o),
(160,746,o),
(190,687,cs),
(220,628,o),
(261,583,o),
(313,551,c),
(366,521,o),
(427,505,o),
(494,505,cs),
(563,505,o),
(622,517,o),
(671,541,c),
(720,563,o),
(766,601,o),
(809,650,c)
);
},
{
closed = 1;
nodes = (
(848,897,o),
(818,815,o),
(756,764,c),
(717,734,o),
(670,718,o),
(614,718,cs),
(561,718,o),
(518,736,o),
(487,770,cs),
(456,804,o),
(441,848,o),
(441,902,cs),
(441,994,o),
(462,1066,o),
(504,1121,cs),
(546,1176,o),
(604,1202,o),
(678,1202,cs),
(727,1202,o),
(768,1184,o),
(800,1147,cs),
(832,1110,o),
(848,1064,o),
(848,1009,cs)
);
}
);
width = 1139;
},
{
layerId = "D06BE3A0-2FE9-4743-9DA4-DC1042F849F0";
shapes = (
{
closed = 1;
nodes = (
(844,504,o),
(791,371,o),
(722,281,cs),
(652,189,o),
(568,144,o),
(470,144,cs),
(412,144,o),
(365,159,o),
(328,188,cs),
(291,217,o),
(265,260,o),
(251,316,c),
(64,270,l),
(88,174,o),
(133,102,o),
(199,53,cs),
(266,4,o),
(352,-20,o),
(459,-20,cs),
(524,-20,o),
(587,-8,o),
(648,15,c),
(708,40,o),
(765,78,o),
(817,129,cs),
(868,179,o),
(915,243,o),
(956,321,cs),
(987,378,o),
(1013,443,o),
(1035,514,cs),
(1057,586,o),
(1075,660,o),
(1087,737,cs),
(1099,813,o),
(1105,887,o),
(1105,957,cs),
(1105,1054,o),
(1088,1138,o),
(1054,1208,cs),
(1021,1279,o),
(973,1334,o),
(910,1373,cs),
(848,1411,o),
(772,1430,o),
(685,1430,cs),
(585,1430,o),
(495,1407,o),
(414,1359,cs),
(334,1311,o),
(271,1246,o),
(227,1162,cs),
(182,1078,o),
(159,985,o),
(159,884,cs),
(159,808,o),
(175,740,o),
(208,679,cs),
(239,618,o),
(284,570,o),
(343,537,cs),
(401,503,o),
(468,487,o),
(544,487,cs),
(614,487,o),
(675,502,o),
(730,534,cs),
(785,566,o),
(834,613,o),
(879,676,c)
);
},
{
closed = 1;
nodes = (
(908,866,o),
(858,759,o),
(756,694,cs),
(706,661,o),
(649,644,o),
(588,644,cs),
(519,644,o),
(466,665,o),
(427,707,cs),
(386,750,o),
(367,809,o),
(367,884,cs),
(367,1002,o),
(395,1096,o),
(452,1163,cs),
(510,1232,o),
(585,1266,o),
(678,1266,cs),
(746,1266,o),
(801,1243,o),
(844,1197,cs),
(887,1151,o),
(908,1090,o),
(908,1015,cs)
);
}
);
width = 1139;
},
{
layerId = "8B25E0A0-F27A-4A76-9983-E40B0C67E833";
shapes = (
{
closed = 1;
nodes = (
(885,505,o),
(824,358,o),
(743,255,cs),
(661,151,o),
(563,100,o),
(449,100,cs),
(384,100,o),
(331,116,o),
(288,148,cs),
(246,180,o),
(215,225,o),
(197,283,c),
(77,239,l),
(105,151,o),
(149,86,o),
(209,43,cs),
(270,1,o),
(348,-20,o),
(444,-20,cs),
(509,-20,o),
(573,-7,o),
(637,18,cs),
(700,44,o),
(760,86,o),
(815,144,cs),
(869,200,o),
(919,274,o),
(963,366,c),
(988,420,o),
(1009,480,o),
(1028,546,cs),
(1046,612,o),
(1061,681,o),
(1071,752,cs),
(1081,822,o),
(1086,891,o),
(1086,957,cs),
(1086,1055,o),
(1070,1139,o),
(1038,1209,cs),
(1006,1280,o),
(960,1334,o),
(899,1373,cs),
(839,1411,o),
(765,1430,o),
(679,1430,cs),
(581,1430,o),
(493,1406,o),
(414,1357,cs),
(336,1308,o),
(276,1242,o),
(233,1158,cs),
(190,1073,o),
(168,979,o),
(168,877,cs),
(168,803,o),
(185,735,o),
(219,673,cs),
(252,611,o),
(300,562,o),
(363,527,c),
(424,492,o),
(496,474,o),
(578,474,cs),
(647,474,o),
(710,492,o),
(769,530,cs),
(828,567,o),
(880,622,o),
(925,694,c)
);
},
{
closed = 1;
nodes = (
(948,846,o),
(885,722,o),
(757,647,cs),
(698,612,o),
(635,594,o),
(570,594,cs),
(492,594,o),
(431,618,o),
(386,666,cs),
(340,714,o),
(318,783,o),
(318,872,cs),
(318,1008,o),
(351,1115,o),
(418,1192,cs),
(485,1270,o),
(572,1308,o),
(678,1308,cs),
(758,1308,o),
(823,1282,o),
(873,1230,cs),
(923,1178,o),
(948,1108,o),
(948,1020,cs)
);
}
);
width = 1139;
}
);
unicode = 57;
}
{
glyphname = colon;
layers = (
{
layerId = "826E86D0-E588-4774-9A02-039E3F74D6B5";
shapes = (
{
closed = 1;
nodes = (
(639,1002,l),
(289,1002,l),
(224,670,l),
(575,670,l)
);
},
{
closed = 1;
nodes = (
(509,331,l),
(159,331,l),
(94,0,l),
(445,0,l)
);
}
);
width = 757;
},
{
layerId = "CCC0E55B-A8B0-4BE5-BCFE-654143F4C169";
shapes = (
{
closed = 1;
nodes = (
(582,1029,l),
(285,1029,l),
(228,740,l),
(526,740,l)
);
},
{
closed = 1;
nodes = (
(438,289,l),
(141,289,l),
(84,0,l),
(382,0,l)
);
}
);
width = 682;
},
{
layerId = "BA5C3EFA-52F0-4978-BF26-13A2AC8190BC";
shapes = (
{
closed = 1;
nodes = (
(495,1071,l),
(278,1071,l),
(233,846,l),
(451,846,l)
);
},
{
closed = 1;
nodes = (
(331,225,l),
(114,225,l),
(69,0,l),
(287,0,l)
);
}
);
width = 569;
},
{
layerId = "344EAA8B-658C-4164-B741-D5EC6A8B0AA2";
shapes = (
{
closed = 1;
nodes = (
(457,1098,l),
(293,1098,l),
(256,916,l),
(421,916,l)
);
},
{
closed = 1;
nodes = (
(279,183,l),
(115,183,l),
(78,0,l),
(243,0,l)
);
}
);
width = 531;
}
);
unicode = 58;
}
{
glyphname = semicolon;
layers = (
{
layerId = "2D57F921-1619-4848-A780-0286F5C5F7A5";
shapes = (
{
closed = 1;
nodes = (
(630,1002,l),
(280,1002,l),
(215,670,l),
(565,670,l)
);
},
{
closed = 1;
nodes = (
(500,331,l),
(150,331,l),
(85,0,l),
(241,0,l),
(232,-54,o),
(206,-112,o),
(165,-175,cs),
(124,-238,o),
(73,-297,o),
(13,-354,c),
(238,-354,l),
(297,-294,o),
(343,-230,o),
(375,-162,cs),
(408,-95,o),
(433,-15,o),
(450,76,cs)
);
}
);
width = 757;
},
{
layerId = "7F330584-10E9-4267-8E26-4D2DDDC504D5";
shapes = (
{
closed = 1;
nodes = (
(580,1029,l),
(284,1029,l),
(227,740,l),
(524,740,l)
);
},
{
closed = 1;
nodes = (
(437,289,l),
(140,289,l),
(83,0,l),
(216,0,l),
(207,-50,o),
(184,-103,o),
(149,-159,cs),
(114,-215,o),
(70,-270,o),
(17,-323,c),
(207,-323,l),
(258,-267,o),
(298,-209,o),
(327,-147,cs),
(356,-86,o),
(378,-14,o),
(394,67,cs)
);
}
);
width = 682;
},
{
layerId = "70541219-6074-4DB1-927E-09A6A4A4AC13";
shapes = (
{
closed = 1;
nodes = (
(505,1071,l),
(287,1071,l),
(244,846,l),
(461,846,l)
);
},
{
closed = 1;
nodes = (
(340,225,l),
(123,225,l),
(80,0,l),
(177,0,l),
(169,-43,o),
(151,-88,o),
(125,-135,cs),
(98,-182,o),
(63,-228,o),
(20,-275,c),
(158,-275,l),
(198,-228,o),
(230,-178,o),
(253,-125,cs),
(277,-73,o),
(295,-13,o),
(307,55,cs)
);
}
);
width = 569;
},
{
layerId = "D7EC7508-C152-41F5-B530-A2FB36F9EC58";
shapes = (
{
closed = 1;
nodes = (
(474,1098,l),
(310,1098,l),
(275,916,l),
(439,916,l)
);
},
{
closed = 1;
nodes = (
(296,183,l),
(132,183,l),
(97,0,l),
(171,0,l),
(163,-39,o),
(148,-79,o),
(128,-119,cs),
(107,-159,o),
(79,-201,o),
(43,-244,c),
(146,-244,l),
(178,-201,o),
(204,-157,o),
(224,-110,cs),
(244,-64,o),
(259,-12,o),
(270,46,c)
);
}
);
width = 531;
}
);
unicode = 59;
}
{
glyphname = less;
layers = (
{
layerId = "785665E2-8136-4865-9B7E-748FCB278F4B";
shapes = (
{
closed = 1;
nodes = (
(1168,382,l),
(352,677,l),
(1168,975,l),
(1168,1252,l),
(119,880,l),
(119,479,l),
(1168,106,l)
);
}
);
width = 1196;
},
{
layerId = "C6FD8471-1839-414E-9C91-DDB255379DAE";
shapes = (
{
closed = 1;
nodes = (
(1154,356,l),
(323,676,l),
(1154,997,l),
(1154,1232,l),
(123,845,l),
(123,510,l),
(1154,123,l)
);
}
);
width = 1196;
},
{
layerId = "341BCE00-9002-445C-A6C9-0431889C03AA";
shapes = (
{
closed = 1;
nodes = (
(1132,318,l),
(281,674,l),
(1132,1031,l),
(1132,1202,l),
(129,791,l),
(129,558,l),
(1132,147,l)
);
}
);
width = 1196;
},
{
layerId = "42616347-C5BD-494A-B849-B08086064D93";
shapes = (
{
closed = 1;
nodes = (
(1118,292,l),
(252,673,l),
(1118,1053,l),
(1118,1182,l),
(133,756,l),
(133,589,l),
(1118,164,l)
);
}
);
width = 1196;
}
);
unicode = 60;
}
{
glyphname = equal;
layers = (
{
layerId = "826E86D0-E588-4774-9A02-039E3F74D6B5";
shapes = (
{
closed = 1;
nodes = (
(1167,1106,l),
(118,1106,l),
(118,833,l),
(1167,833,l)
);
},
{
closed = 1;
nodes = (
(1167,525,l),
(118,525,l),
(118,255,l),
(1167,255,l)
);
}
);
width = 1196;
},
{
layerId = "CCC0E55B-A8B0-4BE5-BCFE-654143F4C169";
shapes = (
{
closed = 1;
nodes = (
(1153,1071,l),
(122,1071,l),
(122,841,l),
(1153,841,l)
);
},
{
closed = 1;
nodes = (
(1153,514,l),
(122,514,l),
(122,285,l),
(1153,285,l)
);
}
);
width = 1196;
},
{
layerId = "BA5C3EFA-52F0-4978-BF26-13A2AC8190BC";
shapes = (
{
closed = 1;
nodes = (
(1131,1019,l),
(128,1019,l),
(128,853,l),
(1131,853,l)
);
},
{
closed = 1;
nodes = (
(1131,496,l),
(128,496,l),
(128,331,l),
(1131,331,l)
);
}
);
width = 1196;
},
{
layerId = "344EAA8B-658C-4164-B741-D5EC6A8B0AA2";
shapes = (
{
closed = 1;
nodes = (
(1117,984,l),
(132,984,l),
(132,861,l),
(1117,861,l)
);
},
{
closed = 1;
nodes = (
(1117,485,l),
(132,485,l),
(132,361,l),
(1117,361,l)
);
}
);
width = 1196;
}
);
unicode = 61;
}
{
glyphname = greater;
layers = (
{
layerId = "4BF4B489-BD31-44B3-B107-FC4282D889AB";
shapes = (
{
closed = 1;
nodes = (
(1168,479,l),
(1168,880,l),
(119,1252,l),
(119,975,l),
(934,677,l),
(119,382,l),
(119,106,l)
);
}
);
width = 1196;
},
{
layerId = "86356D96-A9F7-466C-8338-FA4F598E1FDA";
shapes = (
{
closed = 1;
nodes = (
(1154,510,l),
(1154,845,l),
(123,1232,l),
(123,997,l),
(953,676,l),
(123,356,l),
(123,123,l)
);
}
);
width = 1196;
},
{
layerId = "55E58B27-7540-477B-A952-538A3E316EF2";
shapes = (
{
closed = 1;
nodes = (
(1132,558,l),
(1132,791,l),
(129,1202,l),
(129,1031,l),
(981,674,l),
(129,318,l),
(129,147,l)
);
}
);
width = 1196;
},
{
layerId = "79976DCB-F9F8-4AE0-A082-2E792CAF2855";
shapes = (
{
closed = 1;
nodes = (
(1118,589,l),
(1118,756,l),
(133,1182,l),
(133,1053,l),
(1000,673,l),
(133,292,l),
(133,164,l)
);
}
);
width = 1196;
}
);
unicode = 62;
}
{
glyphname = question;
layers = (
{
layerId = "826E86D0-E588-4774-9A02-039E3F74D6B5";
shapes = (
{
closed = 1;
nodes = (
(498,1430,o),
(283,1326,o),
(201,1048,c),
(534,1008,l),
(560,1126,o),
(649,1155,o),
(759,1155,cs),
(825,1155,o),
(913,1143,o),
(913,1057,cs),
(913,840,o),
(478,826,o),
(412,459,c),
(740,459,l),
(774,726,o),
(1260,708,o),
(1260,1076,cs),
(1260,1353,o),
(1006,1430,o),
(774,1430,cs)
);
},
{
closed = 1;
nodes = (
(728,316,l),
(376,316,l),
(316,0,l),
(668,0,l)
);
}
);
width = 1326;
},
{
layerId = "CCC0E55B-A8B0-4BE5-BCFE-654143F4C169";
shapes = (
{
closed = 1;
nodes = (
(469,1430,o),
(262,1320,o),
(181,1048,c),
(456,1008,l),
(493,1145,o),
(592,1194,o),
(727,1194,cs),
(818,1194,o),
(918,1165,o),
(918,1055,cs),
(918,798,o),
(461,808,o),
(395,431,c),
(671,431,l),
(708,694,o),
(1211,685,o),
(1211,1075,cs),
(1211,1341,o),
(971,1430,o),
(743,1430,cs)
);
},
{
closed = 1;
nodes = (
(655,277,l),
(357,277,l),
(304,0,l),
(603,0,l)
);
}
);
width = 1251;
},
{
layerId = "BA5C3EFA-52F0-4978-BF26-13A2AC8190BC";
shapes = (
{
closed = 1;
nodes = (
(424,1430,o),
(236,1312,o),
(151,1048,c),
(340,1008,l),
(388,1171,o),
(514,1254,o),
(681,1254,cs),
(804,1254,o),
(928,1192,o),
(928,1053,cs),
(928,735,o),
(438,784,o),
(371,389,c),
(567,389,l),
(624,677,o),
(1137,650,o),
(1137,1073,cs),
(1137,1325,o),
(920,1430,o),
(697,1430,cs)
);
},
{
closed = 1;
nodes = (
(547,217,l),
(329,217,l),
(288,0,l),
(505,0,l)
);
}
);
width = 1139;
},
{
layerId = "344EAA8B-658C-4164-B741-D5EC6A8B0AA2";
shapes = (
{
closed = 1;
nodes = (
(415,1430,o),
(236,1307,o),
(151,1048,c),
(282,1008,l),
(340,1189,o),
(478,1293,o),
(669,1293,cs),
(815,1293,o),
(953,1211,o),
(953,1051,cs),
(953,688,o),
(442,771,o),
(374,361,c),
(518,361,l),
(592,687,o),
(1108,595,o),
(1108,1072,cs),
(1108,1312,o),
(904,1430,o),
(686,1430,cs)
);
},
{
closed = 1;
nodes = (
(494,178,l),
(330,178,l),
(296,0,l),
(460,0,l)
);
}
);
width = 1102;
}
);
unicode = 63;
}
{
glyphname = at;
layers = (
{
layerId = "785665E2-8136-4865-9B7E-748FCB278F4B";
shapes = (
{
closed = 1;
nodes = (
(1895,900,o),
(1864,1028,o),
(1801,1138,cs),
(1738,1248,o),
(1647,1333,o),
(1527,1394,cs),
(1407,1454,o),
(1265,1484,o),
(1102,1484,cs),
(917,1484,o),
(750,1442,o),
(600,1359,cs),
(450,1276,o),
(333,1158,o),
(249,1005,cs),
(163,853,o),
(121,681,o),
(121,491,cs),
(121,334,o),
(155,195,o),
(223,73,cs),
(292,-49,o),
(386,-141,o),
(506,-205,cs),
(626,-269,o),
(763,-301,o),
(919,-301,cs),
(1029,-301,o),
(1136,-289,o),
(1239,-263,cs),
(1342,-238,o),
(1454,-192,o),
(1577,-125,c),
(1510,4,l),
(1309,-97,o),
(1116,-147,o),
(930,-147,cs),
(803,-147,o),
(692,-122,o),
(599,-73,cs),
(505,-25,o),
(431,49,o),
(377,148,cs),
(323,247,o),
(297,362,o),
(297,491,cs),
(297,653,o),
(331,800,o),
(400,930,cs),
(469,1060,o),
(564,1160,o),
(685,1229,cs),
(805,1298,o),
(945,1333,o),
(1104,1333,cs),
(1230,1333,o),
(1341,1309,o),
(1437,1261,cs),
(1533,1213,o),
(1607,1145,o),
(1657,1058,cs),
(1707,971,o),
(1732,869,o),
(1732,753,cs),
(1732,663,o),
(1717,580,o),
(1687,504,cs),
(1657,429,o),
(1616,368,o),
(1565,322,cs),
(1514,275,o),
(1462,251,o),
(1409,251,cs),
(1392,251,o),
(1376,257,o),
(1359,270,cs),
(1342,283,o),
(1333,307,o),
(1333,342,cs),
(1333,379,o),
(1345,456,o),
(1370,573,c),
(1488,1079,l),
(1332,1079,l),
(1293,932,l),
(1287,932,l),
(1247,1045,o),
(1167,1101,o),
(1048,1101,cs),
(952,1101,o),
(867,1074,o),
(792,1021,cs),
(717,967,o),
(657,892,o),
(614,796,cs),
(571,699,o),
(549,597,o),
(549,489,cs),
(549,367,o),
(578,273,o),
(635,205,cs),
(693,138,o),
(774,104,o),
(879,104,cs),
(943,104,o),
(1008,128,o),
(1074,175,cs),
(1141,222,o),
(1187,276,o),
(1213,338,c),
(1219,338,l),
(1216,329,o),
(1214,319,o),
(1212,309,cs),
(1211,299,o),
(1210,287,o),
(1211,273,c),
(1211,221,o),
(1227,180,o),
(1258,150,cs),
(1289,119,o),
(1334,104,o),
(1391,104,cs),
(1479,104,o),
(1563,133,o),
(1642,190,cs),
(1720,248,o),
(1783,326,o),
(1828,426,cs),
(1873,526,o),
(1895,635,o),
(1895,755,cs)
);
},
{
closed = 1;
nodes = (
(1220,731,o),
(1217,699,o),
(1209,660,c),
(1202,620,o),
(1192,578,o),
(1178,534,cs),
(1164,490,o),
(1147,450,o),
(1127,414,cs),
(1097,361,o),
(1064,321,o),
(1027,293,cs),
(990,266,o),
(952,252,o),
(915,252,cs),
(848,252,o),
(798,273,o),
(765,316,cs),
(732,359,o),
(716,418,o),
(716,491,cs),
(716,569,o),
(729,646,o),
(755,722,cs),
(781,799,o),
(818,858,o),
(866,899,cs),
(914,940,o),
(967,961,o),
(1027,961,cs),
(1082,961,o),
(1129,941,o),
(1165,902,cs),
(1202,863,o),
(1220,814,o),
(1220,754,cs)
);
}
);
width = 1942;
},
{
layerId = "C6FD8471-1839-414E-9C91-DDB255379DAE";
shapes = (
{
closed = 1;
nodes = (
(1913,900,o),
(1882,1028,o),
(1819,1138,cs),
(1757,1248,o),
(1666,1333,o),
(1548,1394,cs),
(1429,1454,o),
(1288,1484,o),
(1125,1484,cs),
(941,1484,o),
(775,1442,o),
(626,1358,cs),
(477,1275,o),
(361,1156,o),
(277,1003,cs),
(192,851,o),
(150,680,o),
(150,491,cs),
(150,335,o),
(183,197,o),
(250,77,cs),
(318,-44,o),
(411,-135,o),
(531,-199,cs),
(651,-263,o),
(789,-295,o),
(946,-295,cs),
(1058,-295,o),
(1168,-282,o),
(1274,-254,cs),
(1381,-227,o),
(1490,-182,o),
(1604,-118,c),
(1541,5,l),
(1343,-98,o),
(1147,-150,o),
(953,-150,cs),
(825,-150,o),
(712,-124,o),
(617,-74,cs),
(522,-24,o),
(447,50,o),
(394,149,cs),
(340,248,o),
(314,362,o),
(314,491,cs),
(314,655,o),
(348,803,o),
(418,934,cs),
(488,1066,o),
(583,1167,o),
(706,1236,cs),
(827,1306,o),
(968,1342,o),
(1127,1342,cs),
(1255,1342,o),
(1366,1317,o),
(1462,1269,cs),
(1559,1220,o),
(1633,1151,o),
(1683,1063,cs),
(1734,973,o),
(1759,870,o),
(1759,753,cs),
(1759,660,o),
(1745,575,o),
(1716,497,cs),
(1688,421,o),
(1649,359,o),
(1599,313,c),
(1551,266,o),
(1499,242,o),
(1446,242,cs),
(1426,242,o),
(1409,249,o),
(1393,263,cs),
(1377,277,o),
(1368,301,o),
(1368,335,cs),
(1368,380,o),
(1380,459,o),
(1405,573,cs),
(1523,1079,l),
(1367,1079,l),
(1328,927,l),
(1322,927,l),
(1276,1043,o),
(1190,1101,o),
(1062,1101,cs),
(966,1101,o),
(881,1074,o),
(805,1020,cs),
(730,966,o),
(670,891,o),
(627,795,cs),
(584,699,o),
(562,597,o),
(562,489,cs),
(562,368,o),
(591,273,o),
(648,205,cs),
(706,138,o),
(787,104,o),
(892,104,cs),
(959,104,o),
(1026,127,o),
(1092,172,cs),
(1158,217,o),
(1207,273,o),
(1239,342,c),
(1245,342,l),
(1243,332,o),
(1241,322,o),
(1240,311,cs),
(1239,300,o),
(1239,288,o),
(1239,275,cs),
(1239,222,o),
(1256,180,o),
(1288,150,cs),
(1320,119,o),
(1368,104,o),
(1428,104,cs),
(1515,104,o),
(1596,132,o),
(1672,189,cs),
(1747,245,o),
(1806,323,o),
(1849,424,cs),
(1892,524,o),
(1913,634,o),
(1913,755,cs)
);
},
{
closed = 1;
nodes = (
(1261,726,o),
(1258,692,o),
(1249,653,c),
(1242,612,o),
(1231,571,o),
(1216,527,cs),
(1201,484,o),
(1182,445,o),
(1161,409,c),
(1128,357,o),
(1092,317,o),
(1051,288,c),
(1010,261,o),
(968,246,o),
(925,246,cs),
(859,246,o),
(809,268,o),
(776,311,cs),
(744,355,o),
(728,416,o),
(728,491,cs),
(728,572,o),
(742,650,o),
(769,726,cs),
(796,802,o),
(835,861,o),
(884,903,cs),
(934,945,o),
(989,966,o),
(1052,966,cs),
(1113,966,o),
(1164,945,o),
(1202,905,cs),
(1242,865,o),
(1261,814,o),
(1261,752,cs)
);
}
);
width = 1997;
},
{
layerId = "341BCE00-9002-445C-A6C9-0431889C03AA";
shapes = (
{
closed = 1;
nodes = (
(1939,900,o),
(1908,1028,o),
(1847,1138,cs),
(1784,1248,o),
(1696,1333,o),
(1578,1394,cs),
(1461,1454,o),
(1321,1484,o),
(1161,1484,cs),
(978,1484,o),
(813,1441,o),
(665,1357,cs),
(518,1272,o),
(402,1154,o),
(319,1001,cs),
(235,847,o),
(194,677,o),
(194,491,cs),
(194,337,o),
(226,201,o),
(291,82,cs),
(356,-36,o),
(449,-127,o),
(569,-191,cs),
(689,-254,o),
(828,-285,o),
(988,-285,cs),
(1103,-285,o),
(1216,-271,o),
(1328,-241,cs),
(1439,-212,o),
(1545,-167,o),
(1646,-108,c),
(1589,7,l),
(1395,-101,o),
(1195,-154,o),
(989,-154,cs),
(857,-154,o),
(743,-128,o),
(645,-75,cs),
(546,-24,o),
(471,52,o),
(418,151,cs),
(366,248,o),
(340,362,o),
(340,491,cs),
(340,657,o),
(375,807,o),
(445,941,cs),
(515,1074,o),
(613,1177,o),
(736,1248,cs),
(860,1319,o),
(1002,1354,o),
(1163,1354,cs),
(1291,1354,o),
(1405,1330,o),
(1501,1280,cs),
(1597,1231,o),
(1671,1161,o),
(1723,1069,cs),
(1773,977,o),
(1799,871,o),
(1799,753,cs),
(1799,656,o),
(1786,568,o),
(1760,488,cs),
(1733,408,o),
(1697,345,o),
(1651,299,cs),
(1605,253,o),
(1556,230,o),
(1502,230,cs),
(1476,230,o),
(1457,237,o),
(1443,252,cs),
(1429,268,o),
(1422,291,o),
(1422,323,cs),
(1422,381,o),
(1434,465,o),
(1459,573,cs),
(1575,1079,l),
(1419,1079,l),
(1380,921,l),
(1374,921,l),
(1321,1041,o),
(1223,1101,o),
(1082,1101,cs),
(988,1101,o),
(902,1073,o),
(826,1019,cs),
(749,963,o),
(688,888,o),
(645,795,cs),
(602,699,o),
(580,598,o),
(580,489,cs),
(580,368,o),
(609,274,o),
(666,206,cs),
(724,138,o),
(805,104,o),
(910,104,cs),
(984,104,o),
(1054,125,o),
(1118,167,cs),
(1184,208,o),
(1237,269,o),
(1279,348,c),
(1285,348,l),
(1284,338,o),
(1283,325,o),
(1282,314,c),
(1282,303,o),
(1281,291,o),
(1281,279,cs),
(1281,223,o),
(1298,180,o),
(1333,150,cs),
(1368,119,o),
(1418,104,o),
(1484,104,cs),
(1569,104,o),
(1647,132,o),
(1717,186,cs),
(1786,242,o),
(1842,320,o),
(1881,420,cs),
(1920,520,o),
(1939,631,o),
(1939,755,cs)
);
},
{
closed = 1;
nodes = (
(1323,717,o),
(1319,682,o),
(1310,641,cs),
(1301,601,o),
(1289,559,o),
(1272,518,cs),
(1255,476,o),
(1236,438,o),
(1211,403,c),
(1176,351,o),
(1135,310,o),
(1088,281,cs),
(1041,252,o),
(991,238,o),
(941,238,cs),
(874,238,o),
(825,260,o),
(794,305,c),
(761,350,o),
(746,412,o),
(746,491,cs),
(746,575,o),
(760,655,o),
(790,731,cs),
(820,808,o),
(860,867,o),
(912,909,cs),
(963,951,o),
(1022,972,o),
(1088,972,cs),
(1159,972,o),
(1216,952,o),
(1259,910,cs),
(1302,869,o),
(1323,815,o),
(1323,748,cs)
);
}
);
width = 2079;
},
{
layerId = "42616347-C5BD-494A-B849-B08086064D93";
shapes = (
{
closed = 1;
nodes = (
(1943,900,o),
(1912,1028,o),
(1851,1138,cs),
(1789,1248,o),
(1701,1333,o),
(1585,1394,cs),
(1469,1454,o),
(1330,1484,o),
(1170,1484,cs),
(988,1484,o),
(824,1441,o),
(677,1356,cs),
(531,1271,o),
(416,1152,o),
(333,999,cs),
(250,845,o),
(209,676,o),
(209,491,cs),
(209,338,o),
(240,203,o),
(304,86,cs),
(368,-31,o),
(460,-121,o),
(580,-185,cs),
(700,-248,o),
(840,-279,o),
(1001,-279,cs),
(1118,-279,o),
(1234,-264,o),
(1349,-232,cs),
(1464,-201,o),
(1567,-157,o),
(1659,-101,c),
(1606,8,l),
(1415,-102,o),
(1212,-157,o),
(998,-157,cs),
(865,-157,o),
(749,-130,o),
(649,-76,cs),
(549,-23,o),
(473,53,o),
(421,152,c),
(369,249,o),
(343,362,o),
(343,491,cs),
(343,659,o),
(378,810,o),
(449,945,cs),
(520,1080,o),
(618,1184,o),
(743,1255,cs),
(868,1327,o),
(1011,1363,o),
(1172,1363,cs),
(1302,1363,o),
(1416,1338,o),
(1512,1288,cs),
(1609,1238,o),
(1683,1167,o),
(1735,1074,cs),
(1786,979,o),
(1812,872,o),
(1812,753,cs),
(1812,653,o),
(1800,563,o),
(1775,481,cs),
(1750,400,o),
(1716,336,o),
(1671,290,cs),
(1628,244,o),
(1579,221,o),
(1525,221,cs),
(1496,221,o),
(1476,229,o),
(1463,245,cs),
(1450,262,o),
(1443,285,o),
(1443,316,cs),
(1443,382,o),
(1455,468,o),
(1480,573,cs),
(1596,1079,l),
(1440,1079,l),
(1401,916,l),
(1395,916,l),
(1336,1039,o),
(1232,1101,o),
(1082,1101,cs),
(988,1101,o),
(902,1073,o),
(825,1018,cs),
(748,962,o),
(687,887,o),
(644,794,cs),
(601,699,o),
(579,598,o),
(579,489,cs),
(579,369,o),
(608,274,o),
(665,206,cs),
(723,138,o),
(804,104,o),
(909,104,cs),
(986,104,o),
(1058,124,o),
(1122,164,cs),
(1187,203,o),
(1243,266,o),
(1291,352,c),
(1297,352,l),
(1297,341,o),
(1296,328,o),
(1296,316,cs),
(1296,304,o),
(1296,292,o),
(1295,281,c),
(1295,224,o),
(1313,180,o),
(1349,150,cs),
(1385,119,o),
(1438,104,o),
(1507,104,cs),
(1591,104,o),
(1666,131,o),
(1733,185,cs),
(1799,239,o),
(1851,317,o),
(1888,418,cs),
(1925,518,o),
(1943,630,o),
(1943,755,cs)
);
},
{
closed = 1;
nodes = (
(1350,712,o),
(1346,675,o),
(1336,634,cs),
(1327,593,o),
(1314,552,o),
(1296,511,cs),
(1278,470,o),
(1257,433,o),
(1231,398,cs),
(1193,347,o),
(1149,306,o),
(1098,276,cs),
(1047,247,o),
(993,232,o),
(937,232,cs),
(871,232,o),
(822,255,o),
(791,300,cs),
(759,346,o),
(744,410,o),
(744,491,cs),
(744,578,o),
(759,659,o),
(790,735,cs),
(821,811,o),
(863,870,o),
(916,913,cs),
(969,956,o),
(1030,977,o),
(1099,977,cs),
(1176,977,o),
(1237,956,o),
(1282,913,cs),
(1328,871,o),
(1350,815,o),
(1350,746,cs)
);
}
);
width = 2106;
}
);
unicode = 64;
}
{
glyphname = F;
layers = (
{
layerId = "F22D2CAB-3A7F-49A1-9202-DC9343798BDC";
shapes = (
{
closed = 1;
nodes = (
(476,481,l),
(1058,481,l),
(1111,756,l),
(529,756,l),
(602,1133,l),
(1207,1133,l),
(1260,1409,l),
(291,1409,l),
(18,0,l),
(381,0,l)
);
}
);
width = 1251;
},
{
layerId = "540001E1-6881-4DFA-ACAC-B89E119E0EAF";
shapes = (
{
closed = 1;
nodes = (
(438,512,l),
(1093,512,l),
(1138,747,l),
(483,747,l),
(566,1174,l),
(1245,1174,l),
(1290,1409,l),
(306,1409,l),
(33,0,l),
(338,0,l)
);
}
);
width = 1251;
},
{
layerId = "85C7CFC8-DA24-401F-A421-248411B25E5A";
shapes = (
{
closed = 1;
nodes = (
(380,558,l),
(1145,558,l),
(1180,733,l),
(415,733,l),
(512,1236,l),
(1301,1236,l),
(1334,1409,l),
(330,1409,l),
(57,0,l),
(272,0,l)
);
}
);
width = 1251;
},
{
layerId = "9CB70E7F-BC76-4DD2-ACFF-26AC98198772";
shapes = (
{
closed = 1;
nodes = (
(342,589,l),
(1180,589,l),
(1207,724,l),
(369,724,l),
(476,1277,l),
(1339,1277,l),
(1364,1409,l),
(345,1409,l),
(72,0,l),
(229,0,l)
);
}
);
width = 1251;
}
);
unicode = 70;
}
{
glyphname = I;
layers = (
{
layerId = "826E86D0-E588-4774-9A02-039E3F74D6B5";
shapes = (
{
closed = 1;
nodes = (
(643,1409,l),
(278,1409,l),
(6,0,l),
(369,0,l)
);
}
);
width = 569;
},
{
layerId = "CCC0E55B-A8B0-4BE5-BCFE-654143F4C169";
shapes = (
{
closed = 1;
nodes = (
(610,1409,l),
(304,1409,l),
(32,0,l),
(336,0,l)
);
}
);
width = 569;
},
{
layerId = "BA5C3EFA-52F0-4978-BF26-13A2AC8190BC";
shapes = (
{
closed = 1;
nodes = (
(560,1409,l),
(344,1409,l),
(70,0,l),
(286,0,l)
);
}
);
width = 569;
},
{
layerId = "344EAA8B-658C-4164-B741-D5EC6A8B0AA2";
shapes = (
{
closed = 1;
nodes = (
(527,1409,l),
(370,1409,l),
(96,0,l),
(253,0,l)
);
}
);
width = 569;
}
);
unicode = 73;
}
{
glyphname = J;
layers = (
{
layerId = "785665E2-8136-4865-9B7E-748FCB278F4B";
shapes = (
{
closed = 1;
nodes = (
(700,-20,o),
(818,15,o),
(900,84,cs),
(983,153,o),
(1040,266,o),
(1071,423,cs),
(1264,1409,l),
(900,1409,l),
(713,440,ls),
(702,386,o),
(692,350,o),
(682,331,cs),
(672,313,o),
(659,297,o),
(643,285,cs),
(623,269,o),
(598,262,o),
(567,262,cs),
(522,262,o),
(484,280,o),
(451,315,cs),
(418,350,o),
(394,404,o),
(378,478,c),
(45,403,l),
(76,252,o),
(132,143,o),
(213,78,cs),
(295,13,o),
(406,-20,o),
(546,-20,cs)
);
}
);
width = 1216;
},
{
layerId = "C6FD8471-1839-414E-9C91-DDB255379DAE";
shapes = (
{
closed = 1;
nodes = (
(630,-20,o),
(743,16,o),
(823,86,cs),
(904,156,o),
(959,269,o),
(989,423,cs),
(1182,1409,l),
(878,1409,l),
(691,440,ls),
(679,379,o),
(666,335,o),
(650,307,cs),
(635,279,o),
(616,258,o),
(593,243,cs),
(569,226,o),
(539,219,o),
(504,219,cs),
(452,219,o),
(409,237,o),
(375,275,c),
(340,312,o),
(315,368,o),
(299,443,c),
(23,382,l),
(49,243,o),
(100,140,o),
(177,76,cs),
(253,12,o),
(356,-20,o),
(484,-20,cs)
);
}
);
width = 1139;
},
{
layerId = "341BCE00-9002-445C-A6C9-0431889C03AA";
shapes = (
{
closed = 1;
nodes = (
(525,-20,o),
(630,16,o),
(706,89,cs),
(783,161,o),
(837,272,o),
(866,423,cs),
(1059,1409,l),
(843,1409,l),
(656,440,ls),
(642,369,o),
(624,313,o),
(602,270,c),
(579,229,o),
(550,198,o),
(516,179,cs),
(486,162,o),
(450,153,o),
(409,153,cs),
(345,153,o),
(295,174,o),
(258,214,cs),
(222,254,o),
(196,313,o),
(180,391,c),
(-12,352,l),
(8,229,o),
(52,136,o),
(120,74,cs),
(190,12,o),
(280,-20,o),
(391,-20,cs)
);
}
);
width = 1024;
},
{
layerId = "42616347-C5BD-494A-B849-B08086064D93";
shapes = (
{
closed = 1;
nodes = (
(474,-20,o),
(574,17,o),
(648,91,cs),
(723,164,o),
(775,275,o),
(803,423,c),
(996,1409,l),
(840,1409,l),
(653,440,ls),
(638,362,o),
(617,298,o),
(589,246,cs),
(561,195,o),
(526,159,o),
(485,137,cs),
(451,119,o),
(410,110,o),
(365,110,cs),
(294,110,o),
(239,131,o),
(201,174,cs),
(163,216,o),
(136,277,o),
(120,356,c),
(-15,331,l),
(0,220,o),
(39,133,o),
(103,72,cs),
(167,11,o),
(249,-20,o),
(348,-20,cs)
);
}
);
width = 986;
}
);
unicode = 74;
}
{
glyphname = L;
layers = (
{
layerId = "31C81AF0-C452-43E7-8668-722D0E517E96";
shapes = (
{
closed = 1;
nodes = (
(1221,276,l),
(436,276,l),
(656,1409,l),
(291,1409,l),
(18,0,l),
(1166,0,l)
);
}
);
width = 1326;
},
{
layerId = "42D11CF2-4BFF-4A3C-B658-4C314917569F";
shapes = (
{
closed = 1;
nodes = (
(1139,235,l),
(379,235,l),
(607,1409,l),
(301,1409,l),
(28,0,l),
(1092,0,l)
);
}
);
width = 1251;
},
{
layerId = "D06BE3A0-2FE9-4743-9DA4-DC1042F849F0";
shapes = (
{
closed = 1;
nodes = (
(1015,173,l),
(293,173,l),
(533,1409,l),
(317,1409,l),
(44,0,l),
(982,0,l)
);
}
);
width = 1139;
},
{
layerId = "8B25E0A0-F27A-4A76-9983-E40B0C67E833";
shapes = (
{
closed = 1;
nodes = (
(951,132,l),
(254,132,l),
(502,1409,l),
(345,1409,l),
(72,0,l),
(926,0,l)
);
}
);
width = 1102;
}
);
unicode = 76;
}
{
glyphname = Q;
layers = (
{
layerId = "2D57F921-1619-4848-A780-0286F5C5F7A5";
shapes = (
{
closed = 1;
nodes = (
(423,1430,o),
(99,1057,o),
(99,573,cs),
(99,280,o),
(267,60,o),
(548,-4,c),
(563,-141,o),
(612,-243,o),
(694,-309,cs),
(777,-376,o),
(894,-409,o),
(1046,-409,cs),
(1113,-409,o),
(1169,-400,o),
(1215,-382,c),
(1278,-146,l),
(1224,-156,o),
(1168,-161,o),
(1110,-161,cs),
(1055,-161,o),
(1013,-148,o),
(985,-124,cs),
(957,-100,o),
(936,-60,o),
(922,-5,c),
(1351,71,o),
(1601,433,o),
(1601,851,cs),
(1601,1233,o),
(1269,1430,o),
(928,1430,cs)
);
},
{
closed = 1;
nodes = (
(1116,1144,o),
(1201,1005,o),
(1201,814,cs),
(1201,532,o),
(1072,264,o),
(763,264,cs),
(559,264,o),
(472,402,o),
(472,593,cs),
(472,875,o),
(602,1144,o),
(911,1144,cs)
);
}
);
width = 1593;
},
{
layerId = "7F330584-10E9-4267-8E26-4D2DDDC504D5";
shapes = (
{
closed = 1;
nodes = (
(424,1430,o),
(100,1055,o),
(100,573,cs),
(100,259,o),
(277,44,o),
(579,-9,c),
(594,-144,o),
(638,-243,o),
(710,-306,cs),
(784,-370,o),
(887,-402,o),
(1021,-402,cs),
(1087,-402,o),
(1143,-393,o),
(1190,-376,c),
(1238,-175,l),
(1188,-185,o),
(1137,-190,o),
(1085,-190,cs),
(1027,-190,o),
(982,-175,o),
(952,-146,cs),
(922,-118,o),
(901,-71,o),
(888,-7,c),
(1377,72,o),
(1562,392,o),
(1562,851,cs),
(1562,1241,o),
(1285,1430,o),
(928,1430,cs)
);
},
{
closed = 1;
nodes = (
(1143,1189,o),
(1247,1043,o),
(1247,825,cs),
(1247,503,o),
(1088,220,o),
(744,220,cs),
(515,220,o),
(410,364,o),
(410,583,cs),
(410,904,o),
(571,1189,o),
(914,1189,cs)
);
}
);
width = 1593;
},
{
layerId = "70541219-6074-4DB1-927E-09A6A4A4AC13";
shapes = (
{
closed = 1;
nodes = (
(425,1430,o),
(100,1054,o),
(100,573,cs),
(100,235,o),
(296,13,o),
(625,-15,c),
(640,-148,o),
(677,-244,o),
(735,-302,cs),
(793,-361,o),
(876,-390,o),
(985,-390,cs),
(1048,-390,o),
(1104,-383,o),
(1154,-368,c),
(1178,-219,l),
(1135,-227,o),
(1092,-232,o),
(1049,-232,cs),
(984,-232,o),
(935,-214,o),
(903,-179,cs),
(871,-144,o),
(848,-88,o),
(836,-11,c),
(1313,55,o),
(1529,401,o),
(1534,851,cs),
(1537,1226,o),
(1278,1430,o),
(928,1430,cs)
);
},
{
closed = 1;
nodes = (
(1181,1257,o),
(1315,1100,o),
(1315,843,cs),
(1315,461,o),
(1114,154,o),
(716,154,cs),
(449,154,o),
(318,306,o),
(318,567,cs),
(318,947,o),
(522,1257,o),
(918,1257,cs)
);
}
);
width = 1593;
},
{
layerId = "D7EC7508-C152-41F5-B530-A2FB36F9EC58";
shapes = (
{
closed = 1;
nodes = (
(426,1430,o),
(101,1052,o),
(101,573,cs),
(101,211,o),
(307,-4,o),
(656,-20,c),
(671,-151,o),
(703,-244,o),
(751,-299,cs),
(800,-355,o),
(869,-383,o),
(960,-383,cs),
(1022,-383,o),
(1078,-376,o),
(1129,-362,c),
(1138,-248,l),
(1099,-256,o),
(1061,-261,o),
(1024,-261,cs),
(956,-261,o),
(904,-241,o),
(870,-201,cs),
(836,-162,o),
(813,-99,o),
(802,-13,c),
(1277,42,o),
(1508,407,o),
(1515,851,c),
(1515,1217,o),
(1279,1430,o),
(928,1430,c)
);
},
{
closed = 1;
nodes = (
(1207,1302,o),
(1361,1137,o),
(1361,854,cs),
(1361,433,o),
(1129,110,o),
(697,110,cs),
(406,110,o),
(256,269,o),
(256,557,cs),
(256,975,o),
(492,1302,o),
(921,1302,cs)
);
}
);
width = 1593;
}
);
unicode = 81;
}
{
glyphname = S;
layers = (
{
layerId = "2D57F921-1619-4848-A780-0286F5C5F7A5";
shapes = (
{
closed = 1;
nodes = (
(805,-20,o),
(964,18,o),
(1086,95,cs),
(1204,169,o),
(1259,285,o),
(1259,433,cs),
(1259,595,o),
(1205,701,o),
(1094,766,cs),
(1041,797,o),
(947,832,o),
(814,868,cs),
(771,880,o),
(734,891,o),
(705,900,cs),
(676,909,o),
(654,918,o),
(639,926,c),
(609,940,o),
(586,957,o),
(568,977,cs),
(551,997,o),
(542,1019,o),
(542,1045,cs),
(542,1082,o),
(561,1114,o),
(598,1139,cs),
(635,1165,o),
(680,1177,o),
(734,1177,cs),
(802,1177,o),
(857,1159,o),
(901,1122,cs),
(944,1084,o),
(971,1039,o),
(981,986,c),
(1346,1064,l),
(1324,1183,o),
(1263,1274,o),
(1162,1336,cs),
(1061,1399,o),
(927,1430,o),
(761,1430,cs),
(647,1430,o),
(547,1413,o),
(460,1379,cs),
(374,1346,o),
(306,1299,o),
(258,1239,cs),
(209,1179,o),
(185,1111,o),
(185,1034,cs),
(185,955,o),
(201,888,o),
(234,833,cs),
(267,779,o),
(314,734,o),
(374,697,cs),
(434,661,o),
(528,626,o),
(657,592,c),
(718,578,o),
(768,563,o),
(807,546,c),
(884,515,o),
(907,482,o),
(907,403,cs),
(907,352,o),
(882,313,o),
(831,287,cs),
(781,261,o),
(708,249,o),
(613,249,cs),
(539,249,o),
(482,264,o),
(443,295,cs),
(403,326,o),
(378,374,o),
(367,440,c),
(3,383,l),
(19,246,o),
(74,144,o),
(169,79,cs),
(263,13,o),
(403,-20,o),
(589,-20,cs)
);
}
);
width = 1366;
},
{
layerId = "7F330584-10E9-4267-8E26-4D2DDDC504D5";
shapes = (
{
closed = 1;
nodes = (
(813,-20,o),
(976,18,o),
(1088,94,cs),
(1199,170,o),
(1254,280,o),
(1254,424,cs),
(1254,586,o),
(1188,691,o),
(1047,763,cs),
(996,789,o),
(915,818,o),
(805,848,cs),
(757,861,o),
(716,873,o),
(684,884,cs),
(652,894,o),
(627,904,o),
(611,912,cs),
(578,928,o),
(553,947,o),
(535,969,cs),
(518,990,o),
(509,1016,o),
(509,1047,cs),
(509,1098,o),
(533,1139,o),
(579,1169,cs),
(624,1200,o),
(686,1214,o),
(764,1214,cs),
(842,1214,o),
(904,1197,o),
(953,1161,cs),
(1001,1125,o),
(1032,1077,o),
(1046,1019,c),
(1345,1087,l),
(1323,1199,o),
(1264,1284,o),
(1167,1342,cs),
(1070,1401,o),
(942,1430,o),
(783,1430,cs),
(668,1430,o),
(568,1414,o),
(481,1380,cs),
(395,1348,o),
(328,1302,o),
(281,1243,cs),
(233,1183,o),
(209,1115,o),
(209,1036,cs),
(209,962,o),
(224,899,o),
(256,847,cs),
(288,796,o),
(333,752,o),
(392,716,cs),
(451,681,o),
(542,647,o),
(666,614,cs),
(725,599,o),
(775,585,o),
(814,569,c),
(899,537,o),
(956,497,o),
(956,401,cs),
(956,336,o),
(928,288,o),
(872,256,cs),
(816,224,o),
(731,208,o),
(619,208,cs),
(529,208,o),
(460,225,o),
(413,258,cs),
(365,292,o),
(335,345,o),
(322,418,c),
(22,368,l),
(40,236,o),
(96,138,o),
(190,76,cs),
(283,12,o),
(419,-20,o),
(598,-20,cs)
);
}
);
width = 1366;
},
{
layerId = "70541219-6074-4DB1-927E-09A6A4A4AC13";
shapes = (
{
closed = 1;
nodes = (
(826,-20,o),
(985,17,o),
(1090,91,cs),
(1196,166,o),
(1248,273,o),
(1248,412,cs),
(1248,600,o),
(1135,694,o),
(977,758,cs),
(930,778,o),
(868,798,o),
(793,818,cs),
(737,833,o),
(690,847,o),
(653,859,cs),
(615,872,o),
(588,883,o),
(569,892,cs),
(531,911,o),
(505,932,o),
(487,956,c),
(470,981,o),
(461,1011,o),
(461,1049,cs),
(461,1122,o),
(490,1177,o),
(549,1214,cs),
(609,1251,o),
(695,1270,o),
(810,1270,cs),
(902,1270,o),
(976,1253,o),
(1031,1220,c),
(1085,1185,o),
(1123,1135,o),
(1144,1067,c),
(1345,1123,l),
(1322,1222,o),
(1265,1299,o),
(1175,1351,cs),
(1085,1404,o),
(964,1430,o),
(815,1430,cs),
(699,1430,o),
(598,1414,o),
(513,1383,cs),
(428,1352,o),
(362,1307,o),
(315,1248,cs),
(268,1190,o),
(245,1121,o),
(245,1040,cs),
(245,973,o),
(260,915,o),
(289,867,cs),
(318,820,o),
(363,780,o),
(420,746,cs),
(478,712,o),
(564,679,o),
(678,648,cs),
(737,632,o),
(785,617,o),
(825,603,cs),
(935,567,o),
(1030,525,o),
(1030,397,cs),
(1030,313,o),
(998,250,o),
(932,208,cs),
(868,167,o),
(766,148,o),
(627,148,cs),
(513,148,o),
(426,166,o),
(368,204,cs),
(309,241,o),
(271,301,o),
(254,384,c),
(50,344,l),
(72,222,o),
(128,130,o),
(221,70,cs),
(313,10,o),
(443,-20,o),
(612,-20,cs)
);
}
);
width = 1366;
},
{
layerId = "D7EC7508-C152-41F5-B530-A2FB36F9EC58";
shapes = (
{
closed = 1;
nodes = (
(834,-20,o),
(991,17,o),
(1092,90,cs),
(1193,164,o),
(1243,268,o),
(1243,403,cs),
(1243,614,o),
(1106,700,o),
(930,755,cs),
(885,770,o),
(836,784,o),
(784,798,cs),
(723,814,o),
(672,829,o),
(632,843,cs),
(591,857,o),
(561,869,o),
(541,878,c),
(500,899,o),
(472,922,o),
(454,948,cs),
(437,974,o),
(428,1008,o),
(428,1051,cs),
(428,1138,o),
(462,1202,o),
(530,1244,cs),
(598,1286,o),
(701,1307,o),
(840,1307,cs),
(942,1307,o),
(1023,1291,o),
(1083,1259,cs),
(1142,1226,o),
(1184,1173,o),
(1209,1100,c),
(1344,1146,l),
(1321,1238,o),
(1266,1309,o),
(1180,1357,cs),
(1094,1406,o),
(979,1430,o),
(837,1430,cs),
(720,1430,o),
(619,1415,o),
(534,1384,cs),
(449,1354,o),
(384,1310,o),
(338,1252,cs),
(292,1194,o),
(269,1125,o),
(269,1042,cs),
(269,980,o),
(283,926,o),
(311,881,cs),
(339,837,o),
(382,798,o),
(438,765,cs),
(495,732,o),
(578,700,o),
(687,670,cs),
(744,653,o),
(792,639,o),
(832,626,cs),
(963,587,o),
(1079,550,o),
(1079,395,cs),
(1079,297,o),
(1044,225,o),
(973,177,cs),
(903,130,o),
(789,107,o),
(633,107,cs),
(503,107,o),
(404,127,o),
(338,167,cs),
(271,207,o),
(228,272,o),
(209,362,c),
(69,329,l),
(93,212,o),
(150,124,o),
(242,67,cs),
(333,9,o),
(459,-20,o),
(621,-20,c)
);
}
);
width = 1366;
}
);
unicode = 83;
}
{
glyphname = V;
layers = (
{
layerId = "4BF4B489-BD31-44B3-B107-FC4282D889AB";
shapes = (
{
closed = 1;
nodes = (
(1498,1409,l),
(1123,1409,l),
(655,397,l),
(654,390,o),
(651,378,o),
(644,359,cs),
(637,341,o),
(628,316,o),
(617,285,c),
(618,323,o),
(617,365,o),
(615,412,cs),
(613,459,o),
(609,509,o),
(604,562,c),
(546,1409,l),
(167,1409,l),
(344,0,l),
(777,0,l)
);
}
);
width = 1366;
},
{
layerId = "86356D96-A9F7-466C-8338-FA4F598E1FDA";
shapes = (
{
closed = 1;
nodes = (
(1507,1409,l),
(1189,1409,l),
(683,404,l),
(675,385,o),
(665,363,o),
(653,336,cs),
(641,310,o),
(627,279,o),
(612,245,c),
(611,284,o),
(608,326,o),
(605,371,cs),
(602,416,o),
(597,463,o),
(592,512,cs),
(486,1409,l),
(170,1409,l),
(390,0,l),
(743,0,l)
);
}
);
width = 1366;
},
{
layerId = "55E58B27-7540-477B-A952-538A3E316EF2";
shapes = (
{
closed = 1;
nodes = (
(1521,1409,l),
(1289,1409,l),
(725,414,l),
(706,378,o),
(687,341,o),
(667,302,c),
(646,264,o),
(627,225,o),
(606,185,c),
(601,226,o),
(596,267,o),
(591,310,cs),
(586,353,o),
(580,395,o),
(574,438,c),
(396,1409,l),
(176,1409,l),
(460,0,l),
(691,0,l)
);
}
);
width = 1366;
},
{
layerId = "79976DCB-F9F8-4AE0-A082-2E792CAF2855";
shapes = (
{
closed = 1;
nodes = (
(1530,1409,l),
(1355,1409,l),
(753,421,l),
(727,373,o),
(701,326,o),
(676,279,cs),
(650,233,o),
(626,188,o),
(601,145,c),
(594,187,o),
(587,228,o),
(581,269,cs),
(575,310,o),
(568,349,o),
(562,388,c),
(336,1409,l),
(179,1409,l),
(506,0,l),
(657,0,l)
);
}
);
width = 1366;
}
);
unicode = 86;
}
{
glyphname = W;
layers = (
{
layerId = "F22D2CAB-3A7F-49A1-9202-DC9343798BDC";
shapes = (
{
closed = 1;
nodes = (
(973,865,l),
(978,882,o),
(985,905,o),
(995,935,cs),
(1005,965,o),
(1018,1003,o),
(1034,1047,c),
(1036,974,o),
(1037,913,o),
(1036,864,cs),
(1032,756,l),
(1029,0,l),
(1464,0,l),
(2069,1409,l),
(1718,1409,l),
(1389,497,l),
(1366,439,o),
(1349,393,o),
(1336,359,cs),
(1324,325,o),
(1318,306,o),
(1320,302,c),
(1317,339,o),
(1315,380,o),
(1314,424,cs),
(1313,468,o),
(1313,515,o),
(1313,565,cs),
(1311,1409,l),
(906,1409,l),
(610,649,ls),
(585,583,o),
(561,521,o),
(538,464,cs),
(515,406,o),
(495,352,o),
(476,302,c),
(477,358,o),
(477,415,o),
(477,473,cs),
(477,530,o),
(476,588,o),
(475,648,cs),
(468,1409,l),
(132,1409,l),
(185,0,l),
(629,0,l)
);
}
);
width = 1933;
},
{
layerId = "540001E1-6881-4DFA-ACAC-B89E119E0EAF";
shapes = (
{
closed = 1;
nodes = (
(969,875,l),
(979,901,o),
(991,932,o),
(1005,970,cs),
(1019,1008,o),
(1036,1054,o),
(1055,1106,c),
(1057,1052,o),
(1058,1000,o),
(1058,949,cs),
(1059,803,l),
(1082,0,l),
(1444,0,l),
(2078,1409,l),
(1778,1409,l),
(1397,459,ls),
(1378,414,o),
(1363,374,o),
(1350,340,cs),
(1337,306,o),
(1327,278,o),
(1319,256,c),
(1317,304,o),
(1315,354,o),
(1313,403,cs),
(1312,453,o),
(1310,503,o),
(1309,554,cs),
(1282,1409,l),
(953,1409,l),
(607,588,ls),
(584,531,o),
(562,475,o),
(539,421,c),
(517,365,o),
(495,311,o),
(474,256,c),
(474,315,o),
(473,373,o),
(472,431,cs),
(471,488,o),
(469,545,o),
(468,602,cs),
(436,1409,l),
(147,1409,l),
(231,0,l),
(599,0,l)
);
}
);
width = 1933;
},
{
layerId = "85C7CFC8-DA24-401F-A421-248411B25E5A";
shapes = (
{
closed = 1;
nodes = (
(963,891,ls),
(980,928,o),
(999,973,o),
(1020,1023,cs),
(1041,1074,o),
(1063,1131,o),
(1087,1194,c),
(1088,1170,o),
(1090,1130,o),
(1092,1077,cs),
(1101,875,l),
(1160,0,l),
(1414,0,l),
(2090,1409,l),
(1868,1409,l),
(1409,403,ls),
(1397,375,o),
(1384,344,o),
(1370,310,c),
(1358,276,o),
(1339,235,o),
(1319,188,c),
(1317,253,o),
(1316,314,o),
(1313,373,cs),
(1310,431,o),
(1307,486,o),
(1303,536,cs),
(1238,1409,l),
(1023,1409,l),
(601,496,l),
(583,454,o),
(563,407,o),
(541,356,cs),
(519,305,o),
(496,248,o),
(470,188,c),
(469,249,o),
(467,310,o),
(465,368,cs),
(463,426,o),
(460,481,o),
(456,534,cs),
(388,1409,l),
(171,1409,l),
(299,0,l),
(555,0,l)
);
}
);
width = 1933;
},
{
layerId = "9CB70E7F-BC76-4DD2-ACFF-26AC98198772";
shapes = (
{
closed = 1;
nodes = (
(959,901,ls),
(981,947,o),
(1005,1000,o),
(1030,1058,cs),
(1055,1117,o),
(1081,1182,o),
(1108,1253,c),
(1109,1248,o),
(1111,1217,o),
(1114,1162,cs),
(1128,922,l),
(1213,0,l),
(1394,0,l),
(2099,1409,l),
(1928,1409,l),
(1417,365,l),
(1409,350,o),
(1398,325,o),
(1384,291,cs),
(1371,257,o),
(1348,207,o),
(1318,142,c),
(1317,218,o),
(1316,288,o),
(1312,352,cs),
(1309,416,o),
(1304,474,o),
(1299,525,cs),
(1209,1409,l),
(1070,1409,l),
(598,435,ls),
(582,402,o),
(564,361,o),
(542,313,cs),
(521,264,o),
(496,207,o),
(468,142,c),
(466,206,o),
(463,268,o),
(460,326,cs),
(457,384,o),
(453,438,o),
(449,488,c),
(356,1409,l),
(186,1409,l),
(345,0,l),
(525,0,l)
);
}
);
width = 1933;
}
);
unicode = 87;
}
{
glyphname = X;
layers = (
{
layerId = "4BF4B489-BD31-44B3-B107-FC4282D889AB";
shapes = (
{
closed = 1;
nodes = (
(880,0,l),
(1260,0,l),
(893,731,l),
(1493,1409,l),
(1112,1409,l),
(759,992,l),
(566,1409,l),
(183,1409,l),
(520,729,l),
(-131,0,l),
(252,0,l),
(661,482,l)
);
}
);
width = 1366;
},
{
layerId = "86356D96-A9F7-466C-8338-FA4F598E1FDA";
shapes = (
{
closed = 1;
nodes = (
(921,0,l),
(1239,0,l),
(871,732,l),
(1471,1409,l),
(1149,1409,l),
(754,946,l),
(535,1409,l),
(214,1409,l),
(553,735,l),
(-100,0,l),
(225,0,l),
(673,524,l)
);
}
);
width = 1366;
},
{
layerId = "55E58B27-7540-477B-A952-538A3E316EF2";
shapes = (
{
closed = 1;
nodes = (
(981,0,l),
(1207,0,l),
(839,732,l),
(1439,1409,l),
(1203,1409,l),
(746,878,l),
(487,1409,l),
(262,1409,l),
(601,743,l),
(-52,0,l),
(183,0,l),
(691,588,l)
);
}
);
width = 1366;
},
{
layerId = "79976DCB-F9F8-4AE0-A082-2E792CAF2855";
shapes = (
{
closed = 1;
nodes = (
(1022,0,l),
(1186,0,l),
(817,733,l),
(1417,1409,l),
(1240,1409,l),
(741,832,l),
(456,1409,l),
(293,1409,l),
(634,749,l),
(-21,0,l),
(156,0,l),
(703,630,l)
);
}
);
width = 1366;
}
);
unicode = 88;
}
{
glyphname = Y;
layers = (
{
layerId = "2D57F921-1619-4848-A780-0286F5C5F7A5";
shapes = (
{
closed = 1;
nodes = (
(870,574,l),
(1541,1409,l),
(1145,1409,l),
(728,850,l),
(501,1409,l),
(145,1409,l),
(505,574,l),
(395,0,l),
(759,0,l)
);
}
);
width = 1366;
},
{
layerId = "7F330584-10E9-4267-8E26-4D2DDDC504D5";
shapes = (
{
closed = 1;
nodes = (
(841,577,l),
(1523,1409,l),
(1190,1409,l),
(723,811,l),
(470,1409,l),
(168,1409,l),
(536,577,l),
(425,0,l),
(729,0,l)
);
}
);
width = 1366;
},
{
layerId = "70541219-6074-4DB1-927E-09A6A4A4AC13";
shapes = (
{
closed = 1;
nodes = (
(797,583,l),
(1497,1409,l),
(1256,1409,l),
(717,751,l),
(422,1409,l),
(204,1409,l),
(584,583,l),
(469,0,l),
(685,0,l)
);
}
);
width = 1366;
},
{
layerId = "D7EC7508-C152-41F5-B530-A2FB36F9EC58";
shapes = (
{
closed = 1;
nodes = (
(768,586,l),
(1479,1409,l),
(1301,1409,l),
(712,712,l),
(391,1409,l),
(227,1409,l),
(615,586,l),
(499,0,l),
(655,0,l)
);
}
);
width = 1366;
}
);
unicode = 89;
}
{
glyphname = bracketleft;
layers = (
{
layerId = "2D57F921-1619-4848-A780-0286F5C5F7A5";
shapes = (
{
closed = 1;
nodes = (
(612,-192,l),
(308,-192,l),
(589,1253,l),
(893,1253,l),
(938,1484,l),
(306,1484,l),
(-64,-425,l),
(567,-425,l)
);
}
);
width = 757;
},
{
layerId = "7F330584-10E9-4267-8E26-4D2DDDC504D5";
shapes = (
{
closed = 1;
nodes = (
(532,-227,l),
(252,-227,l),
(547,1288,l),
(826,1288,l),
(864,1484,l),
(310,1484,l),
(-60,-425,l),
(493,-425,l)
);
}
);
width = 682;
},
{
layerId = "70541219-6074-4DB1-927E-09A6A4A4AC13";
shapes = (
{
closed = 1;
nodes = (
(410,-281,l),
(168,-281,l),
(483,1340,l),
(726,1340,l),
(754,1484,l),
(314,1484,l),
(-56,-425,l),
(383,-425,l)
);
}
);
width = 569;
},
{
layerId = "D7EC7508-C152-41F5-B530-A2FB36F9EC58";
shapes = (
{
closed = 1;
nodes = (
(348,-316,l),
(130,-316,l),
(459,1375,l),
(677,1375,l),
(698,1484,l),
(336,1484,l),
(-34,-425,l),
(327,-425,l)
);
}
);
width = 531;
}
);
unicode = 91;
}
{
glyphname = backslash;
layers = (
{
layerId = "785665E2-8136-4865-9B7E-748FCB278F4B";
shapes = (
{
closed = 1;
nodes = (
(386,1486,l),
(88,1486,l),
(268,-55,l),
(572,-55,l)
);
}
);
width = 569;
},
{
layerId = "C6FD8471-1839-414E-9C91-DDB255379DAE";
shapes = (
{
closed = 1;
nodes = (
(355,1485,l),
(108,1485,l),
(286,-43,l),
(538,-43,l)
);
}
);
width = 569;
},
{
layerId = "341BCE00-9002-445C-A6C9-0431889C03AA";
shapes = (
{
closed = 1;
nodes = (
(307,1485,l),
(138,1485,l),
(312,-25,l),
(486,-25,l)
);
}
);
width = 569;
},
{
layerId = "42616347-C5BD-494A-B849-B08086064D93";
shapes = (
{
closed = 1;
nodes = (
(276,1484,l),
(158,1484,l),
(330,-13,l),
(452,-13,l)
);
}
);
width = 569;
}
);
unicode = 92;
}
{
glyphname = bracketright;
layers = (
{
layerId = "785665E2-8136-4865-9B7E-748FCB278F4B";
shapes = (
{
closed = 1;
nodes = (
(825,1484,l),
(193,1484,l),
(148,1253,l),
(456,1253,l),
(175,-192,l),
(-132,-192,l),
(-177,-425,l),
(454,-425,l)
);
}
);
width = 757;
},
{
layerId = "C6FD8471-1839-414E-9C91-DDB255379DAE";
shapes = (
{
closed = 1;
nodes = (
(746,1484,l),
(191,1484,l),
(153,1288,l),
(435,1288,l),
(140,-227,l),
(-141,-227,l),
(-179,-425,l),
(375,-425,l)
);
}
);
width = 682;
},
{
layerId = "341BCE00-9002-445C-A6C9-0431889C03AA";
shapes = (
{
closed = 1;
nodes = (
(626,1484,l),
(187,1484,l),
(159,1340,l),
(403,1340,l),
(88,-281,l),
(-155,-281,l),
(-183,-425,l),
(255,-425,l)
);
}
);
width = 569;
},
{
layerId = "42616347-C5BD-494A-B849-B08086064D93";
shapes = (
{
closed = 1;
nodes = (
(565,1484,l),
(203,1484,l),
(182,1375,l),
(400,1375,l),
(71,-316,l),
(-146,-316,l),
(-167,-425,l),
(194,-425,l)
);
}
);
width = 531;
}
);
unicode = 93;
}
{
glyphname = asciicircum;
layers = (
{
layerId = "31C81AF0-C452-43E7-8668-722D0E517E96";
shapes = (
{
closed = 1;
nodes = (
(722,1239,l),
(1059,407,l),
(1332,407,l),
(923,1409,l),
(522,1409,l),
(115,407,l),
(386,407,l)
);
}
);
width = 1353;
},
{
layerId = "42D11CF2-4BFF-4A3C-B658-4C314917569F";
shapes = (
{
closed = 1;
nodes = (
(637,1262,l),
(964,498,l),
(1200,498,l),
(804,1409,l),
(471,1409,l),
(77,498,l),
(311,498,l)
);
}
);
width = 1196;
},
{
layerId = "D06BE3A0-2FE9-4743-9DA4-DC1042F849F0";
shapes = (
{
closed = 1;
nodes = (
(511,1296,l),
(824,634,l),
(1004,634,l),
(628,1409,l),
(397,1409,l),
(23,634,l),
(201,634,l)
);
}
);
width = 961;
},
{
layerId = "8B25E0A0-F27A-4A76-9983-E40B0C67E833";
shapes = (
{
closed = 1;
nodes = (
(466,1319,l),
(769,725,l),
(912,725,l),
(549,1409,l),
(386,1409,l),
(25,725,l),
(166,725,l)
);
}
);
width = 883;
}
);
unicode = 94;
}
{
glyphname = underscore;
layers = (
{
layerId = "2D57F921-1619-4848-A780-0286F5C5F7A5";
shapes = (
{
closed = 1;
nodes = (
(1083,-171,l),
(-93,-171,l),
(-93,-250,l),
(1083,-250,l)
);
}
);
width = 1139;
},
{
layerId = "7F330584-10E9-4267-8E26-4D2DDDC504D5";
shapes = (
{
closed = 1;
nodes = (
(1061,-172,l),
(-116,-172,l),
(-116,-250,l),
(1061,-250,l)
);
}
);
width = 1139;
},
{
layerId = "70541219-6074-4DB1-927E-09A6A4A4AC13";
shapes = (
{
closed = 1;
nodes = (
(1027,-174,l),
(-150,-174,l),
(-150,-250,l),
(1027,-250,l)
);
}
);
width = 1139;
},
{
layerId = "D7EC7508-C152-41F5-B530-A2FB36F9EC58";
shapes = (
{
closed = 1;
nodes = (
(1005,-175,l),
(-173,-175,l),
(-173,-250,l),
(1005,-250,l)
);
}
);
width = 1139;
}
);
unicode = 95;
}
{
glyphname = grave;
layers = (
{
layerId = "826E86D0-E588-4774-9A02-039E3F74D6B5";
shapes = (
{
closed = 1;
nodes = (
(915,1209,l),
(698,1498,l),
(406,1498,l),
(396,1446,l),
(719,1171,l),
(907,1171,l)
);
}
);
width = 682;
},
{
layerId = "CCC0E55B-A8B0-4BE5-BCFE-654143F4C169";
shapes = (
{
closed = 1;
nodes = (
(774,1213,l),
(576,1501,l),
(313,1501,l),
(305,1457,l),
(614,1181,l),
(768,1181,l)
);
}
);
width = 682;
},
{
layerId = "BA5C3EFA-52F0-4978-BF26-13A2AC8190BC";
shapes = (
{
closed = 1;
nodes = (
(562,1219,l),
(394,1507,l),
(175,1507,l),
(169,1475,l),
(456,1197,l),
(558,1197,l)
);
}
);
width = 682;
},
{
layerId = "344EAA8B-658C-4164-B741-D5EC6A8B0AA2";
shapes = (
{
closed = 1;
nodes = (
(421,1223,l),
(272,1510,l),
(82,1510,l),
(78,1486,l),
(351,1207,l),
(419,1207,l)
);
}
);
width = 682;
}
);
unicode = 96;
}
{
glyphname = a;
rightMetricsKey = "=-34";
widthMetricsKey = "=1139";
layers = (
{
layerId = "31C81AF0-C452-43E7-8668-722D0E517E96";
shapes = (
{
closed = 1;
nodes = (
(486.25,-21,o),
(529.51,5,o),
(674.74,207,c),
(685.04,207,l),
(679.89,185,o),
(677.83,164,o),
(676.8,143,cs),
(669.59,13,o),
(813.79,-10,o),
(898.25,-10,cs),
(952.84,-10,o),
(1006.4,-8,o),
(1063.05,19,c),
(1087.77,205,l),
(1056.87,195,o),
(1037.3,193,o),
(1020.82,193,cs),
(990.95,193,o),
(964.17,205,o),
(966.23,252,cs),
(967.26,274,o),
(971.38,294,o),
(975.5,314,cs),
(1143.39,1082,l),
(821,1082,l),
(802.46,1024,o),
(793.19,965,o),
(785.98,905,c),
(777.74,905,l),
(751.99,1060,o),
(662.38,1103,o),
(530.54,1103,cs),
(201.97,1103,o),
(42.32,679,o),
(24.81,368,cs),
(12.45,160,o),
(101.03,-21,o),
(302.91,-21,cs)
);
},
{
closed = 1;
nodes = (
(373.98,208,o),
(363.68,321,o),
(368.83,412,cs),
(378.1,572,o),
(440.93,871,o),
(611.91,871,cs),
(720.06,871,o),
(730.36,781,o),
(724.18,666,cs),
(713.88,493,o),
(644.87,208,o),
(464.62,208,cs)
);
}
);
width = 1139;
},
{
layerId = "42D11CF2-4BFF-4A3C-B658-4C314917569F";
shapes = (
{
closed = 1;
nodes = (
(509.036,-21,o),
(570.116,14,o),
(699.402,194,c),
(708.564,194,l),
(704.492,174,o),
(703.474,156,o),
(703.474,138,cs),
(700.42,17,o),
(815.454,-10,o),
(908.092,-10,cs),
(956.956,-10,o),
(1005.82,-7,o),
(1056.72,15,c),
(1078.098,176,l),
(1050.612,167,o),
(1031.27,165,o),
(1013.964,165,cs),
(978.334,165,o),
(949.83,180,o),
(951.866,229,c),
(951.866,253,o),
(955.938,276,o),
(961.028,300,cs),
(1125.944,1082,l),
(855.156,1082,l),
(839.886,1023,o),
(829.706,964,o),
(821.562,904,c),
(814.436,904,l),
(781.86,1055,o),
(684.132,1102,o),
(549.756,1102,cs),
(197.528,1102,o),
(55.008,674,o),
(42.792,356,c),
(33.63,147,o),
(129.322,-21,o),
(334.958,-21,cs)
);
},
{
closed = 1;
nodes = (
(346.156,177,o),
(325.796,289,o),
(329.868,396,cs),
(335.976,578,o),
(399.092,904,o),
(607.782,904,cs),
(731.978,904,o),
(766.59,807,o),
(761.5,679,cs),
(754.374,481,o),
(677.006,177,o),
(457.118,177,cs)
);
}
);
width = 1139;
},
{
layerId = "D06BE3A0-2FE9-4743-9DA4-DC1042F849F0";
shapes = (
{
closed = 1;
nodes = (
(543,-21,o),
(630,28,o),
(736,174,c),
(743,174,l),
(741,158,o),
(741,144,o),
(742,130,c),
(745,24,o),
(819,-10,o),
(922,-10,cs),
(964,-10,o),
(1006,-5,o),
(1048,8,c),
(1065,132,l),
(1042,125,o),
(1023,123,o),
(1004,123,cs),
(960,123,o),
(930,142,o),
(930,194,c),
(930,222,o),
(934,250,o),
(940,278,cs),
(1101,1082,l),
(906,1082,l),
(894,1022,o),
(883,963,o),
(873,903,c),
(867,903,l),
(825,1047,o),
(717,1101,o),
(579,1101,cs),
(191,1101,o),
(73,666,o),
(69,338,cs),
(65,128,o),
(170,-21,o),
(382,-21,cs)
);
},
{
closed = 1;
nodes = (
(305,131,o),
(271,242,o),
(273,372,cs),
(275,586,o),
(339,954,o),
(601,954,cs),
(750,954,o),
(819,847,o),
(817,699,cs),
(814,463,o),
(723,131,o),
(447,131,cs)
);
}
);
width = 1139;
},
{
layerId = "8B25E0A0-F27A-4A76-9983-E40B0C67E833";
shapes = (
{
closed = 1;
nodes = (
(571,-21,o),
(675,38,o),
(768,160,c),
(773,160,l),
(773,147,o),
(773,136,o),
(774,125,cs),
(782,28,o),
(829,-10,o),
(940,-10,cs),
(978,-10,o),
(1016,-3,o),
(1053,4,c),
(1067,102,l),
(1048,97,o),
(1028,95,o),
(1008,95,cs),
(958,95,o),
(926,117,o),
(926,170,cs),
(926,202,o),
(930,232,o),
(936,264,cs),
(1096,1082,l),
(948,1082,l),
(938,1022,o),
(927,963,o),
(916,903,c),
(911,903,l),
(861,1042,o),
(745,1101,o),
(603,1101,cs),
(188,1101,o),
(85,660,o),
(85,326,cs),
(85,115,o),
(198,-21,o),
(416,-21,cs)
);
},
{
closed = 1;
nodes = (
(281,100,o),
(237,210,o),
(237,356,cs),
(237,592,o),
(302,987,o),
(603,987,cs),
(770,987,o),
(861,873,o),
(861,712,cs),
(861,451,o),
(761,100,o),
(445,100,cs)
);
}
);
width = 1139;
}
);
unicode = 97;
}
{
glyphname = b;
layers = (
{
layerId = "826E86D0-E588-4774-9A02-039E3F74D6B5";
shapes = (
{
closed = 1;
nodes = (
(848,1102,o),
(775,1082,o),
(712,1043,cs),
(648,1004,o),
(602,959,o),
(572,908,c),
(568,908,l),
(573,931,o),
(578,955,o),
(583,980,cs),
(587,1004,o),
(593,1029,o),
(599,1054,c),
(683,1484,l),
(335,1484,l),
(88,223,ls),
(79,174,o),
(70,127,o),
(59,82,cs),
(49,37,o),
(42,10,o),
(39,0,c),
(376,0,l),
(381,18,o),
(385,33,o),
(390,44,c),
(394,56,o),
(397,65,o),
(400,72,c),
(402,80,o),
(405,92,o),
(410,107,c),
(414,123,o),
(420,146,o),
(427,178,c),
(430,178,l),
(451,115,o),
(488,67,o),
(540,32,cs),
(592,-3,o),
(660,-20,o),
(744,-20,cs),
(860,-20,o),
(956,10,o),
(1032,71,cs),
(1107,131,o),
(1165,226,o),
(1207,355,cs),
(1228,418,o),
(1243,482,o),
(1254,546,cs),
(1264,610,o),
(1270,677,o),
(1270,748,cs),
(1270,858,o),
(1240,944,o),
(1180,1007,cs),
(1120,1070,o),
(1036,1102,o),
(929,1102,cs)
);
},
{
closed = 1;
nodes = (
(822,869,o),
(860,853,o),
(879,821,c),
(897,788,o),
(906,741,o),
(906,679,cs),
(906,653,o),
(903,620,o),
(897,581,cs),
(890,542,o),
(881,502,o),
(870,460,cs),
(859,419,o),
(847,381,o),
(833,346,cs),
(819,311,o),
(804,285,o),
(787,267,c),
(756,231,o),
(712,213,o),
(655,213,cs),
(600,213,o),
(557,231,o),
(526,268,cs),
(495,304,o),
(480,354,o),
(480,417,cs),
(480,446,o),
(485,491,o),
(496,553,cs),
(508,620,o),
(525,675,o),
(545,719,cs),
(564,763,o),
(589,799,o),
(617,826,c),
(658,855,o),
(707,869,o),
(764,869,cs)
);
}
);
width = 1326;
},
{
layerId = "CCC0E55B-A8B0-4BE5-BCFE-654143F4C169";
shapes = (
{
closed = 1;
nodes = (
(780,1102,o),
(709,1084,o),
(650,1048,c),
(589,1013,o),
(541,968,o),
(505,913,c),
(501,913,l),
(507,938,o),
(513,964,o),
(518,988,cs),
(523,1012,o),
(528,1035,o),
(533,1056,c),
(616,1484,l),
(326,1484,l),
(80,223,ls),
(70,174,o),
(61,127,o),
(50,82,c),
(41,37,o),
(34,10,o),
(31,0,c),
(312,0,l),
(315,12,o),
(318,24,o),
(323,35,c),
(326,47,o),
(329,58,o),
(333,67,c),
(336,80,o),
(340,95,o),
(345,112,c),
(349,131,o),
(354,152,o),
(360,178,c),
(363,178,l),
(384,115,o),
(421,67,o),
(472,32,cs),
(524,-3,o),
(592,-20,o),
(675,-20,cs),
(791,-20,o),
(886,10,o),
(962,72,cs),
(1037,132,o),
(1095,227,o),
(1136,355,cs),
(1157,418,o),
(1172,482,o),
(1183,547,cs),
(1193,611,o),
(1199,678,o),
(1199,748,cs),
(1199,858,o),
(1169,944,o),
(1110,1007,cs),
(1050,1070,o),
(967,1102,o),
(861,1102,cs)
);
},
{
closed = 1;
nodes = (
(796,901,o),
(838,884,o),
(861,848,cs),
(883,813,o),
(895,760,o),
(895,692,cs),
(895,661,o),
(892,623,o),
(885,580,cs),
(878,538,o),
(869,494,o),
(857,449,cs),
(845,405,o),
(832,364,o),
(816,327,cs),
(801,290,o),
(783,261,o),
(764,240,cs),
(727,199,o),
(676,179,o),
(610,179,cs),
(548,179,o),
(500,198,o),
(465,239,cs),
(430,278,o),
(413,333,o),
(413,403,cs),
(413,440,o),
(418,490,o),
(430,554,cs),
(441,613,o),
(456,664,o),
(474,708,cs),
(492,752,o),
(514,788,o),
(539,817,cs),
(588,874,o),
(653,901,o),
(734,901,cs)
);
}
);
width = 1251;
},
{
layerId = "BA5C3EFA-52F0-4978-BF26-13A2AC8190BC";
shapes = (
{
closed = 1;
nodes = (
(678,1102,o),
(611,1087,o),
(555,1057,cs),
(500,1027,o),
(449,980,o),
(403,919,c),
(399,919,l),
(407,950,o),
(414,976,o),
(420,1000,cs),
(425,1023,o),
(430,1043,o),
(433,1060,cs),
(516,1484,l),
(312,1484,l),
(66,223,ls),
(57,174,o),
(47,127,o),
(37,82,cs),
(27,37,o),
(20,10,o),
(17,0,c),
(214,0,l),
(215,4,o),
(218,11,o),
(221,22,cs),
(224,33,o),
(228,46,o),
(231,61,c),
(236,79,o),
(241,99,o),
(246,121,cs),
(251,142,o),
(255,162,o),
(258,178,c),
(261,178,l),
(282,115,o),
(319,67,o),
(371,32,cs),
(422,-3,o),
(488,-20,o),
(571,-20,cs),
(686,-20,o),
(782,11,o),
(857,72,cs),
(931,134,o),
(989,228,o),
(1030,355,cs),
(1051,418,o),
(1066,483,o),
(1076,548,cs),
(1086,614,o),
(1091,680,o),
(1091,748,cs),
(1091,858,o),
(1062,944,o),
(1003,1007,cs),
(945,1070,o),
(863,1102,o),
(757,1102,cs)
);
},
{
closed = 1;
nodes = (
(756,949,o),
(804,929,o),
(834,890,c),
(863,849,o),
(877,790,o),
(877,710,cs),
(877,672,o),
(874,629,o),
(868,580,cs),
(861,531,o),
(850,482,o),
(837,433,cs),
(825,384,o),
(809,339,o),
(791,298,cs),
(772,257,o),
(752,224,o),
(728,200,c),
(683,152,o),
(621,127,o),
(542,127,cs),
(470,127,o),
(413,150,o),
(372,195,cs),
(331,240,o),
(311,303,o),
(311,383,cs),
(311,432,o),
(318,489,o),
(330,554,cs),
(339,603,o),
(352,649,o),
(368,692,c),
(382,735,o),
(400,773,o),
(421,805,cs),
(483,901,o),
(573,949,o),
(690,949,cs)
);
}
);
width = 1139;
},
{
layerId = "344EAA8B-658C-4164-B741-D5EC6A8B0AA2";
shapes = (
{
closed = 1;
nodes = (
(628,1102,o),
(563,1089,o),
(511,1062,cs),
(459,1036,o),
(406,989,o),
(354,924,c),
(350,924,l),
(359,957,o),
(367,985,o),
(373,1008,cs),
(379,1031,o),
(383,1049,o),
(385,1062,c),
(467,1484,l),
(321,1484,l),
(76,223,l),
(66,174,o),
(56,127,o),
(46,82,cs),
(37,37,o),
(30,10,o),
(27,0,c),
(168,0,l),
(167,-2,o),
(169,2,o),
(172,13,cs),
(174,24,o),
(178,39,o),
(182,56,cs),
(188,79,o),
(194,102,o),
(199,126,cs),
(204,150,o),
(207,168,o),
(209,178,c),
(212,178,l),
(233,115,o),
(270,67,o),
(321,32,cs),
(372,-3,o),
(438,-20,o),
(520,-20,cs),
(635,-20,o),
(730,11,o),
(805,73,cs),
(879,135,o),
(937,229,o),
(977,355,cs),
(998,418,o),
(1013,483,o),
(1023,549,cs),
(1033,615,o),
(1038,681,o),
(1038,748,cs),
(1038,858,o),
(1009,944,o),
(951,1007,cs),
(893,1070,o),
(812,1102,o),
(707,1102,c)
);
},
{
closed = 1;
nodes = (
(748,981,o),
(800,960,o),
(834,917,cs),
(867,874,o),
(884,809,o),
(884,723,cs),
(884,680,o),
(881,632,o),
(874,579,cs),
(867,527,o),
(856,474,o),
(842,422,cs),
(829,370,o),
(812,322,o),
(792,279,cs),
(772,236,o),
(749,200,o),
(723,173,cs),
(672,120,o),
(603,93,o),
(515,93,cs),
(436,93,o),
(374,117,o),
(329,166,cs),
(284,214,o),
(262,282,o),
(262,369,cs),
(262,426,o),
(269,488,o),
(282,555,cs),
(290,596,o),
(301,638,o),
(315,681,cs),
(328,724,o),
(343,762,o),
(361,796,c),
(431,920,o),
(537,981,o),
(678,981,cs)
);
}
);
width = 1102;
}
);
unicode = 98;
}
{
glyphname = e;
layers = (
{
layerId = "826E86D0-E588-4774-9A02-039E3F74D6B5";
shapes = (
{
closed = 1;
nodes = (
(368,442,l),
(393,625,l),
(531,625,ls),
(626,625,o),
(749,649,o),
(749,762,cs),
(749,839,o),
(708,881,o),
(633,881,cs),
(450,881,o),
(420,542,o),
(420,404,cs),
(420,315,o),
(435,204,o),
(549,204,cs),
(647,204,o),
(680,285,o),
(704,366,c),
(1021,284,l),
(918,46,o),
(786,-20,o),
(531,-20,cs),
(248,-20,o),
(59,134,o),
(59,427,cs),
(59,808,o),
(248,1102,o),
(657,1102,cs),
(842,1102,o),
(1090,1011,o),
(1090,766,cs),
(1090,521,o),
(841,442,o),
(583,442,cs)
);
}
);
width = 1119;
},
{
layerId = "CCC0E55B-A8B0-4BE5-BCFE-654143F4C169";
shapes = (
{
closed = 1;
nodes = (
(316,451,l),
(340,616,l),
(502,616,ls),
(623,616,o),
(782,625,o),
(782,775,cs),
(782,867,o),
(725,910,o),
(638,910,cs),
(411,910,o),
(361,581,o),
(361,400,cs),
(361,281,o),
(400,174,o),
(537,174,cs),
(645,174,o),
(705,250,o),
(741,341,c),
(997,266,l),
(895,47,o),
(755,-20,o),
(518,-20,cs),
(239,-20,o),
(62,135,o),
(62,420,cs),
(62,797,o),
(251,1102,o),
(659,1102,cs),
(847,1102,o),
(1069,1016,o),
(1069,777,cs),
(1069,510,o),
(802,451,o),
(539,451,c)
);
}
);
width = 1108;
},
{
layerId = "BA5C3EFA-52F0-4978-BF26-13A2AC8190BC";
shapes = (
{
closed = 1;
nodes = (
(238,464,l),
(261,602,l),
(459,602,ls),
(619,602,o),
(831,588,o),
(831,795,cs),
(831,909,o),
(750,954,o),
(646,954,cs),
(353,954,o),
(272,639,o),
(272,395,cs),
(272,231,o),
(348,128,o),
(519,128,cs),
(642,128,o),
(743,198,o),
(797,304,c),
(961,238,l),
(860,49,o),
(709,-20,o),
(498,-20,cs),
(226,-20,o),
(67,137,o),
(67,409,cs),
(67,781,o),
(256,1102,o),
(663,1102,cs),
(854,1102,o),
(1038,1023,o),
(1038,793,cs),
(1038,493,o),
(744,465,o),
(474,464,c)
);
}
);
width = 1091;
},
{
layerId = "344EAA8B-658C-4164-B741-D5EC6A8B0AA2";
shapes = (
{
closed = 1;
nodes = (
(186,472,l),
(209,592,l),
(430,592,ls),
(617,592,o),
(863,564,o),
(863,809,cs),
(863,937,o),
(766,984,o),
(651,984,cs),
(315,984,o),
(213,677,o),
(213,391,cs),
(213,197,o),
(313,98,o),
(507,98,cs),
(640,98,o),
(768,163,o),
(834,280,c),
(937,220,l),
(836,50,o),
(678,-20,o),
(485,-20,cs),
(218,-20,o),
(71,138,o),
(71,401,cs),
(71,771,o),
(259,1102,o),
(665,1102,cs),
(858,1102,o),
(1018,1028,o),
(1018,804,cs),
(1018,482,o),
(705,474,o),
(430,473,cs)
);
}
);
width = 1059;
}
);
unicode = 101;
}
{
glyphname = f;
layers = (
{
layerId = "2D57F921-1619-4848-A780-0286F5C5F7A5";
shapes = (
{
closed = 1;
nodes = (
(591,852,l),
(805,852,l),
(850,1082,l),
(635,1082,l),
(649,1159,l),
(655,1187,o),
(667,1212,o),
(686,1233,cs),
(704,1254,o),
(737,1265,o),
(783,1265,cs),
(789,1265,o),
(797,1264,o),
(806,1263,cs),
(815,1262,o),
(824,1261,o),
(834,1259,c),
(845,1259,o),
(856,1257,o),
(865,1256,cs),
(875,1254,o),
(880,1253,o),
(882,1253,c),
(925,1464,l),
(852,1477,o),
(793,1484,o),
(749,1484,cs),
(665,1484,o),
(593,1474,o),
(533,1455,cs),
(472,1436,o),
(423,1404,o),
(386,1359,cs),
(350,1317,o),
(324,1260,o),
(310,1189,cs),
(288,1082,l),
(126,1082,l),
(82,852,l),
(244,852,l),
(77,0,l),
(424,0,l)
);
}
);
width = 757;
},
{
layerId = "7F330584-10E9-4267-8E26-4D2DDDC504D5";
shapes = (
{
closed = 1;
nodes = (
(532,886,l),
(745,886,l),
(784,1082,l),
(570,1082,l),
(586,1166,ls),
(594,1207,o),
(608,1238,o),
(628,1260,cs),
(648,1281,o),
(681,1292,o),
(725,1292,cs),
(732,1292,o),
(740,1291,o),
(748,1290,cs),
(757,1289,o),
(766,1289,o),
(775,1287,c),
(784,1287,o),
(794,1285,o),
(803,1284,cs),
(812,1283,o),
(818,1282,o),
(822,1281,c),
(859,1467,l),
(800,1478,o),
(747,1484,o),
(701,1484,cs),
(623,1484,o),
(558,1474,o),
(504,1455,cs),
(450,1437,o),
(407,1406,o),
(374,1364,cs),
(341,1323,o),
(317,1266,o),
(303,1194,cs),
(280,1082,l),
(122,1082,l),
(84,886,l),
(242,886,l),
(69,0,l),
(359,0,l)
);
}
);
width = 682;
},
{
layerId = "70541219-6074-4DB1-927E-09A6A4A4AC13";
shapes = (
{
closed = 1;
nodes = (
(443,936,l),
(654,936,l),
(683,1082,l),
(471,1082,l),
(489,1176,ls),
(502,1236,o),
(519,1278,o),
(541,1299,c),
(561,1321,o),
(594,1332,o),
(638,1332,cs),
(644,1332,o),
(652,1331,o),
(661,1331,cs),
(668,1331,o),
(676,1330,o),
(684,1329,c),
(692,1329,o),
(700,1328,o),
(707,1327,cs),
(716,1325,o),
(723,1324,o),
(729,1323,c),
(758,1471,l),
(719,1480,o),
(675,1484,o),
(626,1484,cs),
(559,1484,o),
(503,1475,o),
(460,1456,cs),
(416,1437,o),
(380,1408,o),
(353,1370,cs),
(326,1331,o),
(304,1275,o),
(290,1202,cs),
(267,1082,l),
(113,1082,l),
(85,936,l),
(239,936,l),
(56,0,l),
(260,0,l)
);
}
);
width = 569;
},
{
layerId = "D7EC7508-C152-41F5-B530-A2FB36F9EC58";
shapes = (
{
closed = 1;
nodes = (
(403,970,l),
(613,970,l),
(636,1082,l),
(425,1082,l),
(445,1183,ls),
(460,1256,o),
(479,1304,o),
(502,1326,cs),
(524,1348,o),
(557,1359,o),
(599,1359,cs),
(606,1359,o),
(614,1358,o),
(622,1358,cs),
(629,1358,o),
(637,1358,o),
(644,1357,c),
(650,1357,o),
(657,1356,o),
(664,1355,cs),
(672,1354,o),
(680,1353,o),
(688,1351,c),
(711,1474,l),
(686,1481,o),
(648,1484,o),
(597,1484,cs),
(536,1484,o),
(487,1475,o),
(450,1456,cs),
(413,1438,o),
(383,1410,o),
(360,1375,cs),
(336,1337,o),
(316,1281,o),
(302,1207,cs),
(278,1082,l),
(128,1082,l),
(106,970,l),
(256,970,l),
(67,0,l),
(214,0,l)
);
}
);
width = 531;
}
);
unicode = 102;
}
{
glyphname = g;
layers = (
{
layerId = "826E86D0-E588-4774-9A02-039E3F74D6B5";
shapes = (
{
closed = 1;
nodes = (
(639,-425,o),
(779,-393,o),
(874,-328,cs),
(969,-263,o),
(1032,-155,o),
(1063,-4,cs),
(1231,850,l),
(1261,998,l),
(1280,1082,l),
(952,1082,l),
(950,1079,o),
(945,1064,o),
(938,1036,cs),
(931,1009,o),
(924,980,o),
(917,951,cs),
(910,922,o),
(906,901,o),
(904,890,c),
(902,890,l),
(882,957,o),
(844,1009,o),
(787,1046,cs),
(729,1083,o),
(662,1101,o),
(585,1101,cs),
(218,1101,o),
(62,792,o),
(62,457,cs),
(62,213,o),
(144,-18,o),
(376,-18,cs),
(466,-18,o),
(575,15,o),
(646,73,cs),
(677,99,o),
(713,141,o),
(756,201,c),
(758,201,l),
(756,177,o),
(753,150,o),
(748,121,cs),
(743,92,o),
(737,61,o),
(729,27,cs),
(706,-63,o),
(677,-124,o),
(644,-157,cs),
(611,-190,o),
(565,-206,o),
(506,-206,cs),
(416,-206,o),
(364,-171,o),
(349,-99,c),
(-14,-121,l),
(1,-226,o),
(47,-303,o),
(122,-352,cs),
(197,-401,o),
(308,-425,o),
(454,-425,cs)
);
},
{
closed = 1;
nodes = (
(426,570,o),
(467,869,o),
(675,869,cs),
(794,869,o),
(845,784,o),
(845,674,cs),
(845,547,o),
(810,394,o),
(715,304,cs),
(673,265,o),
(627,245,o),
(576,245,cs),
(476,245,o),
(426,301,o),
(426,411,cs)
);
}
);
width = 1326;
},
{
layerId = "CCC0E55B-A8B0-4BE5-BCFE-654143F4C169";
shapes = (
{
closed = 1;
nodes = (
(600,-425,o),
(731,-392,o),
(822,-325,cs),
(913,-257,o),
(974,-146,o),
(1005,8,cs),
(1171,853,l),
(1201,999,l),
(1220,1082,l),
(945,1082,l),
(943,1079,o),
(938,1064,o),
(932,1037,c),
(925,1012,o),
(918,984,o),
(911,955,cs),
(904,927,o),
(900,905,o),
(897,892,c),
(895,892,l),
(877,957,o),
(839,1008,o),
(783,1045,cs),
(726,1083,o),
(658,1101,o),
(580,1101,cs),
(208,1101,o),
(64,748,o),
(64,418,cs),
(64,192,o),
(150,-18,o),
(372,-18,cs),
(463,-18,o),
(572,15,o),
(643,73,cs),
(674,99,o),
(710,142,o),
(752,201,c),
(754,201,l),
(751,175,o),
(747,148,o),
(742,119,cs),
(737,90,o),
(731,59,o),
(724,27,cs),
(701,-70,o),
(670,-138,o),
(630,-177,cs),
(591,-215,o),
(535,-234,o),
(464,-234,cs),
(359,-234,o),
(298,-193,o),
(281,-110,c),
(-14,-139,l),
(2,-237,o),
(47,-309,o),
(119,-355,cs),
(190,-402,o),
(294,-425,o),
(429,-425,cs)
);
},
{
closed = 1;
nodes = (
(363,580,o),
(411,903,o),
(646,903,cs),
(779,903,o),
(840,809,o),
(840,684,cs),
(840,543,o),
(798,370,o),
(691,270,cs),
(643,226,o),
(590,204,o),
(532,204,cs),
(419,204,o),
(363,269,o),
(363,398,cs)
);
}
);
width = 1251;
},
{
layerId = "BA5C3EFA-52F0-4978-BF26-13A2AC8190BC";
shapes = (
{
closed = 1;
nodes = (
(542,-425,o),
(660,-390,o),
(744,-319,cs),
(829,-249,o),
(887,-134,o),
(919,26,cs),
(1081,857,l),
(1111,999,l),
(1130,1082,l),
(937,1082,l),
(935,1078,o),
(930,1064,o),
(923,1040,cs),
(916,1015,o),
(910,989,o),
(903,962,cs),
(896,934,o),
(891,912,o),
(889,896,c),
(887,896,l),
(869,957,o),
(834,1006,o),
(778,1045,c),
(721,1082,o),
(654,1101,o),
(574,1101,cs),
(203,1101,o),
(64,732,o),
(64,407,cs),
(64,186,o),
(144,-19,o),
(364,-19,cs),
(455,-19,o),
(567,15,o),
(639,73,cs),
(671,100,o),
(707,142,o),
(748,201,c),
(750,201,l),
(745,173,o),
(740,144,o),
(734,115,cs),
(728,86,o),
(722,57,o),
(716,27,cs),
(695,-82,o),
(659,-160,o),
(610,-206,cs),
(561,-253,o),
(492,-276,o),
(402,-276,cs),
(275,-276,o),
(201,-227,o),
(179,-126,c),
(-12,-165,l),
(5,-252,o),
(47,-317,o),
(114,-361,cs),
(182,-404,o),
(274,-425,o),
(391,-425,cs)
);
},
{
closed = 1;
nodes = (
(269,593,o),
(327,953,o),
(602,953,cs),
(759,953,o),
(832,849,o),
(832,700,cs),
(832,533,o),
(784,333,o),
(655,218,cs),
(599,168,o),
(537,142,o),
(468,142,cs),
(336,142,o),
(269,221,o),
(269,378,cs)
);
}
);
width = 1139;
},
{
layerId = "344EAA8B-658C-4164-B741-D5EC6A8B0AA2";
shapes = (
{
closed = 1;
nodes = (
(523,-425,o),
(632,-389,o),
(712,-316,cs),
(793,-243,o),
(849,-125,o),
(881,38,cs),
(1041,860,l),
(1071,1000,l),
(1090,1082,l),
(950,1082,l),
(948,1078,o),
(943,1064,o),
(937,1041,cs),
(930,1018,o),
(924,993,o),
(917,966,cs),
(910,939,o),
(905,916,o),
(902,898,c),
(900,898,l),
(884,957,o),
(849,1005,o),
(794,1044,cs),
(738,1082,o),
(670,1101,o),
(589,1101,cs),
(198,1101,o),
(84,740,o),
(84,400,cs),
(84,180,o),
(157,-20,o),
(375,-20,cs),
(468,-20,o),
(583,14,o),
(656,73,cs),
(688,100,o),
(724,143,o),
(764,201,c),
(766,201,l),
(760,171,o),
(754,142,o),
(748,113,cs),
(742,84,o),
(736,55,o),
(731,27,cs),
(710,-89,o),
(672,-174,o),
(616,-226,cs),
(561,-278,o),
(482,-304,o),
(380,-304,cs),
(238,-304,o),
(155,-249,o),
(131,-137,c),
(8,-183,l),
(26,-263,o),
(67,-323,o),
(131,-364,cs),
(195,-405,o),
(280,-425,o),
(386,-425,c)
);
},
{
closed = 1;
nodes = (
(226,603,o),
(291,987,o),
(593,987,cs),
(764,987,o),
(847,873,o),
(847,710,cs),
(847,528,o),
(792,309,o),
(651,184,cs),
(589,129,o),
(520,101,o),
(444,101,cs),
(299,101,o),
(226,189,o),
(226,365,cs)
);
}
);
width = 1102;
}
);
unicode = 103;
}
{
glyphname = i;
layers = (
{
layerId = "F22D2CAB-3A7F-49A1-9202-DC9343798BDC";
shapes = (
{
closed = 1;
nodes = (
(673,1484,l),
(324,1484,l),
(279,1254,l),
(627,1254,l)
);
},
{
closed = 1;
nodes = (
(595,1082,l),
(246,1082,l),
(36,0,l),
(384,0,l)
);
}
);
width = 645;
},
{
layerId = "540001E1-6881-4DFA-ACAC-B89E119E0EAF";
shapes = (
{
closed = 1;
nodes = (
(609,1484,l),
(318,1484,l),
(277,1274,l),
(567,1274,l)
);
},
{
closed = 1;
nodes = (
(531,1082,l),
(240,1082,l),
(30,0,l),
(320,0,l)
);
}
);
width = 569;
},
{
layerId = "85C7CFC8-DA24-401F-A421-248411B25E5A";
shapes = (
{
closed = 1;
nodes = (
(513,1484,l),
(308,1484,l),
(273,1304,l),
(477,1304,l)
);
},
{
closed = 1;
nodes = (
(435,1082,l),
(230,1082,l),
(20,0,l),
(224,0,l)
);
}
);
width = 455;
},
{
layerId = "9CB70E7F-BC76-4DD2-ACFF-26AC98198772";
shapes = (
{
closed = 1;
nodes = (
(467,1484,l),
(320,1484,l),
(289,1324,l),
(435,1324,l)
);
},
{
closed = 1;
nodes = (
(389,1082,l),
(242,1082,l),
(32,0,l),
(178,0,l)
);
}
);
width = 417;
}
);
unicode = 105;
}
{
glyphname = j;
layers = (
{
layerId = "F22D2CAB-3A7F-49A1-9202-DC9343798BDC";
shapes = (
{
closed = 1;
nodes = (
(672,1484,l),
(324,1484,l),
(279,1254,l),
(628,1254,l)
);
},
{
closed = 1;
nodes = (
(81,-425,o),
(166,-397,o),
(232,-342,cs),
(298,-286,o),
(341,-214,o),
(359,-124,cs),
(594,1082,l),
(246,1082,l),
(28,-29,ls),
(16,-91,o),
(-1,-132,o),
(-23,-152,cs),
(-45,-171,o),
(-80,-181,o),
(-128,-181,cs),
(-136,-181,o),
(-144,-181,o),
(-152,-180,cs),
(-160,-179,o),
(-165,-179,o),
(-169,-180,c),
(-214,-403,l),
(-171,-418,o),
(-108,-425,o),
(-23,-425,cs)
);
}
);
width = 645;
},
{
layerId = "540001E1-6881-4DFA-ACAC-B89E119E0EAF";
shapes = (
{
closed = 1;
nodes = (
(608,1484,l),
(317,1484,l),
(276,1274,l),
(568,1274,l)
);
},
{
closed = 1;
nodes = (
(40,-425,o),
(117,-399,o),
(176,-348,cs),
(235,-296,o),
(275,-223,o),
(294,-127,cs),
(530,1082,l),
(239,1082,l),
(17,-56,ls),
(5,-118,o),
(-11,-160,o),
(-33,-183,cs),
(-54,-204,o),
(-87,-216,o),
(-132,-216,cs),
(-141,-216,o),
(-151,-216,o),
(-161,-215,cs),
(-171,-214,o),
(-179,-213,o),
(-188,-213,c),
(-225,-406,l),
(-180,-419,o),
(-123,-425,o),
(-55,-425,cs)
);
}
);
width = 569;
},
{
layerId = "85C7CFC8-DA24-401F-A421-248411B25E5A";
shapes = (
{
closed = 1;
nodes = (
(512,1484,l),
(309,1484,l),
(274,1304,l),
(478,1304,l)
);
},
{
closed = 1;
nodes = (
(-22,-425,o),
(43,-402,o),
(93,-356,cs),
(143,-310,o),
(178,-235,o),
(198,-133,cs),
(434,1082,l),
(231,1082,l),
(1,-96,ls),
(-10,-157,o),
(-26,-201,o),
(-46,-228,cs),
(-67,-255,o),
(-97,-268,o),
(-138,-268,cs),
(-148,-268,o),
(-159,-267,o),
(-172,-266,cs),
(-185,-265,o),
(-199,-263,o),
(-214,-261,c),
(-241,-410,l),
(-191,-420,o),
(-146,-425,o),
(-103,-425,cs)
);
}
);
width = 455;
},
{
layerId = "9CB70E7F-BC76-4DD2-ACFF-26AC98198772";
shapes = (
{
closed = 1;
nodes = (
(468,1484,l),
(322,1484,l),
(291,1324,l),
(438,1324,l)
);
},
{
closed = 1;
nodes = (
(-43,-425,o),
(14,-404,o),
(57,-362,cs),
(100,-320,o),
(132,-244,o),
(153,-136,cs),
(390,1082,l),
(244,1082,l),
(10,-123,l),
(-1,-184,o),
(-16,-229,o),
(-36,-259,cs),
(-56,-288,o),
(-84,-303,o),
(-122,-303,cs),
(-133,-303,o),
(-146,-302,o),
(-161,-301,cs),
(-176,-300,o),
(-193,-297,o),
(-213,-294,c),
(-232,-413,l),
(-180,-421,o),
(-141,-425,o),
(-115,-425,c)
);
}
);
width = 417;
}
);
unicode = 106;
}
{
glyphname = k;
layers = (
{
layerId = "F22D2CAB-3A7F-49A1-9202-DC9343798BDC";
shapes = (
{
closed = 1;
nodes = (
(477,451,l),
(598,494,l),
(733,0,l),
(1100,0,l),
(866,689,l),
(1300,1082,l),
(911,1082,l),
(644,809,l),
(513,679,l),
(672,1484,l),
(324,1484,l),
(36,0,l),
(383,0,l)
);
}
);
width = 1216;
},
{
layerId = "540001E1-6881-4DFA-ACAC-B89E119E0EAF";
shapes = (
{
closed = 1;
nodes = (
(406,426,l),
(543,497,l),
(724,0,l),
(1032,0,l),
(763,664,l),
(1230,1082,l),
(898,1082,l),
(599,791,l),
(443,641,l),
(609,1484,l),
(318,1484,l),
(30,0,l),
(320,0,l)
);
}
);
width = 1139;
},
{
layerId = "85C7CFC8-DA24-401F-A421-248411B25E5A";
shapes = (
{
closed = 1;
nodes = (
(299,388,l),
(460,501,l),
(709,0,l),
(929,0,l),
(608,628,l),
(1123,1082,l),
(877,1082,l),
(530,765,l),
(336,583,l),
(512,1484,l),
(309,1484,l),
(21,0,l),
(223,0,l)
);
}
);
width = 1024;
},
{
layerId = "9CB70E7F-BC76-4DD2-ACFF-26AC98198772";
shapes = (
{
closed = 1;
nodes = (
(247,363,l),
(424,504,l),
(719,0,l),
(880,0,l),
(524,603,l),
(1072,1082,l),
(883,1082,l),
(504,747,l),
(285,545,l),
(468,1484,l),
(322,1484,l),
(34,0,l),
(179,0,l)
);
}
);
width = 986;
}
);
unicode = 107;
}
{
glyphname = l;
layers = (
{
layerId = "826E86D0-E588-4774-9A02-039E3F74D6B5";
shapes = (
{
closed = 1;
nodes = (
(673,1484,l),
(349,1484,l),
(115,413,ls),
(102,354,o),
(99,296,o),
(99,237,cs),
(99,45,o),
(241,-12,o),
(411,-12,cs),
(460,-12,o),
(455,-8,o),
(504,0,c),
(552,218,l),
(526,214,o),
(544,213,o),
(529,213,cs),
(475,213,o),
(444,253,o),
(444,305,cs),
(444,325,o),
(448,352,o),
(456,391,cs)
);
}
);
width = 630;
},
{
layerId = "CCC0E55B-A8B0-4BE5-BCFE-654143F4C169";
shapes = (
{
closed = 1;
nodes = (
(609,1484,l),
(335,1484,l),
(101,373,ls),
(89,317,o),
(85,264,o),
(85,213,cs),
(85,48,o),
(202,-15,o),
(353,-15,cs),
(399,-15,o),
(422,-11,o),
(467,-3,c),
(509,187,l),
(482,183,o),
(476,182,o),
(462,182,cs),
(406,182,o),
(375,218,o),
(375,273,cs),
(375,294,o),
(379,323,o),
(387,362,cs)
);
}
);
width = 611;
},
{
layerId = "BA5C3EFA-52F0-4978-BF26-13A2AC8190BC";
shapes = (
{
closed = 1;
nodes = (
(513,1484,l),
(314,1484,l),
(80,313,ls),
(69,262,o),
(64,216,o),
(64,177,cs),
(64,52,o),
(143,-19,o),
(266,-19,cs),
(312,-19,o),
(356,-15,o),
(400,-5,c),
(433,143,l),
(402,138,o),
(382,136,o),
(361,136,cs),
(302,136,o),
(272,166,o),
(272,225,cs),
(272,247,o),
(276,279,o),
(284,318,cs)
);
}
);
width = 548;
},
{
layerId = "344EAA8B-658C-4164-B741-D5EC6A8B0AA2";
shapes = (
{
closed = 1;
nodes = (
(449,1484,l),
(300,1484,l),
(66,273,l),
(56,225,o),
(50,184,o),
(50,153,cs),
(50,55,o),
(104,-22,o),
(208,-22,cs),
(254,-22,o),
(312,-17,o),
(356,-7,c),
(382,114,l),
(349,108,o),
(320,105,o),
(294,105,cs),
(233,105,o),
(203,131,o),
(203,193,cs),
(203,216,o),
(207,250,o),
(215,289,cs)
);
}
);
width = 506;
}
);
unicode = 108;
}
{
glyphname = q;
layers = (
{
layerId = "785665E2-8136-4865-9B7E-748FCB278F4B";
shapes = (
{
closed = 1;
nodes = (
(551,-21,o),
(655,40,o),
(754,164,c),
(758,164,l),
(707,-28,o),
(672,-228,o),
(635,-425,c),
(982,-425,l),
(1169,527,ls),
(1204,707,o),
(1229,895,o),
(1276,1073,c),
(940,1073,l),
(920,1015,o),
(909,962,o),
(896,903,c),
(891,903,l),
(823,1065,o),
(750,1102,o),
(576,1102,cs),
(202,1102,o),
(53,669,o),
(53,357,cs),
(53,147,o),
(164,-21,o),
(389,-21,cs)
);
},
{
closed = 1;
nodes = (
(453,208,o),
(421,308,o),
(421,400,cs),
(421,591,o),
(467,871,o),
(712,871,cs),
(828,871,o),
(845,747,o),
(845,659,cs),
(845,476,o),
(795,208,o),
(563,208,cs)
);
}
);
width = 1326;
},
{
layerId = "C6FD8471-1839-414E-9C91-DDB255379DAE";
shapes = (
{
closed = 1;
nodes = (
(548,-21,o),
(652,38,o),
(749,163,c),
(753,163,l),
(704,-30,o),
(669,-229,o),
(632,-425,c),
(922,-425,l),
(1118,589,ls),
(1150,752,o),
(1176,920,o),
(1219,1081,c),
(939,1081,l),
(917,1023,o),
(906,963,o),
(893,903,c),
(888,903,l),
(827,1058,o),
(738,1102,o),
(575,1102,cs),
(190,1102,o),
(53,667,o),
(53,349,cs),
(53,139,o),
(165,-21,o),
(388,-21,cs)
);
},
{
closed = 1;
nodes = (
(394,177,o),
(360,281,o),
(360,388,cs),
(360,589,o),
(411,904,o),
(671,904,cs),
(807,904,o),
(840,780,o),
(840,668,cs),
(840,469,o),
(768,177,o),
(520,177,cs)
);
}
);
width = 1251;
},
{
layerId = "341BCE00-9002-445C-A6C9-0431889C03AA";
shapes = (
{
closed = 1;
nodes = (
(544,-21,o),
(647,35,o),
(741,161,c),
(745,161,l),
(700,-33,o),
(665,-230,o),
(628,-425,c),
(832,-425,l),
(1042,682,ls),
(1068,820,o),
(1096,958,o),
(1133,1093,c),
(937,1093,l),
(913,1035,o),
(901,965,o),
(889,903,c),
(884,903,l),
(833,1048,o),
(720,1102,o),
(573,1102,cs),
(172,1102,o),
(53,664,o),
(53,337,cs),
(53,127,o),
(166,-21,o),
(386,-21,cs)
);
},
{
closed = 1;
nodes = (
(306,131,o),
(268,240,o),
(268,370,cs),
(268,586,o),
(327,954,o),
(609,954,cs),
(775,954,o),
(832,829,o),
(832,682,cs),
(832,459,o),
(727,131,o),
(456,131,cs)
);
}
);
width = 1139;
},
{
layerId = "42616347-C5BD-494A-B849-B08086064D93";
shapes = (
{
closed = 1;
nodes = (
(561,-21,o),
(660,34,o),
(755,159,c),
(759,159,l),
(716,-34,o),
(681,-230,o),
(644,-425,c),
(790,-425,l),
(1019,752,ls),
(1042,868,o),
(1063,987,o),
(1095,1101,c),
(954,1101,l),
(929,1040,o),
(919,967,o),
(905,903,c),
(900,903,l),
(854,1041,o),
(729,1101,o),
(591,1101,cs),
(177,1101,o),
(72,663,o),
(72,328,cs),
(72,117,o),
(186,-21,o),
(403,-21,cs)
);
},
{
closed = 1;
nodes = (
(267,100,o),
(224,211,o),
(224,358,cs),
(224,577,o),
(304,993,o),
(595,993,cs),
(774,993,o),
(851,815,o),
(851,661,cs),
(851,375,o),
(755,100,o),
(432,100,cs)
);
}
);
width = 1102;
}
);
unicode = 113;
}
{
glyphname = x;
layers = (
{
layerId = "826E86D0-E588-4774-9A02-039E3F74D6B5";
shapes = (
{
closed = 1;
nodes = (
(565,342,l),
(736,0,l),
(1101,0,l),
(799,556,l),
(1291,1082,l),
(915,1082,l),
(655,785,l),
(495,1082,l),
(134,1082,l),
(423,566,l),
(-95,0,l),
(274,0,l)
);
}
);
width = 1216;
},
{
layerId = "CCC0E55B-A8B0-4BE5-BCFE-654143F4C169";
shapes = (
{
closed = 1;
nodes = (
(536,377,l),
(720,0,l),
(1025,0,l),
(730,557,l),
(1214,1082,l),
(896,1082,l),
(606,743,l),
(434,1082,l),
(132,1082,l),
(412,563,l),
(-96,0,l),
(214,0,l)
);
}
);
width = 1139;
},
{
layerId = "BA5C3EFA-52F0-4978-BF26-13A2AC8190BC";
shapes = (
{
closed = 1;
nodes = (
(492,429,l),
(696,0,l),
(911,0,l),
(628,557,l),
(1100,1082,l),
(870,1082,l),
(532,679,l),
(344,1082,l),
(130,1082,l),
(398,557,l),
(-98,0,l),
(126,0,l)
);
}
);
width = 1024;
},
{
layerId = "344EAA8B-658C-4164-B741-D5EC6A8B0AA2";
shapes = (
{
closed = 1;
nodes = (
(483,464,l),
(700,0,l),
(855,0,l),
(579,558,l),
(1043,1082,l),
(871,1082,l),
(503,637,l),
(303,1082,l),
(148,1082,l),
(407,554,l),
(-79,0,l),
(86,0,l)
);
}
);
width = 986;
}
);
unicode = 120;
}
{
glyphname = braceleft;
layers = (
{
layerId = "F22D2CAB-3A7F-49A1-9202-DC9343798BDC";
shapes = (
{
closed = 1;
nodes = (
(644,-425,l),
(689,-192,l),
(588,-192,ls),
(560,-192,o),
(535,-186,o),
(514,-172,c),
(492,-159,o),
(482,-135,o),
(482,-101,cs),
(482,-90,o),
(482,-84,o),
(483,-82,cs),
(484,-80,o),
(486,-72,o),
(488,-60,cs),
(556,284,ls),
(559,298,o),
(560,314,o),
(560,332,cs),
(560,380,o),
(544,422,o),
(513,455,cs),
(481,489,o),
(440,513,o),
(388,527,c),
(390,532,l),
(456,544,o),
(514,573,o),
(563,616,cs),
(611,660,o),
(642,713,o),
(655,776,cs),
(709,1055,ls),
(722,1125,o),
(742,1176,o),
(769,1207,cs),
(795,1238,o),
(834,1253,o),
(885,1253,cs),
(970,1253,l),
(1015,1484,l),
(782,1484,ls),
(673,1484,o),
(590,1460,o),
(531,1411,cs),
(471,1362,o),
(432,1288,o),
(412,1189,cs),
(347,867,ls),
(319,721,o),
(225,648,o),
(64,646,c),
(18,411,l),
(87,410,o),
(137,396,o),
(170,369,cs),
(203,341,o),
(219,303,o),
(219,254,cs),
(219,229,o),
(217,208,o),
(213,192,c),
(149,-130,ls),
(141,-173,o),
(137,-203,o),
(137,-220,cs),
(137,-281,o),
(161,-331,o),
(208,-369,cs),
(255,-406,o),
(320,-425,o),
(403,-425,cs)
);
}
);
width = 872;
},
{
layerId = "540001E1-6881-4DFA-ACAC-B89E119E0EAF";
shapes = (
{
closed = 1;
nodes = (
(577,-425,l),
(615,-227,l),
(532,-227,ls),
(496,-227,o),
(467,-220,o),
(445,-203,cs),
(423,-186,o),
(412,-160,o),
(412,-125,cs),
(412,-114,o),
(413,-103,o),
(414,-92,cs),
(416,-81,o),
(418,-67,o),
(421,-54,cs),
(486,281,l),
(490,298,o),
(491,315,o),
(491,333,cs),
(491,382,o),
(476,425,o),
(446,458,cs),
(416,492,o),
(376,515,o),
(326,528,c),
(328,532,l),
(392,545,o),
(449,574,o),
(496,618,cs),
(542,662,o),
(572,716,o),
(585,779,cs),
(645,1084,ls),
(658,1158,o),
(680,1211,o),
(709,1242,cs),
(737,1273,o),
(778,1288,o),
(832,1288,cs),
(910,1288,l),
(948,1484,l),
(748,1484,ls),
(644,1484,o),
(565,1460,o),
(509,1410,cs),
(452,1361,o),
(415,1287,o),
(395,1190,cs),
(328,854,ls),
(300,706,o),
(208,631,o),
(53,628,c),
(14,430,l),
(79,428,o),
(127,414,o),
(159,388,cs),
(191,362,o),
(207,323,o),
(207,272,cs),
(207,248,o),
(205,225,o),
(200,205,c),
(139,-105,ls),
(131,-146,o),
(127,-179,o),
(127,-205,cs),
(127,-271,o),
(151,-325,o),
(197,-366,cs),
(243,-405,o),
(306,-425,o),
(385,-425,cs)
);
}
);
width = 797;
},
{
layerId = "85C7CFC8-DA24-401F-A421-248411B25E5A";
shapes = (
{
closed = 1;
nodes = (
(474,-425,l),
(502,-281,l),
(447,-281,ls),
(399,-281,o),
(363,-270,o),
(341,-248,c),
(317,-227,o),
(307,-198,o),
(307,-161,cs),
(307,-149,o),
(307,-131,o),
(310,-106,cs),
(312,-81,o),
(315,-61,o),
(318,-46,cs),
(381,277,l),
(384,297,o),
(386,317,o),
(386,335,cs),
(386,386,o),
(372,428,o),
(345,461,cs),
(317,495,o),
(280,518,o),
(233,530,c),
(233,532,l),
(296,546,o),
(349,576,o),
(394,620,c),
(438,666,o),
(467,719,o),
(480,783,cs),
(546,1128,ls),
(562,1206,o),
(585,1262,o),
(617,1293,cs),
(648,1324,o),
(693,1340,o),
(751,1340,cs),
(817,1340,l),
(845,1484,l),
(697,1484,ls),
(599,1484,o),
(525,1459,o),
(474,1410,cs),
(422,1359,o),
(387,1287,o),
(368,1190,cs),
(299,834,ls),
(269,682,o),
(181,605,o),
(34,600,c),
(7,458,l),
(65,456,o),
(109,442,o),
(141,418,c),
(173,392,o),
(188,353,o),
(188,298,cs),
(188,276,o),
(185,251,o),
(179,223,c),
(122,-69,l),
(116,-105,o),
(112,-142,o),
(112,-181,cs),
(112,-257,o),
(134,-317,o),
(178,-360,cs),
(222,-403,o),
(282,-425,o),
(358,-425,cs)
);
}
);
width = 684;
},
{
layerId = "9CB70E7F-BC76-4DD2-ACFF-26AC98198772";
shapes = (
{
closed = 1;
nodes = (
(426,-425,l),
(447,-316,l),
(410,-316,l),
(354,-316,o),
(314,-304,o),
(291,-279,cs),
(267,-254,o),
(256,-223,o),
(256,-185,cs),
(256,-173,o),
(257,-150,o),
(260,-116,cs),
(263,-82,o),
(266,-56,o),
(270,-40,c),
(330,274,ls),
(334,297,o),
(336,318,o),
(336,336,cs),
(336,388,o),
(323,431,o),
(297,464,cs),
(271,498,o),
(235,520,o),
(190,531,c),
(190,532,l),
(251,547,o),
(303,577,o),
(346,622,cs),
(388,668,o),
(416,722,o),
(429,786,cs),
(501,1157,ls),
(517,1239,o),
(542,1297,o),
(576,1328,cs),
(609,1359,o),
(656,1375,o),
(717,1375,cs),
(776,1375,l),
(797,1484,l),
(682,1484,ls),
(589,1484,o),
(519,1459,o),
(471,1409,cs),
(422,1358,o),
(389,1286,o),
(370,1191,cs),
(299,821,l),
(269,667,o),
(183,588,o),
(42,582,c),
(22,477,l),
(76,474,o),
(118,460,o),
(149,437,cs),
(180,413,o),
(195,373,o),
(195,316,cs),
(195,295,o),
(192,268,o),
(185,236,cs),
(131,-44,ls),
(125,-78,o),
(121,-118,o),
(121,-166,cs),
(121,-247,o),
(143,-311,o),
(186,-357,cs),
(229,-402,o),
(287,-425,o),
(359,-425,c)
);
}
);
width = 646;
}
);
unicode = 123;
}
{
glyphname = bar;
layers = (
{
layerId = "2D57F921-1619-4848-A780-0286F5C5F7A5";
shapes = (
{
closed = 1;
nodes = (
(503,1484,l),
(176,1484,l),
(176,-406,l),
(503,-406,l)
);
}
);
width = 600;
},
{
layerId = "7F330584-10E9-4267-8E26-4D2DDDC504D5";
shapes = (
{
closed = 1;
nodes = (
(459,1484,l),
(187,1484,l),
(187,-423,l),
(459,-423,l)
);
}
);
width = 573;
},
{
layerId = "70541219-6074-4DB1-927E-09A6A4A4AC13";
shapes = (
{
closed = 1;
nodes = (
(393,1484,l),
(203,1484,l),
(203,-447,l),
(393,-447,l)
);
}
);
width = 532;
},
{
layerId = "D7EC7508-C152-41F5-B530-A2FB36F9EC58";
shapes = (
{
closed = 1;
nodes = (
(355,1484,l),
(220,1484,l),
(220,-464,l),
(355,-464,l)
);
}
);
width = 518;
}
);
unicode = 124;
}
{
glyphname = braceright;
layers = (
{
layerId = "2D57F921-1619-4848-A780-0286F5C5F7A5";
shapes = (
{
closed = 1;
nodes = (
(219,1486,l),
(174,1253,l),
(275,1253,ls),
(303,1253,o),
(328,1246,o),
(349,1233,cs),
(370,1219,o),
(381,1196,o),
(381,1162,cs),
(381,1151,o),
(381,1145,o),
(380,1143,c),
(380,1142,o),
(378,1134,o),
(375,1119,cs),
(307,776,ls),
(304,762,o),
(303,747,o),
(303,729,cs),
(303,681,o),
(318,640,o),
(349,605,cs),
(380,570,o),
(422,546,o),
(474,532,c),
(473,529,l),
(406,516,o),
(349,488,o),
(300,444,cs),
(251,400,o),
(221,347,o),
(208,283,cs),
(154,4,ls),
(140,-66,o),
(120,-117,o),
(94,-148,cs),
(68,-179,o),
(29,-194,o),
(-23,-194,cs),
(-107,-194,l),
(-152,-425,l),
(81,-425,ls),
(185,-425,o),
(267,-402,o),
(327,-356,cs),
(387,-310,o),
(429,-234,o),
(451,-129,cs),
(516,192,l),
(543,339,o),
(638,413,o),
(798,414,c),
(845,650,l),
(773,650,o),
(721,664,o),
(690,692,cs),
(659,720,o),
(644,758,o),
(644,806,cs),
(644,832,o),
(646,853,o),
(649,868,cs),
(714,1190,l),
(721,1231,o),
(725,1261,o),
(725,1281,cs),
(725,1342,o),
(702,1392,o),
(655,1429,cs),
(608,1467,o),
(543,1486,o),
(460,1486,cs)
);
}
);
width = 872;
},
{
layerId = "7F330584-10E9-4267-8E26-4D2DDDC504D5";
shapes = (
{
closed = 1;
nodes = (
(212,1485,l),
(174,1288,l),
(256,1288,ls),
(292,1288,o),
(322,1279,o),
(343,1263,cs),
(365,1246,o),
(376,1221,o),
(376,1185,cs),
(376,1174,o),
(375,1164,o),
(374,1152,cs),
(373,1141,o),
(371,1129,o),
(368,1113,cs),
(302,778,ls),
(299,762,o),
(297,746,o),
(297,727,cs),
(297,678,o),
(312,636,o),
(341,602,cs),
(371,567,o),
(411,544,o),
(461,531,c),
(461,528,l),
(395,515,o),
(340,486,o),
(292,442,cs),
(245,397,o),
(216,344,o),
(203,280,cs),
(144,-25,ls),
(129,-99,o),
(108,-152,o),
(80,-183,cs),
(52,-214,o),
(10,-229,o),
(-45,-229,cs),
(-121,-229,l),
(-159,-425,l),
(40,-425,ls),
(141,-425,o),
(220,-401,o),
(276,-354,cs),
(333,-307,o),
(373,-232,o),
(393,-130,cs),
(460,205,ls),
(488,354,o),
(580,430,o),
(735,432,c),
(774,631,l),
(707,631,o),
(658,645,o),
(627,672,cs),
(596,699,o),
(581,737,o),
(581,788,cs),
(581,813,o),
(584,835,o),
(587,855,c),
(650,1165,l),
(656,1204,o),
(660,1237,o),
(660,1265,cs),
(660,1332,o),
(638,1386,o),
(592,1425,cs),
(546,1465,o),
(483,1485,o),
(403,1485,cs)
);
}
);
width = 797;
},
{
layerId = "70541219-6074-4DB1-927E-09A6A4A4AC13";
shapes = (
{
closed = 1;
nodes = (
(199,1485,l),
(171,1340,l),
(227,1340,ls),
(275,1340,o),
(310,1330,o),
(333,1308,cs),
(355,1286,o),
(367,1257,o),
(367,1221,cs),
(367,1210,o),
(366,1191,o),
(363,1166,cs),
(361,1141,o),
(358,1120,o),
(355,1105,cs),
(293,782,ls),
(289,762,o),
(288,743,o),
(288,725,cs),
(288,673,o),
(301,631,o),
(329,597,cs),
(356,564,o),
(394,541,o),
(440,529,c),
(440,528,l),
(378,513,o),
(324,483,o),
(280,438,cs),
(235,394,o),
(207,340,o),
(194,276,cs),
(127,-69,ls),
(112,-147,o),
(88,-203,o),
(56,-234,cs),
(25,-265,o),
(-20,-281,o),
(-78,-281,cs),
(-144,-281,l),
(-172,-425,l),
(-23,-425,ls),
(73,-425,o),
(147,-401,o),
(199,-351,cs),
(250,-301,o),
(286,-228,o),
(306,-132,cs),
(375,225,ls),
(404,376,o),
(493,454,o),
(638,458,c),
(667,601,l),
(608,604,o),
(563,617,o),
(532,642,cs),
(501,667,o),
(486,707,o),
(486,760,cs),
(486,783,o),
(488,809,o),
(494,835,c),
(551,1127,ls),
(558,1164,o),
(561,1201,o),
(561,1241,cs),
(561,1316,o),
(539,1376,o),
(495,1419,cs),
(451,1463,o),
(391,1485,o),
(316,1485,cs)
);
}
);
width = 684;
},
{
layerId = "D7EC7508-C152-41F5-B530-A2FB36F9EC58";
shapes = (
{
closed = 1;
nodes = (
(211,1484,l),
(190,1375,l),
(227,1375,ls),
(283,1375,o),
(323,1363,o),
(346,1338,cs),
(369,1313,o),
(381,1282,o),
(381,1244,cs),
(381,1233,o),
(379,1210,o),
(376,1175,cs),
(373,1140,o),
(370,1115,o),
(367,1099,cs),
(307,784,ls),
(303,762,o),
(301,742,o),
(301,723,cs),
(301,670,o),
(314,627,o),
(340,594,cs),
(366,561,o),
(402,539,o),
(446,528,c),
(447,527,l),
(386,512,o),
(334,481,o),
(291,436,cs),
(248,391,o),
(221,337,o),
(208,273,cs),
(136,-98,ls),
(120,-180,o),
(95,-238,o),
(61,-269,cs),
(28,-300,o),
(-20,-316,o),
(-81,-316,cs),
(-139,-316,l),
(-160,-425,l),
(-45,-425,ls),
(48,-425,o),
(119,-400,o),
(167,-349,cs),
(215,-298,o),
(249,-226,o),
(267,-133,cs),
(338,238,l),
(368,391,o),
(454,471,o),
(594,476,c),
(615,582,l),
(561,585,o),
(519,598,o),
(488,622,cs),
(457,646,o),
(442,686,o),
(442,742,cs),
(442,764,o),
(445,791,o),
(451,822,cs),
(506,1102,ls),
(512,1137,o),
(515,1177,o),
(515,1225,cs),
(515,1306,o),
(494,1370,o),
(451,1415,cs),
(408,1461,o),
(350,1484,o),
(278,1484,c)
);
}
);
width = 646;
}
);
unicode = 125;
}
{
glyphname = asciitilde;
layers = (
{
layerId = "F22D2CAB-3A7F-49A1-9202-DC9343798BDC";
shapes = (
{
closed = 1;
nodes = (
(957,491,o),
(1005,497,o),
(1045,509,cs),
(1084,520,o),
(1126,541,o),
(1171,571,c),
(1171,837,l),
(1094,776,o),
(1011,745,o),
(920,745,cs),
(902,745,o),
(880,747,o),
(855,752,cs),
(830,757,o),
(807,761,o),
(787,766,cs),
(767,771,o),
(753,775,o),
(747,776,c),
(694,795,o),
(639,814,o),
(580,833,cs),
(521,852,o),
(458,862,o),
(392,862,cs),
(284,862,o),
(192,834,o),
(115,778,c),
(115,518,l),
(159,547,o),
(200,569,o),
(241,584,cs),
(281,599,o),
(326,606,o),
(375,606,cs),
(430,606,o),
(505,590,o),
(599,558,cs),
(650,541,o),
(699,525,o),
(748,512,cs),
(796,498,o),
(846,491,o),
(899,491,cs)
);
}
);
width = 1196;
},
{
layerId = "540001E1-6881-4DFA-ACAC-B89E119E0EAF";
shapes = (
{
closed = 1;
nodes = (
(948,512,o),
(996,518,o),
(1035,531,c),
(1074,542,o),
(1115,563,o),
(1158,592,c),
(1158,818,l),
(1081,757,o),
(999,726,o),
(910,726,cs),
(893,726,o),
(872,728,o),
(850,732,cs),
(828,736,o),
(805,741,o),
(780,747,c),
(756,754,o),
(730,762,o),
(704,771,cs),
(653,789,o),
(603,805,o),
(551,820,cs),
(499,835,o),
(445,843,o),
(390,843,cs),
(284,843,o),
(193,815,o),
(117,759,c),
(117,539,l),
(161,569,o),
(202,591,o),
(242,606,cs),
(282,620,o),
(326,627,o),
(373,627,cs),
(429,627,o),
(504,611,o),
(595,580,cs),
(645,563,o),
(694,547,o),
(743,534,c),
(791,519,o),
(840,512,o),
(890,512,cs)
);
}
);
width = 1196;
},
{
layerId = "85C7CFC8-DA24-401F-A421-248411B25E5A";
shapes = (
{
closed = 1;
nodes = (
(934,544,o),
(982,551,o),
(1021,563,cs),
(1059,575,o),
(1099,596,o),
(1140,624,c),
(1140,790,l),
(1063,729,o),
(981,698,o),
(894,698,cs),
(878,698,o),
(861,699,o),
(844,702,cs),
(826,705,o),
(801,710,o),
(771,720,c),
(739,729,o),
(695,744,o),
(638,763,cs),
(593,779,o),
(549,792,o),
(507,801,cs),
(465,810,o),
(424,815,o),
(386,815,cs),
(284,815,o),
(196,787,o),
(121,731,c),
(121,571,l),
(165,602,o),
(205,625,o),
(245,638,c),
(283,652,o),
(325,659,o),
(371,659,cs),
(429,659,o),
(501,644,o),
(589,614,cs),
(638,597,o),
(686,580,o),
(735,566,cs),
(783,552,o),
(830,544,o),
(878,544,cs)
);
}
);
width = 1196;
},
{
layerId = "9CB70E7F-BC76-4DD2-ACFF-26AC98198772";
shapes = (
{
closed = 1;
nodes = (
(925,565,o),
(973,572,o),
(1011,585,cs),
(1049,597,o),
(1088,618,o),
(1127,645,c),
(1127,771,l),
(1050,710,o),
(969,679,o),
(884,679,cs),
(869,679,o),
(853,680,o),
(839,682,cs),
(824,684,o),
(799,690,o),
(764,701,cs),
(728,712,o),
(672,731,o),
(595,758,cs),
(552,773,o),
(513,783,o),
(478,788,cs),
(443,793,o),
(411,796,o),
(384,796,cs),
(284,796,o),
(197,768,o),
(123,712,c),
(123,592,l),
(167,624,o),
(207,647,o),
(246,660,cs),
(284,673,o),
(325,680,o),
(369,680,cs),
(428,680,o),
(500,665,o),
(585,636,cs),
(633,619,o),
(681,602,o),
(730,588,cs),
(778,573,o),
(824,565,o),
(869,565,cs)
);
}
);
width = 1196;
}
);
unicode = 126;
}
{
glyphname = exclamdown;
layers = (
{
layerId = "31C81AF0-C452-43E7-8668-722D0E517E96";
shapes = (
{
closed = 1;
nodes = (
(623,1081,l),
(272,1081,l),
(210,765,l),
(561,765,l)
);
},
{
closed = 1;
nodes = (
(214,633,l),
(-9,-328,l),
(350,-328,l),
(499,633,l)
);
}
);
width = 682;
},
{
layerId = "42D11CF2-4BFF-4A3C-B658-4C314917569F";
shapes = (
{
closed = 1;
nodes = (
(593,1082,l),
(296,1082,l),
(241,805,l),
(539,805,l)
);
},
{
closed = 1;
nodes = (
(238,651,l),
(16,-327,l),
(319,-327,l),
(476,651,l)
);
}
);
width = 682;
},
{
layerId = "D06BE3A0-2FE9-4743-9DA4-DC1042F849F0";
shapes = (
{
closed = 1;
nodes = (
(549,1082,l),
(332,1082,l),
(289,865,l),
(505,865,l)
);
},
{
closed = 1;
nodes = (
(274,679,l),
(54,-327,l),
(273,-327,l),
(442,679,l)
);
}
);
width = 682;
},
{
layerId = "8B25E0A0-F27A-4A76-9983-E40B0C67E833";
shapes = (
{
closed = 1;
nodes = (
(519,1083,l),
(356,1083,l),
(320,905,l),
(483,905,l)
);
},
{
closed = 1;
nodes = (
(298,697,l),
(79,-326,l),
(242,-326,l),
(419,697,l)
);
}
);
width = 682;
}
);
unicode = 161;
}
{
glyphname = cent;
layers = (
{
layerId = "2D57F921-1619-4848-A780-0286F5C5F7A5";
shapes = (
{
closed = 1;
nodes = (
(441,362,o),
(390,432,o),
(390,573,cs),
(390,579,o),
(392,594,o),
(395,617,cs),
(398,640,o),
(404,672,o),
(413,712,c),
(430,777,o),
(446,827,o),
(460,862,cs),
(475,897,o),
(489,927,o),
(503,951,cs),
(535,1003,o),
(582,1028,o),
(645,1028,cs),
(691,1028,o),
(725,1013,o),
(748,984,cs),
(771,954,o),
(784,907,o),
(786,845,c),
(1142,867,l),
(1133,969,o),
(1098,1053,o),
(1036,1120,cs),
(975,1187,o),
(894,1229,o),
(794,1246,c),
(828,1409,l),
(641,1409,l),
(608,1254,l),
(536,1250,o),
(469,1237,o),
(408,1215,cs),
(346,1192,o),
(292,1161,o),
(244,1121,c),
(194,1073,o),
(151,1014,o),
(115,946,cs),
(80,877,o),
(52,797,o),
(32,705,c),
(25,677,o),
(21,630,o),
(21,566,cs),
(21,449,o),
(54,354,o),
(119,281,cs),
(184,209,o),
(275,163,o),
(393,144,c),
(362,-31,l),
(549,-31,l),
(581,136,l),
(710,145,o),
(815,178,o),
(897,237,cs),
(979,296,o),
(1036,385,o),
(1068,504,c),
(720,555,l),
(704,491,o),
(681,443,o),
(653,411,cs),
(625,378,o),
(588,362,o),
(542,362,cs)
);
}
);
width = 1139;
},
{
layerId = "7F330584-10E9-4267-8E26-4D2DDDC504D5";
shapes = (
{
closed = 1;
nodes = (
(432,333,o),
(373,410,o),
(373,563,cs),
(373,579,o),
(376,601,o),
(379,629,cs),
(382,656,o),
(388,689,o),
(396,727,c),
(412,791,o),
(429,844,o),
(447,885,cs),
(465,926,o),
(484,959,o),
(504,985,cs),
(543,1034,o),
(597,1058,o),
(667,1058,cs),
(718,1058,o),
(757,1042,o),
(785,1012,c),
(812,980,o),
(827,932,o),
(830,869,c),
(1125,892,l),
(1117,988,o),
(1085,1068,o),
(1027,1130,cs),
(970,1193,o),
(894,1232,o),
(798,1248,c),
(830,1409,l),
(665,1409,l),
(634,1255,l),
(556,1251,o),
(486,1236,o),
(425,1210,cs),
(363,1183,o),
(309,1146,o),
(263,1098,cs),
(221,1055,o),
(186,1002,o),
(156,942,cs),
(126,881,o),
(103,812,o),
(85,734,cs),
(74,688,o),
(68,630,o),
(68,561,cs),
(68,444,o),
(99,350,o),
(160,277,cs),
(221,206,o),
(306,161,o),
(418,143,c),
(386,-31,l),
(551,-31,l),
(583,136,l),
(703,144,o),
(801,175,o),
(878,233,cs),
(956,290,o),
(1012,375,o),
(1046,489,c),
(764,539,l),
(744,470,o),
(716,419,o),
(681,385,cs),
(646,350,o),
(602,333,o),
(548,333,cs)
);
}
);
width = 1139;
},
{
layerId = "70541219-6074-4DB1-927E-09A6A4A4AC13";
shapes = (
{
closed = 1;
nodes = (
(418,291,o),
(349,376,o),
(349,549,cs),
(349,580,o),
(351,612,o),
(355,646,cs),
(359,680,o),
(365,715,o),
(372,751,c),
(386,813,o),
(404,868,o),
(426,918,cs),
(449,968,o),
(475,1008,o),
(506,1035,c),
(554,1082,o),
(619,1104,o),
(701,1104,cs),
(759,1104,o),
(805,1087,o),
(839,1053,cs),
(874,1019,o),
(893,969,o),
(896,905,c),
(1099,930,l),
(1093,1018,o),
(1065,1089,o),
(1014,1146,cs),
(964,1202,o),
(893,1237,o),
(804,1250,c),
(834,1409,l),
(701,1409,l),
(672,1257,l),
(586,1253,o),
(512,1234,o),
(450,1202,cs),
(388,1169,o),
(335,1123,o),
(291,1064,cs),
(263,1027,o),
(238,984,o),
(216,936,c),
(196,887,o),
(178,834,o),
(165,778,cs),
(147,706,o),
(138,631,o),
(138,553,cs),
(138,437,o),
(165,343,o),
(220,272,cs),
(275,201,o),
(354,157,o),
(456,143,c),
(422,-31,l),
(555,-31,l),
(587,136,l),
(691,142,o),
(779,172,o),
(851,226,cs),
(922,281,o),
(976,361,o),
(1014,465,c),
(830,515,l),
(804,440,o),
(768,384,o),
(723,347,cs),
(678,309,o),
(623,291,o),
(558,291,cs)
);
}
);
width = 1139;
},
{
layerId = "D7EC7508-C152-41F5-B530-A2FB36F9EC58";
shapes = (
{
closed = 1;
nodes = (
(409,262,o),
(332,354,o),
(332,539,cs),
(332,580,o),
(335,619,o),
(339,658,cs),
(343,696,o),
(349,732,o),
(355,766,c),
(368,827,o),
(387,885,o),
(413,941,cs),
(439,997,o),
(470,1040,o),
(507,1069,cs),
(562,1113,o),
(634,1134,o),
(723,1134,cs),
(786,1134,o),
(837,1116,o),
(876,1081,cs),
(915,1045,o),
(936,994,o),
(940,929,c),
(1082,955,l),
(1077,1037,o),
(1052,1104,o),
(1005,1156,cs),
(959,1208,o),
(893,1240,o),
(808,1252,c),
(836,1409,l),
(725,1409,l),
(698,1258,l),
(606,1254,o),
(529,1233,o),
(467,1197,cs),
(405,1160,o),
(352,1108,o),
(310,1041,cs),
(290,1009,o),
(273,972,o),
(257,932,c),
(242,891,o),
(229,849,o),
(218,807,cs),
(196,717,o),
(185,631,o),
(185,548,cs),
(185,432,o),
(210,339,o),
(261,268,cs),
(312,198,o),
(385,155,o),
(481,142,c),
(446,-31,l),
(557,-31,l),
(589,136,l),
(684,141,o),
(765,169,o),
(832,222,cs),
(899,275,o),
(952,351,o),
(992,450,c),
(874,499,l),
(844,419,o),
(803,360,o),
(751,321,cs),
(699,281,o),
(637,262,o),
(564,262,cs)
);
}
);
width = 1139;
}
);
unicode = 162;
}
{
glyphname = sterling;
layers = (
{
layerId = "4BF4B489-BD31-44B3-B107-FC4282D889AB";
shapes = (
{
closed = 1;
nodes = (
(978,0,l),
(1022,248,l),
(254,248,l),
(320,271,o),
(371,300,o),
(408,336,cs),
(444,372,o),
(470,420,o),
(484,478,cs),
(511,590,l),
(716,590,l),
(754,787,l),
(550,787,l),
(601,1042,ls),
(612,1103,o),
(627,1146,o),
(646,1172,cs),
(664,1197,o),
(691,1210,o),
(727,1210,cs),
(774,1210,o),
(807,1197,o),
(829,1172,cs),
(850,1147,o),
(864,1101,o),
(872,1036,c),
(1171,1083,l),
(1163,1193,o),
(1121,1279,o),
(1048,1339,cs),
(974,1400,o),
(872,1430,o),
(743,1430,cs),
(607,1430,o),
(503,1399,o),
(431,1336,cs),
(359,1274,o),
(310,1173,o),
(285,1034,c),
(236,787,l),
(64,787,l),
(27,590,l),
(215,590,l),
(192,481,ls),
(179,419,o),
(154,369,o),
(117,330,cs),
(79,291,o),
(30,261,o),
(-31,239,c),
(-77,0,l)
);
}
);
width = 1139;
},
{
layerId = "86356D96-A9F7-466C-8338-FA4F598E1FDA";
shapes = (
{
closed = 1;
nodes = (
(977,0,l),
(1016,215,l),
(236,215,l),
(300,240,o),
(351,274,o),
(389,317,cs),
(427,361,o),
(454,415,o),
(467,478,cs),
(494,602,l),
(769,602,l),
(803,776,l),
(529,776,l),
(582,1042,l),
(594,1111,o),
(614,1160,o),
(641,1190,cs),
(667,1220,o),
(705,1235,o),
(755,1235,cs),
(803,1235,o),
(839,1222,o),
(866,1198,cs),
(893,1174,o),
(911,1132,o),
(921,1075,c),
(1173,1123,l),
(1163,1219,o),
(1122,1295,o),
(1052,1349,cs),
(981,1403,o),
(887,1430,o),
(768,1430,cs),
(636,1430,o),
(533,1399,o),
(460,1335,cs),
(387,1273,o),
(337,1172,o),
(312,1034,cs),
(261,776,l),
(84,776,l),
(51,602,l),
(238,602,l),
(214,481,ls),
(200,412,o),
(174,356,o),
(136,312,cs),
(98,269,o),
(48,235,o),
(-14,210,c),
(-55,0,l)
);
}
);
width = 1139;
},
{
layerId = "55E58B27-7540-477B-A952-538A3E316EF2";
shapes = (
{
closed = 1;
nodes = (
(977,0,l),
(1008,167,l),
(210,167,l),
(270,194,o),
(320,235,o),
(362,289,cs),
(402,343,o),
(429,406,o),
(443,478,cs),
(470,620,l),
(849,620,l),
(875,758,l),
(497,758,l),
(552,1042,ls),
(568,1122,o),
(595,1180,o),
(634,1217,cs),
(673,1253,o),
(727,1271,o),
(797,1271,cs),
(845,1271,o),
(887,1260,o),
(923,1237,cs),
(957,1214,o),
(981,1180,o),
(993,1133,c),
(1177,1183,l),
(1163,1259,o),
(1122,1319,o),
(1058,1363,cs),
(993,1408,o),
(908,1430,o),
(806,1430,cs),
(678,1430,o),
(578,1398,o),
(503,1335,cs),
(429,1271,o),
(378,1171,o),
(352,1034,cs),
(297,758,l),
(114,758,l),
(87,620,l),
(274,620,l),
(246,481,ls),
(230,401,o),
(203,336,o),
(165,286,cs),
(125,235,o),
(74,196,o),
(10,166,c),
(-21,0,l)
);
}
);
width = 1139;
},
{
layerId = "79976DCB-F9F8-4AE0-A082-2E792CAF2855";
shapes = (
{
closed = 1;
nodes = (
(976,0,l),
(1002,134,l),
(192,134,l),
(250,163,o),
(300,209,o),
(343,270,cs),
(385,332,o),
(413,401,o),
(426,478,cs),
(453,632,l),
(902,632,l),
(924,747,l),
(476,747,l),
(533,1042,ls),
(550,1130,o),
(582,1194,o),
(629,1235,cs),
(676,1276,o),
(741,1296,o),
(825,1296,cs),
(874,1296,o),
(919,1285,o),
(960,1263,cs),
(1000,1241,o),
(1028,1211,o),
(1042,1172,c),
(1179,1223,l),
(1163,1285,o),
(1123,1335,o),
(1062,1373,cs),
(1000,1411,o),
(923,1430,o),
(831,1430,cs),
(707,1430,o),
(608,1398,o),
(532,1334,cs),
(457,1270,o),
(405,1170,o),
(379,1034,cs),
(322,747,l),
(134,747,l),
(111,632,l),
(297,632,l),
(268,481,ls),
(251,394,o),
(223,323,o),
(184,268,cs),
(144,213,o),
(92,170,o),
(27,137,c),
(1,0,l)
);
}
);
width = 1139;
}
);
unicode = 163;
}
{
glyphname = currency;
layers = (
{
layerId = "31C81AF0-C452-43E7-8668-722D0E517E96";
shapes = (
{
closed = 1;
nodes = (
(138,611,o),
(153,545,o),
(183,487,c),
(26,327,l),
(220,133,l),
(375,292,l),
(435,264,o),
(501,250,o),
(573,250,cs),
(646,250,o),
(713,265,o),
(774,296,c),
(929,138,l),
(1124,335,l),
(967,490,l),
(995,549,o),
(1009,614,o),
(1009,684,cs),
(1009,758,o),
(994,823,o),
(963,881,c),
(1125,1042,l),
(931,1236,l),
(771,1075,l),
(713,1105,o),
(647,1120,o),
(573,1120,cs),
(504,1120,o),
(438,1105,o),
(376,1076,c),
(224,1231,l),
(31,1039,l),
(186,884,l),
(154,824,o),
(138,757,o),
(138,684,cs)
);
},
{
closed = 1;
nodes = (
(413,717,o),
(420,744,o),
(435,768,c),
(449,793,o),
(469,812,o),
(494,826,cs),
(518,840,o),
(545,847,o),
(573,847,cs),
(603,847,o),
(631,839,o),
(654,825,cs),
(678,810,o),
(698,791,o),
(712,767,cs),
(726,743,o),
(733,716,o),
(733,686,cs),
(733,658,o),
(726,632,o),
(711,607,cs),
(697,582,o),
(677,562,o),
(653,547,cs),
(630,532,o),
(603,525,o),
(573,525,cs),
(544,525,o),
(516,532,o),
(492,546,cs),
(467,561,o),
(448,580,o),
(434,605,cs),
(420,629,o),
(413,656,o),
(413,686,cs)
);
}
);
width = 1139;
},
{
layerId = "42D11CF2-4BFF-4A3C-B658-4C314917569F";
shapes = (
{
closed = 1;
nodes = (
(147,604,o),
(166,532,o),
(204,468,c),
(65,328,l),
(228,164,l),
(366,305,l),
(430,268,o),
(502,250,o),
(582,250,cs),
(661,250,o),
(734,269,o),
(800,307,c),
(937,168,l),
(1100,334,l),
(962,470,l),
(1000,535,o),
(1018,606,o),
(1018,684,cs),
(1018,763,o),
(999,835,o),
(961,900,c),
(1100,1039,l),
(937,1202,l),
(798,1063,l),
(734,1101,o),
(662,1120,o),
(582,1120,cs),
(505,1120,o),
(432,1101,o),
(366,1063,c),
(232,1200,l),
(69,1038,l),
(205,902,l),
(167,836,o),
(147,764,o),
(147,684,cs)
);
},
{
closed = 1;
nodes = (
(381,724,o),
(390,757,o),
(408,788,cs),
(426,819,o),
(451,843,o),
(482,861,cs),
(512,879,o),
(546,888,o),
(582,888,cs),
(620,888,o),
(654,878,o),
(683,861,cs),
(714,842,o),
(739,818,o),
(757,788,cs),
(774,758,o),
(783,723,o),
(783,686,cs),
(783,650,o),
(774,617,o),
(756,586,cs),
(738,555,o),
(713,530,o),
(682,512,c),
(653,493,o),
(619,484,o),
(582,484,cs),
(545,484,o),
(511,493,o),
(481,511,cs),
(450,530,o),
(425,554,o),
(408,585,c),
(390,615,o),
(381,649,o),
(381,686,cs)
);
}
);
width = 1139;
},
{
layerId = "D06BE3A0-2FE9-4743-9DA4-DC1042F849F0";
shapes = (
{
closed = 1;
nodes = (
(161,595,o),
(185,514,o),
(234,440,c),
(125,330,l),
(240,212,l),
(352,325,l),
(424,275,o),
(505,250,o),
(596,250,cs),
(685,250,o),
(766,274,o),
(840,323,c),
(949,214,l),
(1064,332,l),
(956,440,l),
(1006,513,o),
(1032,595,o),
(1032,684,cs),
(1032,771,o),
(1007,852,o),
(957,928,c),
(1062,1033,l),
(945,1152,l),
(840,1045,l),
(765,1095,o),
(684,1120,o),
(596,1120,cs),
(505,1120,o),
(424,1094,o),
(350,1043,c),
(244,1152,l),
(127,1036,l),
(235,928,l),
(185,855,o),
(161,773,o),
(161,684,cs)
);
},
{
closed = 1;
nodes = (
(333,734,o),
(344,778,o),
(369,817,c),
(392,858,o),
(424,890,o),
(464,914,cs),
(503,938,o),
(548,950,o),
(596,950,cs),
(644,950,o),
(689,938,o),
(728,914,cs),
(767,890,o),
(799,859,o),
(823,819,cs),
(847,779,o),
(859,735,o),
(859,686,cs),
(859,637,o),
(847,593,o),
(822,553,cs),
(798,513,o),
(766,482,o),
(727,458,cs),
(688,435,o),
(644,424,o),
(596,424,cs),
(548,424,o),
(503,436,o),
(463,459,cs),
(423,483,o),
(392,515,o),
(368,555,cs),
(344,595,o),
(333,638,o),
(333,686,cs)
);
}
);
width = 1139;
},
{
layerId = "8B25E0A0-F27A-4A76-9983-E40B0C67E833";
shapes = (
{
closed = 1;
nodes = (
(170,588,o),
(198,501,o),
(255,421,c),
(164,331,l),
(248,243,l),
(343,338,l),
(419,279,o),
(506,250,o),
(605,250,cs),
(700,250,o),
(787,278,o),
(866,334,c),
(957,244,l),
(1040,331,l),
(951,420,l),
(1011,499,o),
(1041,587,o),
(1041,684,cs),
(1041,776,o),
(1012,864,o),
(955,947,c),
(1037,1030,l),
(951,1118,l),
(867,1033,l),
(786,1091,o),
(699,1120,o),
(605,1120,cs),
(506,1120,o),
(418,1090,o),
(340,1030,c),
(252,1121,l),
(165,1035,l),
(254,946,l),
(198,867,o),
(170,780,o),
(170,684,c)
);
},
{
closed = 1;
nodes = (
(301,741,o),
(314,791,o),
(342,837,cs),
(369,884,o),
(406,921,o),
(452,949,cs),
(497,977,o),
(549,991,o),
(605,991,cs),
(661,991,o),
(712,977,o),
(757,950,cs),
(803,922,o),
(840,886,o),
(868,840,cs),
(895,794,o),
(909,742,o),
(909,686,cs),
(909,629,o),
(895,578,o),
(867,532,cs),
(839,486,o),
(802,450,o),
(756,423,cs),
(711,396,o),
(660,383,o),
(605,383,cs),
(549,383,o),
(498,397,o),
(452,424,cs),
(406,452,o),
(369,489,o),
(342,535,cs),
(314,581,o),
(301,631,o),
(301,686,cs)
);
}
);
width = 1139;
}
);
unicode = 164;
}
{
glyphname = yen;
layers = (
{
layerId = "785665E2-8136-4865-9B7E-748FCB278F4B";
shapes = (
{
closed = 1;
nodes = (
(676,191,l),
(984,191,l),
(1014,352,l),
(706,352,l),
(739,519,l),
(1047,519,l),
(1078,679,l),
(832,679,l),
(1300,1409,l),
(946,1409,l),
(630,847,l),
(537,1409,l),
(192,1409,l),
(376,679,l),
(129,679,l),
(98,519,l),
(405,519,l),
(373,352,l),
(65,352,l),
(35,191,l),
(341,191,l),
(304,0,l),
(639,0,l)
);
}
);
width = 1139;
},
{
layerId = "C6FD8471-1839-414E-9C91-DDB255379DAE";
shapes = (
{
closed = 1;
nodes = (
(651,229,l),
(985,229,l),
(1013,379,l),
(680,379,l),
(712,541,l),
(1045,541,l),
(1074,689,l),
(802,689,l),
(1301,1409,l),
(998,1409,l),
(619,818,l),
(474,1409,l),
(181,1409,l),
(399,689,l),
(127,689,l),
(99,541,l),
(432,541,l),
(400,379,l),
(67,379,l),
(38,229,l),
(370,229,l),
(326,0,l),
(607,0,l)
);
}
);
width = 1139;
},
{
layerId = "341BCE00-9002-445C-A6C9-0431889C03AA";
shapes = (
{
closed = 1;
nodes = (
(615,287,l),
(987,287,l),
(1013,419,l),
(640,419,l),
(670,575,l),
(1043,575,l),
(1068,705,l),
(758,705,l),
(1303,1409,l),
(1076,1409,l),
(603,774,l),
(378,1409,l),
(163,1409,l),
(435,705,l),
(125,705,l),
(99,575,l),
(472,575,l),
(440,419,l),
(69,419,l),
(44,287,l),
(414,287,l),
(358,0,l),
(559,0,l)
);
}
);
width = 1139;
},
{
layerId = "42616347-C5BD-494A-B849-B08086064D93";
shapes = (
{
closed = 1;
nodes = (
(590,325,l),
(988,325,l),
(1012,446,l),
(614,446,l),
(643,597,l),
(1041,597,l),
(1064,715,l),
(728,715,l),
(1304,1409,l),
(1128,1409,l),
(592,745,l),
(315,1409,l),
(152,1409,l),
(458,715,l),
(123,715,l),
(100,597,l),
(499,597,l),
(467,446,l),
(71,446,l),
(47,325,l),
(443,325,l),
(380,0,l),
(527,0,l)
);
}
);
width = 1139;
}
);
unicode = 165;
}
{
glyphname = brokenbar;
layers = (
{
layerId = "31C81AF0-C452-43E7-8668-722D0E517E96";
shapes = (
{
closed = 1;
nodes = (
(504,1483,l),
(178,1483,l),
(178,755,l),
(504,755,l)
);
},
{
closed = 1;
nodes = (
(504,324,l),
(178,324,l),
(178,-405,l),
(504,-405,l)
);
}
);
width = 600;
},
{
layerId = "42D11CF2-4BFF-4A3C-B658-4C314917569F";
shapes = (
{
closed = 1;
nodes = (
(459,1484,l),
(188,1484,l),
(188,738,l),
(459,738,l)
);
},
{
closed = 1;
nodes = (
(459,324,l),
(188,324,l),
(188,-422,l),
(459,-422,l)
);
}
);
width = 573;
},
{
layerId = "D06BE3A0-2FE9-4743-9DA4-DC1042F849F0";
shapes = (
{
closed = 1;
nodes = (
(393,1484,l),
(204,1484,l),
(204,714,l),
(393,714,l)
);
},
{
closed = 1;
nodes = (
(393,324,l),
(204,324,l),
(204,-448,l),
(393,-448,l)
);
}
);
width = 532;
},
{
layerId = "8B25E0A0-F27A-4A76-9983-E40B0C67E833";
shapes = (
{
closed = 1;
nodes = (
(354,1485,l),
(220,1485,l),
(220,697,l),
(354,697,l)
);
},
{
closed = 1;
nodes = (
(354,324,l),
(220,324,l),
(220,-465,l),
(354,-465,l)
);
}
);
width = 518;
}
);
unicode = 166;
}
{
glyphname = section;
layers = (
{
layerId = "31C81AF0-C452-43E7-8668-722D0E517E96";
shapes = (
{
closed = 1;
nodes = (
(1125,735,o),
(1092,793,o),
(1026,839,cs),
(960,885,o),
(868,919,o),
(750,939,c),
(688,951,o),
(638,963,o),
(600,976,cs),
(562,989,o),
(532,1008,o),
(510,1035,c),
(506,1048,o),
(503,1063,o),
(503,1080,cs),
(503,1155,o),
(570,1193,o),
(703,1193,cs),
(752,1193,o),
(795,1184,o),
(831,1167,cs),
(867,1150,o),
(888,1120,o),
(892,1077,c),
(1190,1102,l),
(1192,1194,o),
(1154,1265,o),
(1076,1314,cs),
(997,1364,o),
(883,1389,o),
(733,1389,cs),
(551,1389,o),
(417,1361,o),
(333,1306,cs),
(248,1251,o),
(206,1164,o),
(206,1045,cs),
(206,929,o),
(256,846,o),
(358,797,c),
(180,749,o),
(90,659,o),
(90,526,cs),
(90,369,o),
(196,274,o),
(409,239,cs),
(511,222,o),
(576,211,o),
(605,206,c),
(646,192,o),
(677,174,o),
(699,152,cs),
(721,129,o),
(731,98,o),
(731,59,cs),
(731,18,o),
(708,-14,o),
(662,-37,cs),
(616,-60,o),
(550,-71,o),
(462,-71,cs),
(396,-71,o),
(347,-60,o),
(313,-38,cs),
(280,-16,o),
(262,22,o),
(262,75,c),
(-47,51,l),
(-44,-59,o),
(-2,-139,o),
(79,-190,cs),
(160,-242,o),
(285,-267,o),
(453,-267,cs),
(637,-267,o),
(778,-234,o),
(877,-168,cs),
(976,-102,o),
(1025,-4,o),
(1025,127,cs),
(1025,233,o),
(981,309,o),
(893,355,c),
(980,388,o),
(1040,429,o),
(1074,478,cs),
(1108,528,o),
(1125,590,o),
(1125,665,cs)
);
},
{
closed = 1;
nodes = (
(393,625,o),
(411,655,o),
(448,674,cs),
(485,693,o),
(534,705,o),
(596,709,c),
(702,688,o),
(773,663,o),
(811,633,c),
(817,624,o),
(821,613,o),
(823,599,cs),
(825,586,o),
(827,571,o),
(827,555,cs),
(827,525,o),
(811,502,o),
(779,483,c),
(746,465,o),
(698,452,o),
(633,445,c),
(544,464,o),
(490,477,o),
(471,486,c),
(451,494,o),
(432,506,o),
(417,522,c),
(401,537,o),
(393,558,o),
(393,584,cs)
);
}
);
width = 1139;
},
{
layerId = "42D11CF2-4BFF-4A3C-B658-4C314917569F";
shapes = (
{
closed = 1;
nodes = (
(1086,739,o),
(1055,799,o),
(995,847,cs),
(935,895,o),
(845,933,o),
(726,960,cs),
(668,973,o),
(620,986,o),
(583,1000,cs),
(546,1014,o),
(517,1032,o),
(497,1054,c),
(482,1073,o),
(474,1094,o),
(474,1118,cs),
(474,1204,o),
(549,1248,o),
(698,1248,cs),
(752,1248,o),
(798,1237,o),
(835,1218,cs),
(872,1198,o),
(895,1166,o),
(902,1120,c),
(1154,1145,l),
(1150,1235,o),
(1112,1304,o),
(1038,1350,cs),
(964,1398,o),
(858,1422,o),
(720,1422,cs),
(551,1422,o),
(424,1394,o),
(343,1340,cs),
(260,1286,o),
(219,1203,o),
(219,1092,cs),
(219,984,o),
(267,904,o),
(365,852,c),
(185,806,o),
(94,715,o),
(94,576,cs),
(94,422,o),
(201,322,o),
(415,276,cs),
(519,254,o),
(586,236,o),
(617,223,cs),
(650,209,o),
(675,191,o),
(692,171,cs),
(710,150,o),
(718,123,o),
(718,90,cs),
(718,42,o),
(694,4,o),
(647,-22,cs),
(600,-48,o),
(532,-61,o),
(441,-61,cs),
(371,-61,o),
(318,-49,o),
(280,-25,cs),
(242,-2,o),
(219,38,o),
(211,93,c),
(-42,58,l),
(-31,-43,o),
(13,-117,o),
(89,-164,cs),
(166,-211,o),
(280,-234,o),
(429,-234,cs),
(604,-234,o),
(738,-203,o),
(832,-139,cs),
(925,-76,o),
(971,17,o),
(971,140,cs),
(971,242,o),
(927,317,o),
(839,366,c),
(928,395,o),
(991,434,o),
(1029,482,cs),
(1067,531,o),
(1086,593,o),
(1086,668,cs)
);
},
{
closed = 1;
nodes = (
(353,666,o),
(373,701,o),
(413,726,cs),
(454,751,o),
(507,766,o),
(574,770,c),
(676,746,o),
(744,722,o),
(781,696,cs),
(798,683,o),
(810,669,o),
(817,651,c),
(825,634,o),
(830,614,o),
(830,592,cs),
(830,552,o),
(810,521,o),
(772,497,c),
(733,474,o),
(677,459,o),
(604,453,c),
(523,472,o),
(470,488,o),
(444,501,cs),
(417,514,o),
(394,531,o),
(378,550,c),
(361,568,o),
(353,592,o),
(353,619,cs)
);
}
);
width = 1139;
},
{
layerId = "D06BE3A0-2FE9-4743-9DA4-DC1042F849F0";
shapes = (
{
closed = 1;
nodes = (
(1026,745,o),
(1001,807,o),
(949,859,cs),
(897,911,o),
(811,955,o),
(690,990,cs),
(637,1006,o),
(593,1022,o),
(558,1037,cs),
(522,1052,o),
(496,1067,o),
(477,1084,cs),
(446,1111,o),
(430,1141,o),
(430,1174,cs),
(430,1278,o),
(517,1330,o),
(690,1330,cs),
(753,1330,o),
(803,1318,o),
(842,1294,cs),
(881,1270,o),
(906,1234,o),
(918,1186,c),
(1100,1211,l),
(1088,1297,o),
(1048,1362,o),
(982,1405,cs),
(914,1448,o),
(821,1470,o),
(700,1470,cs),
(550,1470,o),
(436,1444,o),
(357,1391,cs),
(278,1338,o),
(239,1262,o),
(239,1162,cs),
(239,1066,o),
(284,990,o),
(375,934,c),
(192,892,o),
(100,798,o),
(100,652,cs),
(100,500,o),
(208,394,o),
(425,332,cs),
(532,301,o),
(602,274,o),
(635,249,cs),
(656,234,o),
(671,218,o),
(683,200,c),
(693,181,o),
(698,160,o),
(698,136,cs),
(698,77,o),
(674,32,o),
(625,1,cs),
(576,-30,o),
(505,-45,o),
(411,-45,cs),
(335,-45,o),
(274,-32,o),
(229,-7,c),
(185,20,o),
(153,61,o),
(135,119,c),
(-36,68,l),
(-13,-20,o),
(34,-84,o),
(105,-124,c),
(175,-166,o),
(271,-186,o),
(393,-186,cs),
(555,-186,o),
(678,-156,o),
(763,-97,cs),
(848,-37,o),
(891,48,o),
(891,160,cs),
(891,255,o),
(847,330,o),
(759,384,c),
(849,406,o),
(916,440,o),
(960,488,cs),
(1004,536,o),
(1026,597,o),
(1026,672,cs)
);
},
{
closed = 1;
nodes = (
(293,727,o),
(315,771,o),
(361,804,cs),
(406,837,o),
(466,856,o),
(542,860,c),
(636,834,o),
(701,811,o),
(737,790,cs),
(768,773,o),
(792,752,o),
(809,728,cs),
(825,705,o),
(834,678,o),
(834,646,cs),
(834,592,o),
(810,549,o),
(762,517,c),
(713,486,o),
(647,468,o),
(562,465,c),
(493,485,o),
(439,504,o),
(402,525,cs),
(365,545,o),
(337,567,o),
(320,592,c),
(302,616,o),
(293,643,o),
(293,673,cs)
);
}
);
width = 1139;
},
{
layerId = "8B25E0A0-F27A-4A76-9983-E40B0C67E833";
shapes = (
{
closed = 1;
nodes = (
(987,749,o),
(964,813,o),
(918,867,cs),
(872,921,o),
(788,969,o),
(666,1011,cs),
(617,1028,o),
(575,1045,o),
(541,1061,cs),
(506,1077,o),
(481,1091,o),
(464,1103,c),
(422,1136,o),
(401,1172,o),
(401,1212,cs),
(401,1327,o),
(496,1385,o),
(685,1385,cs),
(753,1385,o),
(806,1371,o),
(846,1345,cs),
(886,1318,o),
(913,1280,o),
(928,1229,c),
(1064,1254,l),
(1046,1338,o),
(1006,1401,o),
(944,1441,cs),
(881,1482,o),
(796,1503,o),
(687,1503,cs),
(550,1503,o),
(443,1477,o),
(367,1425,cs),
(290,1373,o),
(252,1301,o),
(252,1209,cs),
(252,1121,o),
(295,1048,o),
(382,989,c),
(197,949,o),
(104,854,o),
(104,702,cs),
(104,553,o),
(213,442,o),
(431,369,cs),
(540,333,o),
(612,299,o),
(647,266,c),
(660,251,o),
(669,235,o),
(676,219,c),
(682,202,o),
(685,185,o),
(685,167,cs),
(685,101,o),
(660,50,o),
(610,16,cs),
(560,-18,o),
(487,-35,o),
(390,-35,cs),
(310,-35,o),
(245,-21,o),
(196,6,cs),
(147,34,o),
(110,77,o),
(84,137,c),
(-31,75,l),
(0,-4,o),
(49,-62,o),
(115,-98,cs),
(181,-135,o),
(266,-153,o),
(369,-153,cs),
(522,-153,o),
(638,-125,o),
(718,-68,cs),
(797,-11,o),
(837,69,o),
(837,173,cs),
(837,264,o),
(793,338,o),
(705,395,c),
(797,413,o),
(867,445,o),
(915,492,cs),
(963,539,o),
(987,600,o),
(987,675,cs)
);
},
{
closed = 1;
nodes = (
(253,768,o),
(277,817,o),
(326,856,cs),
(375,895,o),
(439,917,o),
(520,921,c),
(610,892,o),
(672,870,o),
(707,853,cs),
(749,832,o),
(781,808,o),
(803,780,cs),
(825,753,o),
(837,721,o),
(837,683,cs),
(837,619,o),
(809,568,o),
(755,531,cs),
(700,495,o),
(626,475,o),
(533,473,c),
(472,493,o),
(419,515,o),
(375,540,cs),
(331,565,o),
(299,592,o),
(281,620,c),
(262,647,o),
(253,677,o),
(253,708,cs)
);
}
);
width = 1139;
}
);
unicode = 167;
}
{
glyphname = dieresis;
layers = (
{
layerId = "4BF4B489-BD31-44B3-B107-FC4282D889AB";
shapes = (
{
closed = 1;
nodes = (
(894,1428,l),
(648,1428,l),
(599,1186,l),
(846,1186,l)
);
},
{
closed = 1;
nodes = (
(420,1428,l),
(180,1428,l),
(134,1186,l),
(372,1186,l)
);
}
);
width = 682;
},
{
layerId = "86356D96-A9F7-466C-8338-FA4F598E1FDA";
shapes = (
{
closed = 1;
nodes = (
(837,1419,l),
(617,1419,l),
(572,1197,l),
(794,1197,l)
);
},
{
closed = 1;
nodes = (
(395,1419,l),
(177,1419,l),
(135,1197,l),
(351,1197,l)
);
}
);
width = 682;
},
{
layerId = "55E58B27-7540-477B-A952-538A3E316EF2";
shapes = (
{
closed = 1;
nodes = (
(753,1407,l),
(569,1407,l),
(532,1215,l),
(716,1215,l)
);
},
{
closed = 1;
nodes = (
(357,1407,l),
(173,1407,l),
(137,1215,l),
(321,1215,l)
);
}
);
width = 682;
},
{
layerId = "79976DCB-F9F8-4AE0-A082-2E792CAF2855";
shapes = (
{
closed = 1;
nodes = (
(696,1398,l),
(538,1398,l),
(505,1226,l),
(664,1226,l)
);
},
{
closed = 1;
nodes = (
(332,1398,l),
(170,1398,l),
(138,1226,l),
(300,1226,l)
);
}
);
width = 682;
}
);
unicode = 168;
}
{
glyphname = copyright;
layers = (
{
layerId = "2D57F921-1619-4848-A780-0286F5C5F7A5";
shapes = (
{
closed = 1;
nodes = (
(1507,836,o),
(1475,957,o),
(1411,1069,cs),
(1347,1180,o),
(1259,1268,o),
(1147,1333,cs),
(1035,1398,o),
(914,1430,o),
(784,1430,cs),
(656,1430,o),
(535,1398,o),
(423,1333,cs),
(311,1268,o),
(223,1180,o),
(158,1068,cs),
(94,957,o),
(61,836,o),
(61,707,cs),
(61,581,o),
(93,463,o),
(155,352,cs),
(218,241,o),
(306,152,o),
(418,85,cs),
(532,18,o),
(654,-16,o),
(784,-16,cs),
(913,-16,o),
(1033,16,o),
(1146,81,cs),
(1258,145,o),
(1347,233,o),
(1411,346,cs),
(1475,458,o),
(1507,578,o),
(1507,707,cs)
);
},
{
closed = 1;
nodes = (
(1382,601,o),
(1355,501,o),
(1302,408,cs),
(1249,315,o),
(1176,242,o),
(1083,188,cs),
(990,135,o),
(891,108,o),
(784,108,cs),
(677,108,o),
(578,135,o),
(486,189,cs),
(395,242,o),
(322,316,o),
(270,409,cs),
(216,502,o),
(190,601,o),
(190,707,cs),
(190,821,o),
(219,924,o),
(276,1016,cs),
(334,1108,o),
(408,1179,o),
(499,1228,cs),
(589,1277,o),
(685,1302,o),
(784,1302,cs),
(890,1302,o),
(990,1275,o),
(1082,1221,cs),
(1175,1167,o),
(1248,1095,o),
(1301,1004,cs),
(1355,913,o),
(1382,814,o),
(1382,707,cs)
);
},
{
closed = 1;
nodes = (
(884,289,o),
(957,309,o),
(1016,348,cs),
(1075,387,o),
(1123,449,o),
(1160,534,c),
(970,589,l),
(940,500,o),
(883,455,o),
(799,455,cs),
(736,455,o),
(688,477,o),
(654,521,cs),
(620,565,o),
(603,628,o),
(603,709,cs),
(603,788,o),
(619,848,o),
(651,890,cs),
(683,932,o),
(731,953,o),
(795,953,cs),
(838,953,o),
(874,942,o),
(902,919,cs),
(930,896,o),
(951,866,o),
(966,829,c),
(1150,876,l),
(1088,1037,o),
(968,1118,o),
(788,1118,cs),
(660,1118,o),
(562,1084,o),
(493,1015,cs),
(424,946,o),
(389,844,o),
(389,709,cs),
(389,575,o),
(425,472,o),
(496,399,cs),
(567,326,o),
(668,289,o),
(799,289,cs)
);
}
);
width = 1509;
},
{
layerId = "7F330584-10E9-4267-8E26-4D2DDDC504D5";
shapes = (
{
closed = 1;
nodes = (
(1508,836,o),
(1476,957,o),
(1412,1069,cs),
(1348,1180,o),
(1260,1268,o),
(1148,1333,cs),
(1036,1398,o),
(915,1430,o),
(785,1430,cs),
(657,1430,o),
(536,1398,o),
(424,1333,cs),
(312,1268,o),
(224,1180,o),
(159,1068,cs),
(95,957,o),
(62,836,o),
(62,707,cs),
(62,581,o),
(94,463,o),
(156,352,cs),
(219,241,o),
(307,152,o),
(419,85,cs),
(533,18,o),
(655,-16,o),
(785,-16,cs),
(914,-16,o),
(1034,16,o),
(1147,81,cs),
(1259,145,o),
(1348,233,o),
(1412,346,cs),
(1476,458,o),
(1508,578,o),
(1508,707,cs)
);
},
{
closed = 1;
nodes = (
(1394,599,o),
(1367,497,o),
(1313,403,cs),
(1259,308,o),
(1184,234,o),
(1090,179,cs),
(995,125,o),
(894,98,o),
(785,98,cs),
(676,98,o),
(575,125,o),
(481,180,cs),
(388,234,o),
(314,309,o),
(261,403,cs),
(206,497,o),
(179,598,o),
(179,707,cs),
(179,820,o),
(208,924,o),
(264,1017,cs),
(322,1111,o),
(397,1184,o),
(490,1236,cs),
(582,1287,o),
(681,1313,o),
(785,1313,cs),
(893,1313,o),
(995,1286,o),
(1089,1231,cs),
(1183,1177,o),
(1258,1103,o),
(1312,1010,cs),
(1367,917,o),
(1394,816,o),
(1394,707,cs)
);
},
{
closed = 1;
nodes = (
(881,286,o),
(952,305,o),
(1010,342,cs),
(1068,380,o),
(1116,440,o),
(1155,524,c),
(991,572,l),
(953,478,o),
(889,430,o),
(798,430,cs),
(728,430,o),
(674,455,o),
(636,503,cs),
(597,552,o),
(578,620,o),
(578,709,cs),
(578,797,o),
(596,864,o),
(633,910,cs),
(669,956,o),
(723,979,o),
(794,979,cs),
(840,979,o),
(879,968,o),
(910,945,cs),
(942,922,o),
(966,890,o),
(983,850,c),
(1143,893,l),
(1081,1046,o),
(963,1123,o),
(789,1123,cs),
(661,1123,o),
(564,1088,o),
(496,1018,cs),
(427,947,o),
(393,844,o),
(393,709,cs),
(393,574,o),
(429,470,o),
(499,397,cs),
(570,323,o),
(669,286,o),
(798,286,cs)
);
}
);
width = 1509;
},
{
layerId = "70541219-6074-4DB1-927E-09A6A4A4AC13";
shapes = (
{
closed = 1;
nodes = (
(1508,836,o),
(1476,957,o),
(1412,1069,cs),
(1348,1180,o),
(1260,1268,o),
(1148,1333,cs),
(1036,1398,o),
(915,1430,o),
(785,1430,cs),
(657,1430,o),
(536,1398,o),
(424,1333,cs),
(312,1268,o),
(224,1180,o),
(159,1068,cs),
(95,957,o),
(62,836,o),
(62,707,cs),
(62,581,o),
(94,463,o),
(156,352,cs),
(219,241,o),
(307,152,o),
(419,85,cs),
(533,18,o),
(655,-16,o),
(785,-16,cs),
(914,-16,o),
(1034,16,o),
(1147,81,cs),
(1259,145,o),
(1348,233,o),
(1412,346,cs),
(1476,458,o),
(1508,578,o),
(1508,707,cs)
);
},
{
closed = 1;
nodes = (
(1412,595,o),
(1384,491,o),
(1328,394,cs),
(1273,299,o),
(1197,222,o),
(1100,167,cs),
(1004,111,o),
(899,82,o),
(785,82,cs),
(674,82,o),
(570,110,o),
(474,166,cs),
(379,221,o),
(302,297,o),
(247,395,c),
(190,491,o),
(163,595,o),
(163,707,cs),
(163,819,o),
(191,923,o),
(247,1020,cs),
(303,1116,o),
(379,1192,o),
(476,1248,cs),
(572,1303,o),
(676,1331,o),
(785,1331,cs),
(897,1331,o),
(1002,1302,o),
(1098,1247,cs),
(1196,1191,o),
(1272,1115,o),
(1328,1018,cs),
(1384,923,o),
(1412,819,o),
(1412,707,cs)
);
},
{
closed = 1;
nodes = (
(876,280,o),
(944,298,o),
(1001,334,cs),
(1058,368,o),
(1107,427,o),
(1147,508,c),
(1021,546,l),
(973,444,o),
(899,394,o),
(798,394,cs),
(717,394,o),
(654,421,o),
(608,476,cs),
(563,531,o),
(540,609,o),
(540,709,cs),
(540,811,o),
(562,887,o),
(605,939,cs),
(649,991,o),
(711,1017,o),
(792,1017,cs),
(842,1017,o),
(885,1006,o),
(923,983,cs),
(960,960,o),
(988,927,o),
(1009,882,c),
(1133,917,l),
(1069,1060,o),
(955,1131,o),
(789,1131,cs),
(664,1131,o),
(567,1095,o),
(500,1021,cs),
(433,948,o),
(399,844,o),
(399,709,cs),
(399,574,o),
(434,468,o),
(504,393,cs),
(573,318,o),
(671,280,o),
(798,280,cs)
);
}
);
width = 1509;
},
{
layerId = "D7EC7508-C152-41F5-B530-A2FB36F9EC58";
shapes = (
{
closed = 1;
nodes = (
(1509,836,o),
(1477,957,o),
(1413,1069,cs),
(1349,1180,o),
(1261,1268,o),
(1149,1333,cs),
(1037,1398,o),
(916,1430,o),
(786,1430,cs),
(658,1430,o),
(537,1398,o),
(425,1333,cs),
(313,1268,o),
(225,1180,o),
(160,1068,cs),
(96,957,o),
(63,836,o),
(63,707,cs),
(63,581,o),
(95,463,o),
(157,352,cs),
(220,241,o),
(308,152,o),
(420,85,cs),
(534,18,o),
(656,-16,o),
(786,-16,cs),
(915,-16,o),
(1035,16,o),
(1148,81,cs),
(1260,145,o),
(1349,233,o),
(1413,346,cs),
(1477,458,o),
(1509,578,o),
(1509,707,cs)
);
},
{
closed = 1;
nodes = (
(1424,593,o),
(1396,487,o),
(1339,389,cs),
(1283,292,o),
(1205,214,o),
(1107,158,cs),
(1009,101,o),
(902,72,o),
(786,72,cs),
(673,72,o),
(567,100,o),
(469,157,cs),
(372,213,o),
(294,290,o),
(238,389,cs),
(180,486,o),
(152,592,o),
(152,707,cs),
(152,818,o),
(180,923,o),
(235,1021,cs),
(291,1119,o),
(368,1197,o),
(467,1256,cs),
(565,1313,o),
(672,1342,o),
(786,1342,cs),
(900,1342,o),
(1007,1313,o),
(1105,1257,cs),
(1204,1201,o),
(1282,1123,o),
(1339,1024,cs),
(1396,927,o),
(1424,821,o),
(1424,707,cs)
);
},
{
closed = 1;
nodes = (
(873,277,o),
(939,294,o),
(995,328,cs),
(1051,361,o),
(1100,418,o),
(1142,498,c),
(1042,529,l),
(986,422,o),
(905,369,o),
(797,369,cs),
(709,369,o),
(640,399,o),
(590,458,cs),
(540,518,o),
(515,601,o),
(515,709,cs),
(515,820,o),
(539,903,o),
(587,959,cs),
(635,1015,o),
(703,1043,o),
(791,1043,cs),
(844,1043,o),
(890,1032,o),
(931,1009,cs),
(972,986,o),
(1003,951,o),
(1026,903,c),
(1126,934,l),
(1062,1069,o),
(950,1136,o),
(790,1136,cs),
(665,1136,o),
(569,1099,o),
(503,1024,cs),
(436,949,o),
(403,844,o),
(403,709,cs),
(403,573,o),
(438,466,o),
(507,391,cs),
(576,315,o),
(672,277,o),
(797,277,c)
);
}
);
width = 1509;
}
);
unicode = 169;
}
{
glyphname = ordfeminine;
layers = (
{
layerId = "31C81AF0-C452-43E7-8668-722D0E517E96";
shapes = (
{
closed = 1;
nodes = (
(717,724,o),
(762,728,o),
(784,735,c),
(791,836,l),
(776,833,o),
(763,831,o),
(752,831,cs),
(715,831,o),
(697,843,o),
(697,866,c),
(699,875,o),
(701,882,o),
(701,889,cs),
(701,896,o),
(702,903,o),
(701,909,c),
(751,1147,ls),
(754,1160,o),
(757,1174,o),
(760,1187,cs),
(763,1201,o),
(764,1213,o),
(764,1223,cs),
(764,1291,o),
(745,1339,o),
(706,1367,cs),
(668,1395,o),
(602,1409,o),
(508,1409,cs),
(413,1409,o),
(342,1392,o),
(295,1359,cs),
(248,1326,o),
(220,1285,o),
(210,1236,c),
(407,1216,l),
(414,1236,o),
(423,1251,o),
(436,1262,cs),
(449,1272,o),
(472,1278,o),
(505,1278,cs),
(539,1278,o),
(556,1255,o),
(556,1209,cs),
(556,1200,o),
(553,1177,o),
(545,1139,c),
(460,1139,l),
(333,1136,o),
(243,1115,o),
(192,1074,cs),
(140,1033,o),
(114,976,o),
(114,901,cs),
(114,847,o),
(131,802,o),
(166,767,cs),
(201,732,o),
(245,714,o),
(299,714,cs),
(349,714,o),
(388,723,o),
(418,741,cs),
(448,759,o),
(480,798,o),
(513,857,c),
(515,857,l),
(513,815,l),
(513,786,o),
(524,763,o),
(548,747,cs),
(572,732,o),
(606,724,o),
(650,724,cs)
);
},
{
closed = 1;
nodes = (
(335,973,o),
(347,994,o),
(372,1009,cs),
(396,1023,o),
(424,1031,o),
(455,1032,c),
(525,1032,l),
(505,967,ls),
(497,940,o),
(488,918,o),
(478,901,cs),
(468,884,o),
(457,871,o),
(446,864,cs),
(434,856,o),
(423,852,o),
(410,852,cs),
(391,852,o),
(373,859,o),
(358,873,cs),
(343,886,o),
(335,911,o),
(335,947,cs)
);
}
);
width = 758;
},
{
layerId = "42D11CF2-4BFF-4A3C-B658-4C314917569F";
shapes = (
{
closed = 1;
nodes = (
(728,701,o),
(767,705,o),
(789,713,c),
(799,815,l),
(783,811,o),
(770,809,o),
(758,809,cs),
(723,809,o),
(706,823,o),
(706,851,c),
(707,859,o),
(708,866,o),
(709,874,c),
(709,881,o),
(710,890,o),
(710,897,c),
(761,1148,ls),
(764,1161,o),
(767,1176,o),
(770,1189,c),
(772,1203,o),
(773,1216,o),
(773,1226,cs),
(773,1292,o),
(753,1340,o),
(711,1371,cs),
(671,1402,o),
(605,1417,o),
(514,1417,cs),
(422,1417,o),
(351,1399,o),
(302,1365,cs),
(253,1331,o),
(222,1286,o),
(209,1228,c),
(384,1209,l),
(392,1238,o),
(405,1259,o),
(424,1274,cs),
(443,1288,o),
(472,1296,o),
(511,1296,cs),
(562,1296,o),
(588,1269,o),
(588,1216,cs),
(588,1205,o),
(584,1177,o),
(575,1131,c),
(458,1130,ls),
(332,1127,o),
(242,1106,o),
(188,1065,cs),
(133,1023,o),
(105,964,o),
(105,886,cs),
(105,829,o),
(124,782,o),
(160,746,c),
(197,711,o),
(244,692,o),
(303,692,cs),
(354,692,o),
(396,702,o),
(431,722,cs),
(465,742,o),
(501,781,o),
(538,839,c),
(541,839,l),
(538,798,l),
(538,768,o),
(549,744,o),
(573,726,c),
(597,710,o),
(631,701,o),
(675,701,cs)
);
},
{
closed = 1;
nodes = (
(304,953,o),
(318,980,o),
(347,999,cs),
(375,1016,o),
(413,1026,o),
(462,1028,c),
(555,1029,l),
(539,969,ls),
(531,938,o),
(520,912,o),
(505,890,cs),
(489,868,o),
(472,850,o),
(453,839,cs),
(433,827,o),
(412,821,o),
(390,821,cs),
(366,821,o),
(345,829,o),
(329,845,c),
(312,859,o),
(304,884,o),
(304,919,cs)
);
}
);
width = 758;
},
{
layerId = "D06BE3A0-2FE9-4743-9DA4-DC1042F849F0";
shapes = (
{
closed = 1;
nodes = (
(745,667,o),
(773,671,o),
(797,679,c),
(811,783,l),
(794,778,o),
(779,775,o),
(768,775,cs),
(735,775,o),
(718,793,o),
(718,827,c),
(719,835,o),
(720,843,o),
(720,851,c),
(721,860,o),
(723,869,o),
(724,879,c),
(777,1148,ls),
(780,1164,o),
(783,1178,o),
(784,1192,c),
(787,1206,o),
(787,1219,o),
(787,1232,cs),
(787,1294,o),
(764,1343,o),
(719,1377,cs),
(674,1411,o),
(608,1429,o),
(522,1429,cs),
(434,1429,o),
(365,1411,o),
(313,1375,cs),
(260,1339,o),
(226,1286,o),
(207,1216,c),
(348,1199,l),
(359,1240,o),
(378,1272,o),
(406,1293,cs),
(434,1313,o),
(472,1324,o),
(521,1324,cs),
(598,1324,o),
(636,1291,o),
(636,1226,cs),
(636,1211,o),
(631,1176,o),
(619,1119,c),
(454,1116,ls),
(332,1115,o),
(241,1093,o),
(182,1050,cs),
(122,1008,o),
(93,947,o),
(93,864,cs),
(93,802,o),
(112,753,o),
(152,716,cs),
(192,678,o),
(244,660,o),
(309,660,cs),
(362,660,o),
(408,671,o),
(449,693,cs),
(491,715,o),
(533,756,o),
(576,813,c),
(579,813,l),
(576,772,l),
(576,740,o),
(587,714,o),
(611,695,cs),
(635,676,o),
(669,667,o),
(713,667,cs)
);
},
{
closed = 1;
nodes = (
(256,923,o),
(273,959,o),
(308,983,cs),
(342,1007,o),
(398,1020,o),
(472,1022,cs),
(601,1025,l),
(589,971,ls),
(582,936,o),
(567,903,o),
(544,873,cs),
(522,843,o),
(494,819,o),
(462,802,cs),
(430,784,o),
(397,775,o),
(360,775,cs),
(329,775,o),
(303,784,o),
(284,802,cs),
(266,820,o),
(256,845,o),
(256,877,cs)
);
}
);
width = 758;
},
{
layerId = "8B25E0A0-F27A-4A76-9983-E40B0C67E833";
shapes = (
{
closed = 1;
nodes = (
(756,644,o),
(778,648,o),
(802,657,c),
(819,762,l),
(801,756,o),
(786,753,o),
(774,753,cs),
(743,753,o),
(727,773,o),
(727,812,c),
(727,819,o),
(727,827,o),
(728,836,cs),
(729,845,o),
(731,856,o),
(733,867,cs),
(787,1149,ls),
(790,1165,o),
(793,1180,o),
(794,1194,cs),
(796,1208,o),
(796,1222,o),
(796,1235,cs),
(796,1295,o),
(772,1344,o),
(724,1381,cs),
(677,1418,o),
(611,1437,o),
(528,1437,cs),
(443,1437,o),
(374,1418,o),
(320,1381,cs),
(265,1344,o),
(228,1287,o),
(206,1208,c),
(325,1192,l),
(337,1242,o),
(360,1280,o),
(394,1305,cs),
(428,1329,o),
(472,1342,o),
(527,1342,cs),
(621,1342,o),
(668,1305,o),
(668,1233,cs),
(668,1216,o),
(662,1176,o),
(649,1111,c),
(452,1107,l),
(331,1106,o),
(240,1084,o),
(178,1041,cs),
(115,998,o),
(84,935,o),
(84,849,cs),
(84,784,o),
(105,733,o),
(146,695,cs),
(188,657,o),
(243,638,o),
(313,638,cs),
(367,638,o),
(416,650,o),
(462,674,cs),
(508,698,o),
(554,739,o),
(601,795,c),
(605,795,l),
(601,755,l),
(601,722,o),
(612,695,o),
(636,674,cs),
(660,654,o),
(694,644,o),
(738,644,cs)
);
},
{
closed = 1;
nodes = (
(225,903,o),
(244,945,o),
(283,973,cs),
(321,1000,o),
(387,1015,o),
(479,1018,cs),
(631,1022,l),
(623,973,ls),
(616,934,o),
(599,897,o),
(571,862,cs),
(543,827,o),
(509,798,o),
(469,777,cs),
(429,755,o),
(386,744,o),
(340,744,cs),
(304,744,o),
(275,754,o),
(255,774,cs),
(235,793,o),
(225,818,o),
(225,849,cs)
);
}
);
width = 758;
}
);
unicode = 170;
}
{
glyphname = guillemotleft;
layers = (
{
layerId = "785665E2-8136-4865-9B7E-748FCB278F4B";
shapes = (
{
closed = 1;
nodes = (
(943,187,l),
(809,531,l),
(1083,893,l),
(1089,937,l),
(796,937,l),
(531,572,l),
(516,496,l),
(658,138,l),
(938,138,l)
);
},
{
closed = 1;
nodes = (
(498,188,l),
(362,532,l),
(639,894,l),
(645,937,l),
(351,937,l),
(85,572,l),
(69,496,l),
(212,138,l),
(493,138,l)
);
}
);
width = 1139;
},
{
layerId = "C6FD8471-1839-414E-9C91-DDB255379DAE";
shapes = (
{
closed = 1;
nodes = (
(957,179,l),
(777,531,l),
(1097,896,l),
(1103,938,l),
(857,938,l),
(542,571,l),
(528,499,l),
(713,139,l),
(952,139,l)
);
},
{
closed = 1;
nodes = (
(500,179,l),
(320,531,l),
(642,897,l),
(648,938,l),
(401,938,l),
(86,571,l),
(71,499,l),
(256,139,l),
(495,139,l)
);
}
);
width = 1139;
},
{
layerId = "341BCE00-9002-445C-A6C9-0431889C03AA";
shapes = (
{
closed = 1;
nodes = (
(977,167,l),
(729,531,l),
(1119,902,l),
(1125,940,l),
(947,940,l),
(558,569,l),
(546,505,l),
(795,141,l),
(972,141,l)
);
},
{
closed = 1;
nodes = (
(504,167,l),
(258,531,l),
(646,901,l),
(652,940,l),
(475,940,l),
(88,569,l),
(75,505,l),
(322,141,l),
(499,141,l)
);
}
);
width = 1139;
},
{
layerId = "42616347-C5BD-494A-B849-B08086064D93";
shapes = (
{
closed = 1;
nodes = (
(991,159,l),
(697,531,l),
(1133,905,l),
(1139,941,l),
(1008,941,l),
(569,568,l),
(558,508,l),
(850,142,l),
(986,142,l)
);
},
{
closed = 1;
nodes = (
(506,158,l),
(216,530,l),
(649,904,l),
(655,941,l),
(525,941,l),
(89,568,l),
(77,508,l),
(366,142,l),
(501,142,l)
);
}
);
width = 1139;
}
);
unicode = 171;
}
{
glyphname = logicalnot;
layers = (
{
layerId = "2D57F921-1619-4848-A780-0286F5C5F7A5";
shapes = (
{
closed = 1;
nodes = (
(1107,819,l),
(58,819,l),
(58,543,l),
(830,543,l),
(830,115,l),
(1107,115,l)
);
}
);
width = 1196;
},
{
layerId = "7F330584-10E9-4267-8E26-4D2DDDC504D5";
shapes = (
{
closed = 1;
nodes = (
(1103,797,l),
(72,797,l),
(72,565,l),
(871,565,l),
(871,137,l),
(1103,137,l)
);
}
);
width = 1196;
},
{
layerId = "70541219-6074-4DB1-927E-09A6A4A4AC13";
shapes = (
{
closed = 1;
nodes = (
(1097,763,l),
(94,763,l),
(94,599,l),
(933,599,l),
(933,171,l),
(1097,171,l)
);
}
);
width = 1196;
},
{
layerId = "D7EC7508-C152-41F5-B530-A2FB36F9EC58";
shapes = (
{
closed = 1;
nodes = (
(1093,741,l),
(108,741,l),
(108,621,l),
(974,621,l),
(974,193,l),
(1093,193,l)
);
}
);
width = 1196;
}
);
unicode = 172;
}
{
glyphname = registered;
layers = (
{
layerId = "F22D2CAB-3A7F-49A1-9202-DC9343798BDC";
shapes = (
{
closed = 1;
nodes = (
(1507,836,o),
(1475,957,o),
(1411,1069,cs),
(1347,1180,o),
(1259,1268,o),
(1147,1333,cs),
(1035,1398,o),
(914,1430,o),
(784,1430,cs),
(656,1430,o),
(535,1398,o),
(423,1333,cs),
(311,1268,o),
(223,1180,o),
(158,1068,cs),
(94,957,o),
(61,836,o),
(61,707,cs),
(61,581,o),
(93,463,o),
(155,352,cs),
(218,241,o),
(306,152,o),
(418,85,cs),
(532,18,o),
(654,-16,o),
(784,-16,cs),
(913,-16,o),
(1033,16,o),
(1146,81,cs),
(1258,145,o),
(1347,233,o),
(1411,346,cs),
(1475,458,o),
(1507,578,o),
(1507,707,cs)
);
},
{
closed = 1;
nodes = (
(1382,601,o),
(1355,501,o),
(1302,408,cs),
(1249,315,o),
(1176,242,o),
(1083,188,cs),
(990,135,o),
(891,108,o),
(784,108,cs),
(677,108,o),
(578,135,o),
(486,189,cs),
(395,242,o),
(322,316,o),
(270,409,cs),
(216,502,o),
(190,601,o),
(190,707,cs),
(190,821,o),
(219,924,o),
(276,1016,cs),
(334,1108,o),
(408,1179,o),
(499,1228,cs),
(589,1277,o),
(685,1302,o),
(784,1302,cs),
(890,1302,o),
(990,1275,o),
(1082,1221,cs),
(1175,1167,o),
(1248,1095,o),
(1301,1004,cs),
(1355,913,o),
(1382,814,o),
(1382,707,cs)
);
},
{
closed = 1;
nodes = (
(679,600,l),
(766,600,l),
(930,302,l),
(1169,302,l),
(961,629,l),
(1010,648,o),
(1050,677,o),
(1080,715,cs),
(1110,754,o),
(1125,802,o),
(1125,861,cs),
(1125,938,o),
(1100,997,o),
(1049,1041,cs),
(998,1085,o),
(919,1107,o),
(812,1107,cs),
(467,1107,l),
(467,302,l),
(679,302,l)
);
},
{
closed = 1;
nodes = (
(910,828,o),
(900,802,o),
(882,782,cs),
(863,761,o),
(835,751,o),
(797,751,cs),
(679,751,l),
(679,960,l),
(787,960,ls),
(828,960,o),
(858,952,o),
(879,934,cs),
(899,917,o),
(910,892,o),
(910,859,cs)
);
}
);
width = 1509;
},
{
layerId = "540001E1-6881-4DFA-ACAC-B89E119E0EAF";
shapes = (
{
closed = 1;
nodes = (
(1508,836,o),
(1476,957,o),
(1412,1069,cs),
(1348,1180,o),
(1260,1268,o),
(1148,1333,cs),
(1036,1398,o),
(915,1430,o),
(785,1430,cs),
(657,1430,o),
(536,1398,o),
(424,1333,cs),
(312,1268,o),
(224,1180,o),
(159,1068,cs),
(95,957,o),
(62,836,o),
(62,707,cs),
(62,581,o),
(94,463,o),
(156,352,cs),
(219,241,o),
(307,152,o),
(419,85,cs),
(533,18,o),
(655,-16,o),
(785,-16,cs),
(914,-16,o),
(1034,16,o),
(1147,81,cs),
(1259,145,o),
(1348,233,o),
(1412,346,cs),
(1476,458,o),
(1508,578,o),
(1508,707,cs)
);
},
{
closed = 1;
nodes = (
(1394,599,o),
(1367,497,o),
(1313,403,cs),
(1259,308,o),
(1184,234,o),
(1090,179,cs),
(995,125,o),
(894,98,o),
(785,98,cs),
(676,98,o),
(575,125,o),
(481,180,cs),
(388,234,o),
(314,309,o),
(261,403,cs),
(206,497,o),
(179,598,o),
(179,707,cs),
(179,820,o),
(208,924,o),
(264,1017,cs),
(322,1111,o),
(397,1184,o),
(490,1236,cs),
(582,1287,o),
(681,1313,o),
(785,1313,cs),
(893,1313,o),
(995,1286,o),
(1089,1231,cs),
(1183,1177,o),
(1258,1103,o),
(1312,1010,cs),
(1367,917,o),
(1394,816,o),
(1394,707,cs)
);
},
{
closed = 1;
nodes = (
(661,609,l),
(773,609,l),
(949,297,l),
(1156,297,l),
(944,632,l),
(995,649,o),
(1037,678,o),
(1069,716,cs),
(1101,756,o),
(1116,807,o),
(1116,868,cs),
(1116,945,o),
(1091,1003,o),
(1041,1046,cs),
(990,1090,o),
(913,1112,o),
(810,1112,cs),
(478,1112,l),
(478,297,l),
(661,297,l)
);
},
{
closed = 1;
nodes = (
(932,829,o),
(920,799,o),
(899,776,cs),
(877,752,o),
(844,741,o),
(801,741,cs),
(661,741,l),
(661,981,l),
(790,981,ls),
(836,981,o),
(870,972,o),
(895,952,cs),
(919,932,o),
(932,904,o),
(932,866,cs)
);
}
);
width = 1509;
},
{
layerId = "85C7CFC8-DA24-401F-A421-248411B25E5A";
shapes = (
{
closed = 1;
nodes = (
(1508,836,o),
(1476,957,o),
(1412,1069,cs),
(1348,1180,o),
(1260,1268,o),
(1148,1333,cs),
(1036,1398,o),
(915,1430,o),
(785,1430,cs),
(657,1430,o),
(536,1398,o),
(424,1333,cs),
(312,1268,o),
(224,1180,o),
(159,1068,cs),
(95,957,o),
(62,836,o),
(62,707,cs),
(62,581,o),
(94,463,o),
(156,352,cs),
(219,241,o),
(307,152,o),
(419,85,cs),
(533,18,o),
(655,-16,o),
(785,-16,cs),
(914,-16,o),
(1034,16,o),
(1147,81,cs),
(1259,145,o),
(1348,233,o),
(1412,346,cs),
(1476,458,o),
(1508,578,o),
(1508,707,cs)
);
},
{
closed = 1;
nodes = (
(1412,595,o),
(1384,491,o),
(1328,394,cs),
(1273,299,o),
(1197,222,o),
(1100,167,cs),
(1004,111,o),
(899,82,o),
(785,82,cs),
(674,82,o),
(570,110,o),
(474,166,cs),
(379,221,o),
(302,297,o),
(247,395,c),
(190,491,o),
(163,595,o),
(163,707,cs),
(163,819,o),
(191,923,o),
(247,1020,cs),
(303,1116,o),
(379,1192,o),
(476,1248,cs),
(572,1303,o),
(676,1331,o),
(785,1331,cs),
(897,1331,o),
(1002,1302,o),
(1098,1247,cs),
(1196,1191,o),
(1272,1115,o),
(1328,1018,cs),
(1384,923,o),
(1412,819,o),
(1412,707,cs)
);
},
{
closed = 1;
nodes = (
(635,621,l),
(785,621,l),
(979,291,l),
(1138,291,l),
(918,638,l),
(974,651,o),
(1019,678,o),
(1053,719,cs),
(1086,760,o),
(1104,813,o),
(1104,880,cs),
(1104,954,o),
(1079,1012,o),
(1028,1055,cs),
(977,1097,o),
(904,1118,o),
(808,1118,cs),
(496,1118,l),
(496,291,l),
(635,291,l)
);
},
{
closed = 1;
nodes = (
(964,831,o),
(951,793,o),
(924,766,cs),
(897,739,o),
(859,725,o),
(807,725,cs),
(635,725,l),
(635,1013,l),
(796,1013,ls),
(848,1013,o),
(889,1002,o),
(919,978,c),
(949,956,o),
(964,922,o),
(964,878,cs)
);
}
);
width = 1509;
},
{
layerId = "9CB70E7F-BC76-4DD2-ACFF-26AC98198772";
shapes = (
{
closed = 1;
nodes = (
(1509,836,o),
(1477,957,o),
(1413,1069,cs),
(1349,1180,o),
(1261,1268,o),
(1149,1333,cs),
(1037,1398,o),
(916,1430,o),
(786,1430,cs),
(658,1430,o),
(537,1398,o),
(425,1333,cs),
(313,1268,o),
(225,1180,o),
(160,1068,cs),
(96,957,o),
(63,836,o),
(63,707,cs),
(63,581,o),
(95,463,o),
(157,352,cs),
(220,241,o),
(308,152,o),
(420,85,cs),
(534,18,o),
(656,-16,o),
(786,-16,cs),
(915,-16,o),
(1035,16,o),
(1148,81,cs),
(1260,145,o),
(1349,233,o),
(1413,346,cs),
(1477,458,o),
(1509,578,o),
(1509,707,cs)
);
},
{
closed = 1;
nodes = (
(1424,593,o),
(1396,487,o),
(1339,389,cs),
(1283,292,o),
(1205,214,o),
(1107,158,cs),
(1009,101,o),
(902,72,o),
(786,72,cs),
(673,72,o),
(567,100,o),
(469,157,cs),
(372,213,o),
(294,290,o),
(238,389,cs),
(180,486,o),
(152,592,o),
(152,707,cs),
(152,818,o),
(180,923,o),
(235,1021,cs),
(291,1119,o),
(368,1197,o),
(467,1256,cs),
(565,1313,o),
(672,1342,o),
(786,1342,cs),
(900,1342,o),
(1007,1313,o),
(1105,1257,cs),
(1204,1201,o),
(1282,1123,o),
(1339,1024,cs),
(1396,927,o),
(1424,821,o),
(1424,707,cs)
);
},
{
closed = 1;
nodes = (
(617,630,l),
(792,630,l),
(998,286,l),
(1125,286,l),
(901,641,l),
(959,652,o),
(1006,679,o),
(1042,720,cs),
(1077,762,o),
(1095,818,o),
(1095,887,cs),
(1095,961,o),
(1070,1018,o),
(1020,1060,cs),
(969,1102,o),
(898,1123,o),
(806,1123,cs),
(507,1123,l),
(507,286,l),
(617,286,l)
);
},
{
closed = 1;
nodes = (
(986,832,o),
(971,790,o),
(941,760,cs),
(911,730,o),
(868,715,o),
(811,715,cs),
(617,715,l),
(617,1034,l),
(799,1034,l),
(856,1034,o),
(901,1022,o),
(935,996,cs),
(969,971,o),
(986,934,o),
(986,885,cs)
);
}
);
width = 1509;
}
);
unicode = 174;
}
{
glyphname = macron;
layers = (
{
layerId = "826E86D0-E588-4774-9A02-039E3F74D6B5";
shapes = (
{
closed = 1;
nodes = (
(1148,1496,l),
(-17,1496,l),
(-17,1418,l),
(1148,1418,l)
);
}
);
width = 1131;
},
{
layerId = "CCC0E55B-A8B0-4BE5-BCFE-654143F4C169";
shapes = (
{
closed = 1;
nodes = (
(1148,1538,l),
(-17,1538,l),
(-17,1447,l),
(1148,1447,l)
);
}
);
width = 1131;
},
{
layerId = "BA5C3EFA-52F0-4978-BF26-13A2AC8190BC";
shapes = (
{
closed = 1;
nodes = (
(1148,1602,l),
(-17,1602,l),
(-17,1491,l),
(1148,1491,l)
);
}
);
width = 1131;
},
{
layerId = "344EAA8B-658C-4164-B741-D5EC6A8B0AA2";
shapes = (
{
closed = 1;
nodes = (
(1148,1644,l),
(-17,1644,l),
(-17,1520,l),
(1148,1520,l)
);
}
);
width = 1131;
}
);
unicode = 175;
}
